<mxfile host="Electron" agent="Mozilla/5.0 (Windows NT 10.0; Win64; x64) AppleWebKit/537.36 (KHTML, like Gecko) draw.io/24.7.17 Chrome/128.0.6613.36 Electron/32.0.1 Safari/537.36" compressed="false" version="24.7.17">
  <diagram name="Страница-1" id="Страница-1">
    <mxGraphModel dx="1953" dy="1146" grid="1" gridSize="9.8425" guides="1" tooltips="1" connect="1" arrows="1" fold="1" page="1" pageScale="1" pageWidth="2336" pageHeight="1654" background="none" math="0" shadow="0">
      <root>
        <mxCell id="0" />
        <mxCell id="IKqkC-VqAS8bh-hIaz8--111" value="Другое" parent="0" />
        <mxCell id="OupxM0vO_hwoNVz3ZpiY-11" value="" style="shape=mxgraph.cisco.routers.router;sketch=0;html=1;pointerEvents=1;dashed=0;fillColor=#000000;strokeColor=#E6E6E6;strokeWidth=2;verticalLabelPosition=bottom;verticalAlign=top;align=center;outlineConnect=0;fontSize=23;fillStyle=auto;aspect=fixed;fontFamily=Arial;fontStyle=2" parent="IKqkC-VqAS8bh-hIaz8--111" vertex="1">
          <mxGeometry x="1057.7325" y="570.0424999999998" width="78.74" height="54.36" as="geometry" />
        </mxCell>
        <mxCell id="OupxM0vO_hwoNVz3ZpiY-12" value="" style="shape=mxgraph.cisco.servers.file_server;sketch=0;html=1;pointerEvents=1;dashed=0;fillColor=#000000;strokeColor=#E6E6E6;strokeWidth=2;verticalLabelPosition=bottom;verticalAlign=top;align=center;outlineConnect=0;fillStyle=auto;fontSize=23;fontFamily=Arial;fontStyle=2" parent="IKqkC-VqAS8bh-hIaz8--111" vertex="1">
          <mxGeometry x="1691.6525" y="544.4024999999999" width="78.74" height="80" as="geometry" />
        </mxCell>
        <mxCell id="OupxM0vO_hwoNVz3ZpiY-13" value="&lt;span&gt;Интранет&lt;/span&gt;" style="ellipse;whiteSpace=wrap;html=1;aspect=fixed;fontFamily=Arial;fontStyle=2" parent="IKqkC-VqAS8bh-hIaz8--111" vertex="1">
          <mxGeometry x="1057.7324999999998" y="275.15250000000003" width="80" height="80" as="geometry" />
        </mxCell>
        <mxCell id="OupxM0vO_hwoNVz3ZpiY-28" value="" style="shape=mxgraph.cisco.computers_and_peripherals.pc;sketch=0;html=1;pointerEvents=1;dashed=0;fillColor=#000000;strokeColor=#E6E6E6;strokeWidth=2;verticalLabelPosition=bottom;verticalAlign=top;align=center;outlineConnect=0;fontSize=23;fillStyle=auto;aspect=fixed;fontFamily=Arial;fontStyle=2" parent="IKqkC-VqAS8bh-hIaz8--111" vertex="1">
          <mxGeometry x="442.91249999999997" y="1545.2725" width="78.74" height="71.8" as="geometry" />
        </mxCell>
        <mxCell id="OupxM0vO_hwoNVz3ZpiY-30" value="" style="shape=mxgraph.cisco.computers_and_peripherals.pc;sketch=0;html=1;pointerEvents=1;dashed=0;fillColor=#000000;strokeColor=#E6E6E6;strokeWidth=2;verticalLabelPosition=bottom;verticalAlign=top;align=center;outlineConnect=0;fontSize=23;fillStyle=auto;aspect=fixed;fontFamily=Arial;fontStyle=2" parent="IKqkC-VqAS8bh-hIaz8--111" vertex="1">
          <mxGeometry x="1495.2425" y="283.35249999999996" width="78.74" height="71.8" as="geometry" />
        </mxCell>
        <mxCell id="OupxM0vO_hwoNVz3ZpiY-31" value="" style="shape=mxgraph.cisco.computers_and_peripherals.pc;sketch=0;html=1;pointerEvents=1;dashed=0;fillColor=#000000;strokeColor=#E6E6E6;strokeWidth=2;verticalLabelPosition=bottom;verticalAlign=top;align=center;outlineConnect=0;fontSize=23;fillStyle=auto;aspect=fixed;fontFamily=Arial;fontStyle=2" parent="IKqkC-VqAS8bh-hIaz8--111" vertex="1">
          <mxGeometry x="1653.5324999999998" y="283.35249999999996" width="78.74" height="71.8" as="geometry" />
        </mxCell>
        <mxCell id="OupxM0vO_hwoNVz3ZpiY-33" value="" style="shape=mxgraph.cisco.computers_and_peripherals.laptop;sketch=0;html=1;pointerEvents=1;dashed=0;fillColor=#000000;strokeColor=#E6E6E6;strokeWidth=2;verticalLabelPosition=bottom;verticalAlign=top;align=center;outlineConnect=0;fillStyle=auto;fontSize=23;aspect=fixed;fontFamily=Arial;container=0;fontStyle=2" parent="IKqkC-VqAS8bh-hIaz8--111" vertex="1">
          <mxGeometry x="285.2125" y="1555.8425" width="78.74" height="54.22" as="geometry" />
        </mxCell>
        <mxCell id="OupxM0vO_hwoNVz3ZpiY-34" value="" style="shape=mxgraph.cisco.computers_and_peripherals.laptop;sketch=0;html=1;pointerEvents=1;dashed=0;fillColor=#000000;strokeColor=#E6E6E6;strokeWidth=2;verticalLabelPosition=bottom;verticalAlign=top;align=center;outlineConnect=0;fillStyle=auto;fontSize=23;aspect=fixed;fontFamily=Arial;container=0;fontStyle=2" parent="IKqkC-VqAS8bh-hIaz8--111" vertex="1">
          <mxGeometry x="747.1450000000002" y="535.2649999999998" width="78.74" height="54.22" as="geometry" />
        </mxCell>
        <mxCell id="OupxM0vO_hwoNVz3ZpiY-35" value="" style="shape=mxgraph.cisco.computers_and_peripherals.printer;sketch=0;html=1;pointerEvents=1;dashed=0;fillColor=#000000;strokeColor=#E6E6E6;strokeWidth=2;verticalLabelPosition=bottom;verticalAlign=top;align=center;outlineConnect=0;fontSize=23;fillStyle=auto;aspect=fixed;fontFamily=Arial;fontStyle=2" parent="IKqkC-VqAS8bh-hIaz8--111" vertex="1">
          <mxGeometry x="127.9525" y="1569.9524999999999" width="78.74" height="29.88" as="geometry" />
        </mxCell>
        <mxCell id="OupxM0vO_hwoNVz3ZpiY-36" style="edgeStyle=orthogonalEdgeStyle;rounded=0;orthogonalLoop=1;jettySize=auto;html=1;strokeWidth=1;fontFamily=Arial;fontSize=14;endArrow=none;endFill=0;dashed=1;align=center;fontStyle=2;entryX=0.95;entryY=0.5;entryDx=0;entryDy=0;entryPerimeter=0;exitX=0.12;exitY=0.1;exitDx=0;exitDy=0;exitPerimeter=0;" parent="IKqkC-VqAS8bh-hIaz8--111" source="OupxM0vO_hwoNVz3ZpiY-11" target="0MDFwOMSwQNmZCORZw81-283" edge="1">
          <mxGeometry relative="1" as="geometry">
            <mxPoint x="312.2099999999997" y="1053.9600000000003" as="targetPoint" />
            <mxPoint x="689.1" y="457.38000000000005" as="sourcePoint" />
            <Array as="points">
              <mxPoint x="984" y="576" />
              <mxPoint x="984" y="401" />
            </Array>
          </mxGeometry>
        </mxCell>
        <mxCell id="OupxM0vO_hwoNVz3ZpiY-37" style="edgeStyle=orthogonalEdgeStyle;rounded=0;orthogonalLoop=1;jettySize=auto;html=1;strokeWidth=1;fontFamily=Arial;fontSize=14;endArrow=none;endFill=0;dashed=1;align=center;fontStyle=2;exitX=0.12;exitY=0.9;exitDx=0;exitDy=0;exitPerimeter=0;entryX=0.95;entryY=0.5;entryDx=0;entryDy=0;entryPerimeter=0;" parent="IKqkC-VqAS8bh-hIaz8--111" source="OupxM0vO_hwoNVz3ZpiY-11" target="OupxM0vO_hwoNVz3ZpiY-34" edge="1">
          <mxGeometry relative="1" as="geometry">
            <mxPoint x="846" y="591" as="targetPoint" />
            <mxPoint x="846.1" y="457.38000000000005" as="sourcePoint" />
            <Array as="points">
              <mxPoint x="945" y="619" />
              <mxPoint x="945" y="562" />
            </Array>
          </mxGeometry>
        </mxCell>
        <mxCell id="pTe1reIeNGK_JbSvzqk1-3" value="" style="endArrow=none;html=1;rounded=0;strokeWidth=1;fontFamily=Arial;fontSize=14;align=center;fontStyle=2;exitX=0.5;exitY=1;exitDx=0;exitDy=0;" parent="IKqkC-VqAS8bh-hIaz8--111" source="OupxM0vO_hwoNVz3ZpiY-13" target="OupxM0vO_hwoNVz3ZpiY-11" edge="1">
          <mxGeometry width="50" height="50" relative="1" as="geometry">
            <mxPoint x="1096.4725" y="462.59250000000014" as="sourcePoint" />
            <mxPoint x="1106.0925" y="539.8425" as="targetPoint" />
          </mxGeometry>
        </mxCell>
        <mxCell id="pTe1reIeNGK_JbSvzqk1-12" value="PC 1" style="text;html=1;strokeColor=none;fillColor=none;align=center;verticalAlign=middle;whiteSpace=wrap;rounded=0;dashed=1;fillStyle=auto;strokeWidth=2;fontFamily=Arial;fontSize=14;fontStyle=2" parent="IKqkC-VqAS8bh-hIaz8--111" vertex="1">
          <mxGeometry x="1494.8" y="263.35" width="79.63" height="20" as="geometry" />
        </mxCell>
        <mxCell id="pTe1reIeNGK_JbSvzqk1-13" value="PC 2" style="text;html=1;strokeColor=none;fillColor=none;align=center;verticalAlign=middle;whiteSpace=wrap;rounded=0;dashed=1;fillStyle=auto;strokeWidth=2;fontFamily=Arial;fontSize=14;fontStyle=2" parent="IKqkC-VqAS8bh-hIaz8--111" vertex="1">
          <mxGeometry x="1653.5325" y="263.35249999999996" width="80" height="20" as="geometry" />
        </mxCell>
        <mxCell id="pTe1reIeNGK_JbSvzqk1-14" value="PC 3" style="text;html=1;strokeColor=none;fillColor=none;align=center;verticalAlign=middle;whiteSpace=wrap;rounded=0;dashed=1;fillStyle=auto;strokeWidth=2;fontFamily=Arial;fontSize=14;fontStyle=2" parent="IKqkC-VqAS8bh-hIaz8--111" vertex="1">
          <mxGeometry x="1811.0149999999999" y="871.1349999999999" width="80" height="20" as="geometry" />
        </mxCell>
        <mxCell id="pTe1reIeNGK_JbSvzqk1-15" value="&lt;span style=&quot;color: rgb(0, 0, 0); font-family: Arial; font-size: 14px; font-style: italic; font-variant-ligatures: normal; font-variant-caps: normal; font-weight: 400; letter-spacing: normal; orphans: 2; text-align: center; text-indent: 0px; text-transform: none; widows: 2; word-spacing: 0px; -webkit-text-stroke-width: 0px; white-space: normal; background-color: rgb(251, 251, 251); text-decoration-thickness: initial; text-decoration-style: initial; text-decoration-color: initial; display: inline !important; float: none;&quot;&gt;Wireless 1&lt;/span&gt;" style="text;whiteSpace=wrap;html=1;" parent="IKqkC-VqAS8bh-hIaz8--111" vertex="1">
          <mxGeometry x="747.14" y="344.48999999999995" width="79.18" height="29.52" as="geometry" />
        </mxCell>
        <mxCell id="pTe1reIeNGK_JbSvzqk1-17" value="&lt;span style=&quot;color: rgb(0, 0, 0); font-family: Arial; font-size: 14px; font-style: italic; font-variant-ligatures: normal; font-variant-caps: normal; font-weight: 400; letter-spacing: normal; orphans: 2; text-align: center; text-indent: 0px; text-transform: none; widows: 2; word-spacing: 0px; -webkit-text-stroke-width: 0px; white-space: normal; background-color: rgb(251, 251, 251); text-decoration-thickness: initial; text-decoration-style: initial; text-decoration-color: initial; display: inline !important; float: none;&quot;&gt;Wireless 3&lt;/span&gt;" style="text;whiteSpace=wrap;html=1;" parent="IKqkC-VqAS8bh-hIaz8--111" vertex="1">
          <mxGeometry x="747.14" y="505.2974999999999" width="78.74" height="29.527499999999996" as="geometry" />
        </mxCell>
        <mxCell id="pTe1reIeNGK_JbSvzqk1-34" value="Printer" style="text;html=1;strokeColor=none;fillColor=none;align=center;verticalAlign=middle;whiteSpace=wrap;rounded=0;dashed=1;fillStyle=auto;strokeWidth=2;fontFamily=Arial;fontSize=14;fontStyle=2" parent="IKqkC-VqAS8bh-hIaz8--111" vertex="1">
          <mxGeometry x="1652.2750000000003" y="866.135" width="80" height="30" as="geometry" />
        </mxCell>
        <mxCell id="pTe1reIeNGK_JbSvzqk1-35" value="&lt;span&gt;&lt;font style=&quot;font-size: 24px;&quot;&gt;...&lt;/font&gt;&lt;/span&gt;" style="text;html=1;align=center;verticalAlign=middle;resizable=0;points=[];autosize=1;strokeColor=none;fillColor=none;fontSize=23;fontFamily=Arial;fontStyle=2" parent="IKqkC-VqAS8bh-hIaz8--111" vertex="1">
          <mxGeometry x="767.0499999999998" y="451.0900000000002" width="39.37" height="39.37" as="geometry" />
        </mxCell>
        <mxCell id="mVWykb73rqQKBAf5Biol-1" value="" style="shape=mxgraph.cisco.switches.workgroup_switch;sketch=0;html=1;pointerEvents=1;dashed=0;fillColor=#000000;strokeColor=#E6E6E6;strokeWidth=2;verticalLabelPosition=bottom;verticalAlign=top;align=center;outlineConnect=0;fontSize=23;fillStyle=auto;aspect=fixed;fontFamily=Arial;fontStyle=2" parent="IKqkC-VqAS8bh-hIaz8--111" vertex="1">
          <mxGeometry x="443.2125" y="1444.8425" width="78.74" height="44.44" as="geometry" />
        </mxCell>
        <mxCell id="mVWykb73rqQKBAf5Biol-4" value="" style="shape=mxgraph.cisco.switches.workgroup_switch;sketch=0;html=1;pointerEvents=1;dashed=0;fillColor=#000000;strokeColor=#E6E6E6;strokeWidth=2;verticalLabelPosition=bottom;verticalAlign=top;align=center;outlineConnect=0;fontSize=23;fillStyle=auto;aspect=fixed;fontFamily=Arial;fontStyle=2" parent="IKqkC-VqAS8bh-hIaz8--111" vertex="1">
          <mxGeometry x="1376.6924999999999" y="491.3025" width="78.74" height="44.44" as="geometry" />
        </mxCell>
        <mxCell id="mVWykb73rqQKBAf5Biol-5" value="" style="endArrow=none;html=1;rounded=0;strokeWidth=1;fontFamily=Arial;fontSize=14;align=center;fontStyle=2;exitX=0;exitY=0.5;exitDx=0;exitDy=0;exitPerimeter=0;" parent="IKqkC-VqAS8bh-hIaz8--111" source="mVWykb73rqQKBAf5Biol-4" target="OupxM0vO_hwoNVz3ZpiY-11" edge="1">
          <mxGeometry width="50" height="50" relative="1" as="geometry">
            <mxPoint x="1106.5825" y="472.28249999999997" as="sourcePoint" />
            <mxPoint x="1106.5825" y="580.2825" as="targetPoint" />
          </mxGeometry>
        </mxCell>
        <mxCell id="mVWykb73rqQKBAf5Biol-6" value="" style="endArrow=none;html=1;rounded=0;strokeWidth=1;fontFamily=Arial;fontSize=14;align=center;fontStyle=2;exitX=0;exitY=0.5;exitDx=0;exitDy=0;exitPerimeter=0;" parent="IKqkC-VqAS8bh-hIaz8--111" source="0MDFwOMSwQNmZCORZw81-282" target="OupxM0vO_hwoNVz3ZpiY-11" edge="1">
          <mxGeometry width="50" height="50" relative="1" as="geometry">
            <mxPoint x="1386.5825" y="523.2825" as="sourcePoint" />
            <mxPoint x="1136.5825" y="585.2825" as="targetPoint" />
          </mxGeometry>
        </mxCell>
        <mxCell id="mVWykb73rqQKBAf5Biol-7" value="" style="endArrow=none;html=1;rounded=0;strokeWidth=1;fontFamily=Arial;fontSize=14;align=center;fontStyle=2;exitX=0;exitY=0.5;exitDx=0;exitDy=0;exitPerimeter=0;entryX=0.87;entryY=0.74;entryDx=0;entryDy=0;entryPerimeter=0;" parent="IKqkC-VqAS8bh-hIaz8--111" source="OupxM0vO_hwoNVz3ZpiY-12" target="mVWykb73rqQKBAf5Biol-4" edge="1">
          <mxGeometry width="50" height="50" relative="1" as="geometry">
            <mxPoint x="1386.5825" y="523.2825" as="sourcePoint" />
            <mxPoint x="1136.5825" y="585.2825" as="targetPoint" />
          </mxGeometry>
        </mxCell>
        <mxCell id="mVWykb73rqQKBAf5Biol-8" value="" style="endArrow=none;html=1;rounded=0;strokeWidth=1;fontFamily=Arial;fontSize=14;align=center;fontStyle=2;entryX=0.87;entryY=0.74;entryDx=0;entryDy=0;entryPerimeter=0;" parent="IKqkC-VqAS8bh-hIaz8--111" source="OupxM0vO_hwoNVz3ZpiY-12" target="0MDFwOMSwQNmZCORZw81-282" edge="1">
          <mxGeometry width="50" height="50" relative="1" as="geometry">
            <mxPoint x="1712.5825" y="560.2825" as="sourcePoint" />
            <mxPoint x="1454.5825" y="534.2825" as="targetPoint" />
          </mxGeometry>
        </mxCell>
        <mxCell id="mVWykb73rqQKBAf5Biol-9" value="" style="endArrow=none;html=1;rounded=0;strokeWidth=1;fontFamily=Arial;fontSize=14;align=center;fontStyle=2;exitX=0.5;exitY=0;exitDx=0;exitDy=0;exitPerimeter=0;entryX=0.5;entryY=0.98;entryDx=0;entryDy=0;entryPerimeter=0;" parent="IKqkC-VqAS8bh-hIaz8--111" source="0MDFwOMSwQNmZCORZw81-282" target="mVWykb73rqQKBAf5Biol-4" edge="1">
          <mxGeometry width="50" height="50" relative="1" as="geometry">
            <mxPoint x="1701.5825" y="594.2825" as="sourcePoint" />
            <mxPoint x="1454.5825" y="534.2825" as="targetPoint" />
          </mxGeometry>
        </mxCell>
        <mxCell id="mVWykb73rqQKBAf5Biol-11" value="" style="shape=image;verticalLabelPosition=bottom;labelBackgroundColor=default;verticalAlign=top;aspect=fixed;imageAspect=0;image=data:image/png,iVBORw0KGgoAAAANSUhEUgAABLsAAAJcCAIAAACe9TGsAAAgAElEQVR4Aezdf3gU1aH/8RUuoiXWpTYPCE9hueAv0LKCNU3l0b2ATxBa3AJKiz+6aCX4UMv6A3gUiesXhavFLldoipW6eIteq70u3Da5xUI3Xo2J1YdtVRRTLhuklRaBKZaHH7GwX2t6Y0hmN3Nmzpz5se/8w2b2zJxzXudMZj7M7kwgX/inpaWl8Ju8gwACtguwD9pOTAUIFBVgHyzKw5sI2C7APmg7MRUgUFSgfR8MFCnDXloEh7cQUCDAPqgAmSoQKCLAPlgEh7cQUCDAPqgAmSoQKCLQvg8GWvhBAAEEEEAAAQQQQAABBBBAQE+Aa4xFQjVvIeCwAP+36vAAUH3JC7APlvwUAMBhAfZBhweA6kte4B/XGIs4sJcWweEtBBQIsA8qQKYKBIoIsA8WweEtBBQIsA8qQKYKBIoItO+DXGMsQsRbCDgswJHS4QGg+pIXYB8s+SkAgMMC7IMODwDVl7wAibHkpwAArhfgSOn6IaKBPhdgH/T5ANM91wuwD7p+iGigzwVIjD4fYLrnAwGOlD4YRLrgaQH2QU8PH433gQD7oA8GkS54WoDE6Onho/ElIcCRsiSGmU66WIB90MWDQ9NKQoB9sCSGmU66WIDE6OLBoWkIfCLAkZKJgICzAuyDzvpTOwLsg8wBBJwVIDE660/tCPQswJGyZyNKIGCnAPugnbpsG4GeBdgHezaiBAJ2CpAY7dRl2wjIEOBIKUORbSBgXoB90LwdayIgQ4B9UIYi20DAvACJ0byd0JrHjh3bv39/Kz8IiAs0NDSIr8QaCCAgTYB9UBolG0LAlAD7oCm2Yivt37//6NGjQqeyFC5lARKj1dHftWvX5s2b16xZc9ddd82dO/f666+/+uqrJ0yYUFFRMWrUqCFDhnzuc5879dRTA/wggAACCCCAAAIIIOAagT59+vTv33/IkCEjR4689NJLx48fP3Xq1FmzZt1yyy233377v/3bv9XV1b377rvHjx+3errM+h4XIDEKDOAf/vCHhoaGxx9/fNGiRdOmTbvoootOP/101+z1NAQBBBBAAAEEEEAAAfkCI0aMmDRp0ne+852VK1f+4he/2L59+9/+9jeBc2iKelyAxFhsAPfv379x48YFCxZUVlaWlZXJ3//YIgIIIIAAAggggAACHhQYPnz4jTfe+Nhjj23btq3Y+TTveV+AxNh1DPfs2fPcc89997vfHTNmjAd3XpqMAAIIIIAAAggggIBSgYEDB06fPj2ZTP7mN7/pem7N794XIDH+fQxbW1vXr18/d+7cCy+8UOnuRWUIIIAAAggggAACCPhI4IwzzrjqqqseeOCBhoYG72clevB3gZJOjO+///6jjz56xRVX+GgnpSsIIIAAAggggAACCLhCoH///jfddNMvfvELgpenBUoxMWqa9vjjj0+aNMkVexKNQAABBBBAAAEEEEDA1wLl5eXV1dWbNm3ydHAq2caXUGI8cuTI+vXrv/71r/t6f6RzCCCAAAIIIIAAAgi4VGDQoEHf+c53fv3rX5ds+vJix0siMT7//POzZs3q27evS3cdmoUAAggggAACCCCAQCkJDBkyJB6Pc6ccTwRInyfGxx57bPTo0aW099FXBBBAAAEEEEAAAQQ8I3DVVVdt3LjRE8GpZBvpz8S4f//+pUuXDho0yDP7Cg1FAAEEEEAAAQQQQKBUBcLh8Jo1a0o2krm8435LjNu3b//ud7/bp0+fUt3d6DcCCCCAAAIIIIAAAp4UGDBgwH333bdnzx6XJ6hSa55/EuNLL730zW9+05M7B41GAAEEEEAAAQQQQACB/xOorq7eunVrqQUz1/bXD4kxk8lMnDjx/yYY/yKAAAIIIIAAAggggIDnBaZOncqtcdwQI72dGHO53OzZsz2/N9ABBBBAAAEEEEAAAQQQ0BOYO3fuH//4RzcEp5Jtg4cT4/3339+rVy+9eeXAsr59+44aNSoajc6ZM+eOO+647777vve97/3whz/8yU9+smHDhs2bNzc3N7/11luNjY2t/CCAAAIIIIAAAggg4JDArl273nrrrebm5s2bN2/YsGH9+vVr1qxZsWJFIpG466675s6dO3PmzLFjx5555pkOnFIXqLJv374PPPBAyQY2xzvuycT45JNP/vM//3OBGWX74t69e59//vlf+9rXbr/99tra2hdeeCGXyzk+kDQAAQQQQAABBBBAAAGJAnv27Hn55ZfXrVt37733fuMb37jkkkuCwaDtp9qFKxg+fHgqlZLYQTZlUMBjibGhoWH8+PGFJ5Jd7wwbNuyGG2547LHHtm3bZlCWYggggAACCCCAAAII+Ezgz3/+88aNGxcuXPiVr3zFrjPvotu9/PLLf/WrX/lM1eXd8UxibG1tvemmm4rOH8lvnnfeed/+9rfXrVu3Y8cOl48izUMAAQQQQAABBBBAQLHAkSNHfvWrXyUSiSuvvPL000+XfC5edHOzZs165513FPe3ZKvzRmJcu3btZz7zmaLTRs6b/fv3v+WWW55++undu3eX7Jyg4wgggAACCCCAAAIIiAq88sor3/ve9yKRiJzzcgNbWblypWgjKW9CwO2J8eDBgzfeeKOBCWOpyGmnnXb99den02kTgqyCAAIIIIAAAggggAACHQKtra3f//73x40bZ+kE3djKV199dWtra0fVvLBDwNWJ8ec//3koFDI2W0yWmjZt2tNPP33s2DE7cNkmAggggAACCCCAAAIlK/D73//+oYceqqioMHmmbmy1z372s9wRx9Y55t7EuGDBAmOTxEypq6666sc//vFf/vIXW3HZOAIIIIAAAggggAACCLzzzjsPPvjgmDFjzJy4G1vnxhtv1DQNajsE3JgYf/Ob39j3XxHV1dW//e1v7aBkmwgggAACCCCAAAIIIFBE4L//+7+vvvpqYxlQuNQXvvCF559/vkjtvGVOwHWJ8ePnhwrPDgMrnHXWWffee+/7779vjom1EEAAAQQQQAABBBBAQIrAb3/727lz5xo4hTdT5Lbbbjtx4oSUdrKRdgEXJca//vWvU6dONTMviq5z/vnnP/roox999BFDjgACCCCAAAIIIIAAAi4R+POf/3z//fefffbZRc/lzbx54YUXvv766y7ppg+a4ZbE+Pbbb4fDYTMzovA6l19++X/8x3/4YJDoAgIIIIAAAggggAACfhX40Y9+JP0rjqeffvrPfvYzv4op7pcrEuMLL7zw+c9/vnD0E37n/PPPf/rppxVTUh0CCCCAAAIIIIAAAgiYE3jiiSeGDRsmfN5fdIUVK1aYawxrdRZwPjH++Mc/LjrQYm+edtppy5cv79xDXiOAAAIIIIAAAggggIAnBP7f//t/ffr0EQsARUvfdtttnui4mxvpcGK8//77iw6x2JvV1dV//OMf3cxN2xBAAAEEEEAAAQQQQKCIwO7du+fMmSMWA4qW/trXvnbw4MEiNfJWcQEnE+O3v/3tooMr8GZVVVVjY2PxrvIuAggggAACCCCAAAIIeEKgubl5ypQpAnmgaNGLLrrod7/7nSc67sJGOpMY9+/fP2nSpKLDavTN8847j68sunBi0SQEEEAAAQQQQAABBCwK/OxnPxs9erTRYFC03BlnnLFx40aL7SnN1R1IjG+//faoUaOKDqjRN+fMmXP06NHSHDl6jQACCCCAAAIIIIBAKQjcddddRuNBT+VWrVpVCmJy+6g6Me7YseOcc87paSh7fr9///7r16+Xa8HWEEAAAQQQQAABBBBAwIUCdXV1I0aM6DkkGCjxgx/8wIUddHOTlCbG9957T8rVxauvvnrXrl1uZqVtCCCAAAIIIIAAAgggIFHg8OHDt9xyi4FI2HORH/7whxIb5vtNqUuMe/bsufjii3sewJ5KPPLII74fFTqIAAIIIIAAAggggAAC3QWefvrp8vLynhJDz+8/9thj3TfOEl0BRYlx//79l156ac9DV7TEl7/85ddee023GyxEAAEEEEAAAQQQQACBUhDYs2fPtddeWzQ3GHrz8ccfLwUu631UkRg//PDDcePGGRq3woVuv/12671lCwgggAACCCCAAAIIIOADgR/+8IeFo4PRd3784x/7gMLuLtieGI8ePfov//IvRgetQLnvf//7dkOwfQQQQAABBBBAAAEEEPCQwC9/+cvPf/7zBQKE0cXr1q3zUJcdaaq9ifHEiRNVVVVGh0uvXJ8+fZ599llHaKgUAQQQQAABBBBAAAEE3CzwzjvvXHLJJXoxQmDZv//7v7u5j463zd7E+NWvflVgrLoVHTZsWFNTk+NGNAABBBBAAAEEEEAAAQTcKXDkyJHp06d3SxJiC7hGVWRwbUyM8XhcbKBOLn355Zfv3r27SNN5CwEEEEAAAQQQQAABBBDI5/N33nnnyWFC7LfTTjstm80iqStgV2Jcs2aN2CidXHrWrFm6zWUhAggggAACCCCAAAIIINBdYNWqVSdHCrHfLrroor/+9a/dN8sSWxJjQ0OD2PicXHrRokUMDAIIIIAAAggggAACCCAgJPDzn/+8X79+J2cLgd+mTZsmVF2JFJafGP/0pz8NGzZMYGROLkpcLJGZRzcRQAABBBBAAAEEEJAu8Otf//r0008/OWEI/EYY6T4i8hPjpEmTBMbk5KI8dLH7CLEEAQQQQAABBBBAAAEEjAts3ry5b9++J+cMgd/Wrl1rvK5SKCk5MVq52813vvOdUhCnjwgggAACCCCAAAIIIGCrwAsvvNCnTx+BmHhy0YaGBlub562Ny0yMVu52U11d7S04WosAAggggAACCCCAAAKuFfjlL3/Zq1evk5Og0d+GDh36xz/+0bVdU9wwaYnRyt1uZs+erbjbVIcAAggggAACCCCAAAL+FqivrzeaEbuVmzhxor9xjPdOTmI8fvz4eeed183Z0ILrr7/eeHMpiQACCCCAAAIIIIAAAggYFPjFL35hKJPoFVq4cKHBWvxdTE5ivOOOO/SQe152zTXX+NuX3iGAAAIIIIAAAggggICDAhs3buw5lhQo8etf/9rBlrukagmJccuWLQWEe1h80UUXHTp0yCUQNAMBBBBAAAEEEEAAAQR8KfCDH/ygh2RS4O2LL77YlyBCnZKQGMeMGVNAuNjiPn36vP7660JtpTACCCCAAAIIIIAAAgggYELg9ttvLxZOCr939913m6jOT6tYTYxLliwpzFvsnfXr1/vJkb4ggAACCCCAAAIIIICAmwW++tWvFssnhd8r8YdtWEqMTU1NhWGLvXPvvfe6eTLRNgQQQAABBBBAAAEEEPCZwP79+83drXPs2LE+oxDqjqXEOG7cuGK5sMB7M2bMEGoihRFAAAEEEEAAAQQQQAAB6wKvvvpq7969C8SUYosXL15svXaPbsF8Yly+fHkx1ALvXXjhhX/96189ikWzEUAAAQQQQAABBBBAwNMC69evL5BUelj80ksvebrjphtvMjG+8cYbPYjqvf1P//RPr732mum2siICCCCAAAIIIIAAAgggYFHgvvvu0wsrPSy79NJLLdbr0dVNJsbJkyf3IKr3dm1trUeZaDYCCCCAAAIIIIAAAgj4RsBcnHnwwQd9I2C8I2YS4y9/+Uu9PNjDsilTphhvFiURQAABBBBAAAEEEEAAAZsE3nnnnV69evUQYLq9feaZZ/7lL3+xqUmu3ayZxDh+/Phuej0sOOWUU9555x3XKtAwBBBAAAEEEEAAAQQQKCmBZDLZQ4bRe7sEH88onBg3bNigR9fDshUrVpTU/KOzCCCAAAIIIIAAAggg4HKBqqqqHmJMt7d79+79hz/8weX9kts84cR42WWXdXPrYcG//Mu/yG00W0MAAQQQQAABBBBAAAEELAq89dZbPSQZvbdvu+02i/V6a3WxxPjMM8/oofWw7PXXX/cWCq1FAAEEEEAAAQQQQACBUhB45JFHeggzem9v3769FHDa+yiWGMeOHasnVmzZ/fffXzqa9BQBBBBAAAEEEEAAAQS8JXDllVcWyzN6782ePdtbfbTSWoHEuG7dOj2uYssqKiqsNI51EUAAAQQQQAABBBBAAAFbBcw9ar50PkcpkBhHjRpVLB3qvVdXV2fr6LJxBBBAAAEEEEAAAQQQQMCiwL333quXZootu+aaayxW6pXVjSbGxx57rBiY3ntVVVVeUaCdCCCAAAIIIIAAAgggULICH374Yf/+/fUyTbFlDQ0NpSBmNDFeeOGFxbT03tuyZUspCNJHBBBAAAEEEEAAAQQQ8LrAv/7rv+plmmLLSuQyo6HEuHnz5mJUeu9dffXVXp80tB8BBBBAAAEEEEAAAQRKRODEiRNf+MIX9JJNsWW7d+/2vY+hxPitb32rmJPeey+//LLv7eggAggggAACCCCAAAII+EZg9erVesmm2LIHHnjAN90v1JGeE+Prr7/eq1evYk7d3ps5c2ah+liOAAIIIIAAAggggAACCLhT4IILLugWbootOOecc9zZEYmt6jkxmrhxUOncalbiSLApBBBAAAEEEEAAAQQQcFbAxAMFf/7znzvbZrtr7zkxXnTRRcVidbf3brzxRrsbzfYRQAABBBBAAAEEEEAAATsEvvSlL3WLOMUWzJgxw45muGebPSTGl19+uRiP3nsbNmxwT/doCQIIIIAAAggggAACCCBgXODOO+/USznFlr333nvGt++5kj0kxurq6mI23d6bMGGC5whoMAIIIIAAAggggAACCCDQITBkyJBuQafYgqVLl3as678XxRLjkSNHPvOZzxSz6fbeunXr/GdEjxBAAAEEEEAAAQQQQKB0BJYsWdIt6BRbMGLECB/jFEuMP/rRj4rBdHsvGAyeOHHCx1h0DQEEEEAAAQQQQAABBHwv8Pvf/75b1ulhwX/913/5laVYYoxEIj3AnPz2d7/7Xb8y0S8EEEAAAQQQQAABBBAoHYGpU6eenHV6+O0b3/iGX3EKJsaDBw/2oNLt7ddee82vTPQLAQQQQAABBBBAAAEESkfgP//zP7vFnWILzjrrLL/iFEyMokaXXXaZX43oFwIIIIAAAggggAACCJSawNChQ4tlxG7vvfTSS74kKpgYb7311m4IxRY89thjvgSiUwgggAACCCCAAAIIIFCCAjU1NcXyT7f3ampqfKlUMDGec8453RAKLjjttNMOHz7sSyA6hQACCCCAAAIIIIAAAiUo8L//+78F84/eG1/+8pd9qaSfGN955x09hILLrrvuOl/q0CkEEEAAAQQQQAABBBAoWYGJEycWjEB6b/zpT3/yn5V+Yly1apWeQMFlPIbRfzODHiGAAAIIIIAAAgggUOICDz30UMEIpPfGT37yE/+J6SfGq6++Wk+g4LI//OEP/qOhRwgggAACCCCAAAIIIFDKAtlstmAE0nvjxhtv9B+XfmLs16+fnoD+sjFjxvjPhR4hgAACCCCAAAIIIIAAAkOGDNFPQXpLzz77bP+J6STGLVu26HW/4LKFCxf6z4UeIYAAAggggAACCJgW0DQtl8tlP/lJf/KT+uQnWeCn/d10Op355CebzeZyOdO1syICEgVuvvnmgkFI741XX31VYu1u2JROYrz77rv1+l5w2QsvvOCGntAGBBBAAAEEEEAAAWUC7Zkwk8mkUqlkMhmPxyORSDgcDoVCwWCw4Imj+BuhUCgSiUSj0VgslkgkUqlUJpMhTyobaCr66U9/KjRtH3jgAZ+h6STGSCRiHOW00047ceKEz1DoDgIIIIAAAggggEBnAU3TstlsKpVKJBLtyVBuLDR+8tm5ZCgUikajHTGyc4N5jYAsgQMHDnSedT2+/upXvyqrapdsRycxDhgwoEeIjgL+E3HJwNAMBBBAAAEEEEDAQQFN0zKZTDKZdE8+7Dj/LPKiI0NmMhkH9ajaZwKXX355kVnX5a1hw4b5rPtdE+Of//znLn0u/uvKlSt9JkJ3EEAAAQQQQACB0hTIZrPJZDIWi4XD4eJngF55NxwOx2KxZDLJp1hLc0rL6vXSpUuF5vyHH34oq2o3bKdrYsxkMkIcv/vd79zQDdqAAAIIIIAAAgggYEKgIyW64VOmQmehooWDwWB7etQ0zQQUq5SywCuvvCI035qbm/3E1TUx1tbWCnG0tbX5iYO+IIAAAggggAACvhdo/8RpIpHwzbVEodPXQCAQiUTi8TifXPX9VJfVwb/85S9Cc+yJJ56QVbUbttM1Md52223GOc4//3w39IE2IIAAAggggAACCPQooGlaKpWKRCK+v5xo/Gw2EAhEo9FUKtWjHgVKXGDo0KHG59Vdd93lJ66uiXHChAnGLaZNm+YnC/qCAAIIIIAAAgj4T0DTtGQyGQ6HCYrFz3KJjv6b/BJ7dNVVVxWfP53fveqqqyRW7fimuibGQYMGde5t8deLFy92vAM0AAEEEEAAAQQQQKC7gKZp6XSaK4rFz2Z13yU6dp9OLLnrrrt0Z4vuwqFDh/pJ7KTEuG/fPt0+F1q4fv16P1nQFwQQQAABBBBAwAcCmUwmHo9zRbHQGazx5fF4PJvN+mBK0AXrAk888YTxmRMIBA4ePGi9Upds4aTE+D//8z9CEFu3bnVJN2gGAggggAACCCBQ4gKappXyzWyETmKFCofD4WQyWeKzi+43NzcLTZumpibfoJ2UGB977DEhiCNHjvgGgo4ggAACCCCAAAIeFeCiotAZrOnC8Xic5zp6dB+x3uwPP/xQaOasXbvWeqUu2cJJiXHx4sXGIc455xyX9IFmIIAAAggggAACJSjQ/pCMkn1ChvGzVrklI5EI91Ytwd0tn88PGzbM+FxasmSJb5ROSoxCj9aYOnWqbxToCAIIIIAAAggg4CGB9udkkBWNn75LLxkOh8mNHtplpDR1ypQpxifS/PnzpVTqho2clBi/9a1vGVe4+eab3dAB2oAAAggggAACCJSOQPuXFUOhkPFzNkraJ/Dx7YUSiUTpTL8S72ksFjM+l2bPnu0brpMS49e//nXjCrfffrtvFOgIAggggAACCCDgcoH2rMgdUI2frKosGY/HXT5/aJ51gfnz5xufVNOnT7deo0u2cFJinDBhgnGF++67zyV9oBkIIIAAAggggICPBciKxk9QnS3J9UYf74b5fH7JkiXGJ9jEiRN9o3FSYvzSl75kXOGRRx7xjQIdQQABBBBAAAEEXCjQ/n1FPoNq/ATV8ZLBYJDvN7pwV5LSpO9973vGJ9ill14qpVI3bOSkxHjeeecZV3j88cfd0AHagAACCCCAAAII+FIgk8lwbxvjp6auKsl9cXy5Swo9ifD888/3DcJJifHss882vrP99Kc/9Y0CHUEAAQQQQAABBNwjkM1mo9Go8bMyd5YMBoOhUCgcDkcikWg0GvvkJ17gp/3daDQa+eQnFAr54BubkUiE5ze6Z7ey3pJnnnnG+L42aNAg6zW6ZAsnJcZ+/foZV6ivr3dJH2gGAggggAACCCDgDwFN0+LxuIfCUjAYDIfD0Wg0Ho8nk8lMJpPNZnO5nKZpUkYkl8tlMpl0Op1KpRKJRCwWi0Qixs9X3VCSm+JImQlu2Eh9fb3xGVVWVuaGNktpw6eJ8W9/+5txgkAg8PLLL0tpARtBAAEEEEAAAQQQyOfz6XTa5V9ZbM+HsVisPRw6eAEtl8ul0+lkMhmPx92fIflyoz928JdfflkoLh0/ftwfHf80MR44cECI4I033vAHAb1AAAEEEEAAAQScFXDzx1DbLyEmk8lsNivryqEd2rlcLpVKxeNx1375MxwOO5ix7TAvtW2+8cYbQnHpwIED/iD6NDG2trYKETQ2NvqDgF4ggAACCCCAAAJOCbjzY6jhcDgej2cyGTdHxOJDlk6nE4mEC9MjT+AoPnBuflc0Lu3atcvN3THeNvOJsbW11Xg1lEQAAQQQQAABBBDoIpDNZt0TaYLBYDQaTaVS/rsOlk6nY7GYe74dGg6Hs9lsl8nAr+4X2LVrl9AFNhJjgMTo/mlNCxFAAAEEEEDAnQLuubQYCoXi8bjLP3EqaxDbLzy65MuiXGyUNazKtkNizIteZiUxKpudVIQAAggggAACfhJww7cWP77glkgkSvZKVyaTSSQSjkdHvtnorf2axEhi9NaMpbUIIIAAAggg4EmBVCrl4Mcjg8FgLBYrkSuKRuZHJpOJx+NCHzWUXjiVShlpKmUcFyAxkhgdn4Q0AAEEEEAAAQT8LKBpWiwWk543DG4wEokkk0nv3snG7pmRTqcdfEpHLBazu4Ns37oAiZHEaH0WsQUEEEAAAQQQQEBfIJvNOvIZyI6LivrNYunJAtls1qlLjtwO5+ShcONvJEYSoxvnJW1CAAEEEEAAAR8IJJNJ9Z9EDYVCXFQ0PXmSyaQjCT+ZTJpuMyvaLUBiJDHaPcfYPgIIIIAAAgiUnED7PVENfnBUVjE+gCprnqXTafW5MR6Py2o/25ErQGIkMcqdUWwNAQQQQAABBEpdQNO0aDQqKwca2U4kEslkMqXuLrv/6XRa8TiGw2G+cSp7GCVsj8RIYpQwjdgEAggggAACCCDQLqD4i4tkRbsnXiaTUZkbg8FgyT77xO6hNL19EiOJ0fTkYUUEEEAAAQQQQOAkgXQ6reyLi+FwOJ1On1Q9v9gmoPhzqoysbSNpZsMkRhKjmXnDOggggAACCCCAQBcBZfe5CQaD3NumC76aX1OplLLvN3IvHDVjaqQWEiOJ0cg8oQwCCCCAAAIIIFBMQM2zGciKxcZA1XvJZNLIl0utl0kkEqr6RD3FBEiMJMZi84P3EEAAAQQQQACB4gKapsViMevxoMctRCKRXC5XvDG8q0ZA5aCr6RG1FBEgMZIYi0wP3kIAAQQQQAABBIoJqLktKl9ZLDYGzr2n5i5HkUjEuS5S898FSIwkRvYEBBBAAAEEEEDAjICCuBgMBuPxOE9cMDM8qtZJJBI9Xh+2WCAcDqvqDfXoCJAYSYw604JFCCCAAAIIIIBAcQFN0wDtR/kAACAASURBVCKRiMUkUHz1cDjMgxaKj4JL3s1ms+FwuPhoWnyXRzU6ONYkRhKjg9OPqhFAAAEEEEDAkwKaptmaELjDjRenhd0XGwmNTs0KEiOJ0am5R70IIIAAAggg4EkBu+Mi31r05LT4pNF2f7OR0OjI3CAxkhgdmXhUigACCCCAAAKeFLA7LkajUb616MmZ0anRtt47l9DYSVrRSxIjiVHRVKMaBBBAAAEEEPC6gK3fXWz/JKrXiWh/u4Ctz2zkRjiKpxmJkcSoeMpRHQIIIIAAAgh4UsDWO6NykxtPzomijbb1djiExqL2kt8kMZIYJU8pNocAAggggAAC/hOwNS5GIhE+ieq/OdPeo2g0avEuqYVW5zmNyuYMiZHEqGyyURECCCCAAAIIeFXAvm+mJRIJ4qJXp4Wxdtt3D1VCo7ERsFqKxEhitDqHWB8BBBBAAAEE/C0Qj8cLXeexsjwYDKZSKX/T0bt2gUwmY2WqFFk3Ho+DbLcAiZHEaPccY/sIIIAAAggg4GEBm25hEgwG0+m0h11ouqBANpsNBoNFsp/pt/h/B8GhEC5OYiQxCk8aVkAAAQQQQACBEhFIpVJ2nOWHw+FcLlcihh3dPHLkyL59+95///19+/YdOXKkY3npvLDv0SyZTKZ0GNX3lMRIYlQ/66gRAQQQQAABBDwgYNNFIV/e56atrW379u319fWrV6++4447otFoZWXlF7/4xeHDhw8cOPCMM87o1atXl2tovXr1OuOMM84+++wRI0aMHj36K1/5SjQaveOOO1avXl1fX799+/a2tjYPzBLBJtr0gJZgMJjNZgXbQnGjAiRGEqPRuUI5BBBAAAEEECgdAZsuB0WjUX/c56alpWXdunXV1dXjx48PhUJd0qCsX0Oh0Pjx46urq9etW9fS0uKb6ReJRGQRdWwnFAr5Y2q5cJRJjCRGF05LmoQAAggggAACTgrY9CyNWCzm6XP6V155ZcWKFdOnTx80aFBHUFH5YtCgQTNmzHjkkUdeeeUVJ+eHjLrtuPsut06VMTI62yAxkhh1pgWLEEAAAQQQQKCUBex4HEI8HvdiXNy5c2cymYxEIn379lUZDnusq2/fvpFIJJlM7ty506Nz1Y7QyK1T7ZgMJEYSox3zim0igAACCCCAgFcFUqlUj3FFtIDn4uKOHTtWrFgxbtw40Z46Un7cuHErVqzYsWOH5+acHaGRe/BKnwYkRhKj9EnFBhFAAAEEEEDAqwK5XE76zVE9FBfffffdhx56qLKy0pHgZ73SysrKhx566N133/XQ/JMeGoPBYAneidfWEScxkhhtnWBsHAEEEEAAAQQ8I2DHfSy98t3F+vr6aDRqPbO5ZAvRaLS+vt4rM096aAyHw17puyfaSWIkMXpiotJIBBBAAAEEELBdQPrXF90fF0+cOLFmzZoxY8a4JOnJbcbYsWPXrFlz4sQJ26eO5Qqkx3W+0Gh5TD7dAImRxPjpbOAVAggggAACCJSsQCaTkft51HA47OZb3bS2ti5evLi8vFxuSHPh1srLyxcvXtza2uryuS39kRuZTMblXfZK80iMJEavzFXaiQACCCCAAAJ2CWiaJvehgm6Oi++99151dbULo53dTaqurn7vvffsmkOWtyv9EaDBYNDN/2dhGUzdBkiMJEZ1s42aEEAAAQQQQMCdAvF4XGJcce2tR9ra2mpqanr37i2xs97aVO/evWtqatra2tw5D6X/z0U0GnVnT73VKhIjidFbM5bWIoAAAggggIBkgXQ6LTH2BINBd34asLa2dvDgwRJ76t1NDR48uLa2VvI0krS5bDYrF5aHbVgfGRIjidH6LGILCCCAAAIIIOBVAU3T5H59MZVKuc3i+eef9+u9bayEqzFjxjz//PNuG6x8Pp/JZKz0q8u6fDbV+hCTGEmM1mcRW0AAAQQQQAABrwrI/Tyq225QuXPnzqlTp3aJEPzaWWDq1Kk7d+502/RNJpOdG2nxNZ9NtTi+JEYSo8UpxOoIIIAAAggg4FUBuZ9Hddt5+dq1a8vKyiyGjVJYvaysbO3atW6bxHKft+HOT0q7zbxQe0iMJMZCc4PlCCCAAAIIIOBnAbm3pgyFQu65L+XevXtnzZrlSNg788wzL7744hkzZixcuHD16tWpVOrZZ5+tq6traGh47bXX3n777XQ6/fbbb7/22msNDQ11dXXPPvtsKpVavXr1woULp0+ffvHFF5955pmOtHzWrFl79+51z4yXOz+DwaB7uua5lpAYSYyem7Q0GAEEEEAAAQQkCCQSCVnJxFV3u3nmmWcGDhwoq2s9bqeioiIejz/11FNNTU2yEtfevXubmpqeeuqpeDxeUVHRYxtkFRg4cOAzzzwjYW5J2kQul5PVtY+3k0gkJLWr5DZDYiQxltykp8MIIIAAAgggkMvlJN7wJplMuoH08OHDc+bMkZgxdDfVv3//yZMnL126dPPmzYcPH1bQ8cOHD2/ZsmXp0qWTJ0/u37+/bqskLpwzZ46afhmhk/vB6VwuZ6RSynQRIDGSGLtMCX5FAAEEEEAAAf8LxGIxWRnDJV9ffOutt8LhsKxOdd/OgAEDqqur6+vrHZ8c9fX11dXVAwYM6N5IWUvC4fBbb73leE/bGyDxC40umasugTXeDBIjidH4bKEkAggggAACCPhBQOJ1G5d8fbGurs6mi2+DBg269dZbN23a5MKB37Rp06233jpo0CBZQbHzdvr3719XV+eGXmuaFgqFOrfNymtugWNiTEmMJEYT04ZVEEAAAQQQQMDDApFIxMo5d+d13fB49Nra2s5NkvV6ypQpGzZs8MQwb9iwYcqUKbI63nk7tbW1bhCQ+ITGUCjkhh55qw0kRhKjt2YsrUUAAQQQQAABSwISLzC64emLixYt6pxwrL/u3bv33Llzt27daknZiZW3bt06d+7c3r17W0fovIVFixY50ZuudUp8cGgqleq6dX4vKkBiJDEWnSC8iQACCCCAAAI+EpD4xALHP4/60UcfzZw5s3O2sfh62LBhy5Yt27dvn6cHfN++fcuWLRs2bJhFjc6rz5w586OPPnKWReJnU3nShuhQkhhJjKJzhvIIIIAAAggg4FWBZDLZOQlYee3s51EPHDjw2c9+1kr7O69bVla2fPlyrw5qgXYvX768rKysczetvK6srDxw4ECBqhQtlvjZVC4zCo0ZiZHEKDRhKIwAAggggAACXhWQeJXG2XtOHjx4cNy4cVbyT+d158+f/8EHH3h1UIu2+4MPPpg/f37nzlp5PW7cuIMHDxat0PY3Zd03lcuMQkNFYiQxCk0YCiOAAAIIIICAVwUSiYSVwNCxbjAY1DTNKYVDhw5dccUVHY2x8mLmzJlvvvmmUx1RVu+bb74p6+O7V1xxxaFDh5S1vHtFmqbJeo6oSx4i2r2PLlxCYiQxunBa0iQEEEAAAQQQkCwg8QJjIpGQ3DjDmzty5Mj48eOtpMT2dc8991w3PFnRcL8lFKyvrz/33HOt040fP/7IkSMSGmR2E6lUynovAoEAlxmNjwCJkcRofLZQEgEEEEAAAQS8KiDrG4wO3vCmra3tyiuvtJ4W5s6de+zYMa8OpIV2Hzt2bO7cudYBr7zyyra2NgsNsbpqOBy23otAIMC3GQ2OBImRxGhwqlAMAQQQQAABBLwqIPECo1MPQD9+/PikSZMs5oTBgwc/99xzXh1FSe1+7rnnBg8ebFFy0qRJx48fl9Qi4c1ks1mL7W9fncuMBulJjCRGg1OFYggggAACCCDgVQFZz2B08IY306ZNsxgSbrjhhv3793t1CKW2e//+/TfccINFz2nTpkltlNjGZN0Ch8uMRtxJjCRGI/OEMggggAACCCDgYYFIJGIxHrSv7tQFxnvuucdi+1euXOnh8bOn6StXrrSoevfdd9vTtJ63qmmaxca3rx4KhXqurORLkBhJjCW/EwCAAAIIIICArwW8foHxySeftJIN+vXr5+yjI908udLpdL9+/azwPvnkk051MBaLWWl5x7rZbNapLnilXhIjidErc5V2IoAAAggggIAZASmf3wsGg46cWDc3N59yyikdJ/eiL0aNGrV161YzaiWzztatW0eNGiUK21H+lFNOaW5udkRL1mXGWCzmSPs9VCmJkcTooelKUxFAAAEEEEBATCCXy0l5fp0jZ9Wapl1wwQUd4UT0xeTJkw8cOCDmVZKlDxw4MHnyZFHejvIXXHCBU8/nlHWZMZfLleTIG+00iZHEaHSuUA4BBBBAAAEEPCeQSCQ6zuxNv3DqAqOVq6Nz5szx3GA52+A5c+aYniFO3RJJ1mXGZDLpLL7LaycxkhhdPkVpHgIIIIAAAgiYFwiFQqZjQMeKjuSBRYsWdTRA9MVNN91knqyE17z55ptFqTvKL1q0yBE5KZcZecxG8bEjMZIYi88Q3kUAAQQQQAABrwrIuueN+lukvvjiix1RRPSFIx+g9eoU6dZuKwHsxRdf7LY92xfIuszIYzaKDBWJkcRYZHrwFgIIIIAAAgh4WMDKpzo7cpojFxgrKio6GiD04vrrr/fwgLmj6aYf1VhRUeFID6yk3I7Z5cg8d4TLRKUkRhKjiWnDKggggAACCCDgdgFN06Tc80b9oymWLl3acR4v9OKb3/ym20fFI+2bNWuWkHxH4aVLl6rvYjab7WiAlRfc/6bQ2JEYSYyF5gbLEUAAAQQQQMDDAslk0srZc/u64XBYMcHWrVvNNXvKlCmKm+rv6qZMmWJuIBx5nImU7+ty/5tCU5rESGIsNDdYjgACCCCAAAIeFohEIubO+DuvlUgkFBNMnDixcwMMvh4xYsQHH3yguKn+rm7v3r0jRoww6N+52MSJE9XLpFKpzm0w9zoSiahvuSdqJDGSGD0xUWkkAggggAACCAgI5HI5cyfNndcKBoOKn7O3cuXKzg0w/vqll14S0KGoMYGXXnrJ+BB0Lrly5UpjNUgrJesz2HwwVXdISIwkRt2JwUIEEEAAAQQQ8LCAlI+kKr7p6J49e/r06dM5eBh8vXbtWg8PlbubvnbtWoOj0LlYnz599uzZo7hn8Xi8cxvMveaDqbqjRmIkMepODBYigAACCCCAgIcFpNwlVfFDNe68804TZ/kLFizw8Dh5oel33XWXiXG58847FXdOynV1PpiqO2okRhKj7sRgIQIIIIAAAgh4VUDKE+oU3/Nm9+7dJmLJpEmTvDpInmr3pEmTTIzO7t27FfdSyv1v+GBq91EjMZIYu88KliCAAAIIIICAhwXS6bSJ8/suqyi+5838+fO7NMDIr2+88YaHx8k7TX/jjTeMDEeXMvPnz1fcRSkfxuaDqd1HjcRIYuw+K1iCAAIIIIAAAh4WkPKR1Gw2q4zA3OcJly9frqyFVLR8+fIugdDIr4qv10m5uh6NRhnuLgIkRhJjlynBrwgggAACCCDgbQHrn81T/JHUefPmGYkfnctcdtll3h4kD7b+sssu6zwERl7PmzdPcUetT/5gMKi4ze6vjsRIYpQ2S1v5QQABBBDwvoC0owIbckggm80aOZUvXkblR1JbWlqKN0b33cbGRoeAS7faxsZG3bEovrClpUUlmZQPpiq+55NKH3N1kRhJjOZmzqdr1dTUVFVVlZeXF/97wbsIIIAAAp4QKC8vr6qqqqmp+fQPPa88JeC5M+bq6mrRXeOee+7x1Jj4p7H33HOP6GBVV1er7L+UD6byVcYuQ0ZiJDF2mRICvzY1NVVWVor+4aA8AggggIAnBCorK5ubmwWOChR1h4D1LzGq/EjqsWPHysrKhPaIAQMGtLW1uQO75FrR1tY2YMAAofEqKys7duyYSinrH0zlq4xdxovESGLsMiWM/trc3Cz094LCCCCAAAJeFGhqajJ6YKCcOwSCwaDFmRaPx5V15YknnhBt7cMPP6yseVTUXeDhhx8WHbInnnii+3bsWxKPx0Vb2KU8X2XsMjokRhJjlylh9FeuLnb548KvCCCAgC8FKisrjR4YKOcCASlfYkyn08q6MmHCBKEdZ/DgwSdOnFDWPCrqLnDixInBgwcLjdqECRO6b8e+JVKeLsNXGTsPEImRxNh5Phh9XVNTI/SXgsIIIIAAAt4V4DuNRo+OLign5UuMmqap6cq2bdtE9wu+YKZmaIrXYmKabdu2rfg25b5r/Uo7M63ziJAYSYyd54PR11VVVaJ/4imPAAIIIOBRgaqqKqOHB8o5LeCtLzGK3kZl6NChTgNT/z8Ehg4dKvQHTfHNiiKRiFDzuhfmq4yd5zqJkcTYeT4Yfc2dUbv/ZWEJAggg4FeB8vJyo4cHyjktYP2eHyq/xDhkyBChvWbVqlVOA1P/PwRWrVolNHZDhgxRaZdIJISa170wX2XsPF4kRhJj5/lg6HVra2v3/YolCCCAAAI+FmhtbTV0hKCQowK5XM76JFT2JcaNGzcKtfbUU089dOiQo8BU/qnAoUOHTj31VKER3Lhx46fr2/xKylcZc7mczc30zOZJjCRG4clKYhT6+0hhBBBAwAcCJEbhg6UTK3jrLPmWW24R2jVmz57tBCp1FhSYPXu20AjecsstBbcl+w0pT2VMpVKy2+XV7ZEYSYzCc5fEKPT3kcIIIICADwRIjMIHSydWMHE/ki6TU+WTGIcPH96l9uK/btmyxQlU6iwosGXLluJD1uXd4cOHF9yWDW+Ew+EuDRD9NZFI2NAuT26SxEhiFJ64JEbRvziURwABBLwuQGIUPlg6sYL1297EYjE1Dd++fbvQTjFy5Eg1DaMWIYGRI0cKjeP27duFtm+lsPWnMnLzmw5/EiOJsWMyGH1BYhT640hhBBBAwAcCJEajx0hHy1m/7Y2yj+HV1tYK7RfLli1zlJbK9QWWLVsmNI61tbX6G7JhqfUPaXPzm45hITGSGDsmg9EXJEahP44URgABBHwgQGI0eox0tJz1mabstjczZswQau2uXbscpaVyfQHRIHHNNdfob8iGpVK+yqjs2aQ2AMjcpOhA+2aHbWlpyefzgXyexCg8n0iMQgc5CiOAAAI+ECAxCh8sla+QzWatzzRlN4c866yzjLd27Nixyjmp0KjA2LFjjQ/lWWedZXS7lstJSYzZbNZyQ/ywARIjiVF4HpMYjf9lpCQCCCDgDwESo/DBUvkKmUzG4mQLhUJqWt3U1CTU1AULFqhpGLWYEFiwYIHQaDY1NZmoxdwq1m9+o+yqu7kOKluLxEhiFJ5soomxsbGxlR8EEEAAATcJNDY2Cp3kkRiFD5bKV7B+o9RIJKKm1Q8++KDQ9Kuvr1fTMGoxIVBfXy80mg8++KCJWsytEovFhNrWvXAymTRXtc/WIjGSGIWntGhi5DxDmJgVEEAAAZsF+EtuM7ADm08kEt3Pd4WWxONxNe2+7rrrjDesV69eR48eVdMwajEhcPTo0V69ehkf0Ouuu85ELeZWsX67VGV3DzbXQWVrkRhJjMKTjfMMYTJWQAABBFwmwF9ylw2IhOZYf7SGshulXnLJJcYDxsSJEyXosAk7BSZOnGh8QC+55BI723LStq3fLpUHbLSDkhhJjCftWkZ+4TzDiBJlEEAAATcL8JfczaNjrm2RSMT4WbtuSWVf2SorK9NtgO5Cnqthbj6oXEvoGRtlZWXK2mY9MSr7cq8yE3MVkRhJjMIzh/MMYTJWQAABBFwmwF9ylw2IhOZYfxijmttCip561tXVSdBhE3YK1NXV6ab9QguVPXrB+u1SeSRj+8QR3W2VDbGd8/rv2+bpGuaFOc8wb8eaCCCAgDsE+EvujnGQ2YpgMFjoBN3gcjWP1ti0aZPB9rQX27Fjh0wmtmWDwI4dO4TGdNOmTTa0QmeT1hNjIPD3R/HxQ2LkGqPwXsB5hjAZKyCAAAIuE+AvucsGxGpzPHRm/OijjxpPF3379rVKw/pKBPr27Wt8WB999FEljfp7Jdb/J0XTNGWtdW1FJEYSo/Dk5DxDmIwVEEAAAZcJ8JfcZQNitTm5XM74+bpuSWXf15o3b55uA3QXjh492ioN6ysRGD16tO4I6i6cN2+ekkb9vRLrj2RU82ltZSDmKiIxkhiFZw7nGcJkrIAAAgi4TIC/5C4bEKvNyWazuqfmxheGw2GrjTC2/oQJE4y36tprrzW2VUo5LHDttdcaH9YJEyYoa671O0JlMhllrXVtRSRGEqPw5OQ8Q5iMFRBAAAGXCfCX3GUDYrU5mUzG+Pm6bslIJGK1EcbWr6io0G2A7sIlS5YY2yqlHBZYsmSJ7gjqLqyoqFDWXOtPnVF2D2FlJiYqIjGSGIWnDecZwmSsgAACCLhMgL/kLhsQq82x/hQBZc+dGzlypG6K0F24Zs0aqzSsr0RgzZo1uiOou3DkyJFKGvX3SmKxmG4bjC9U9pxSZSYmKiIxkhiFpw3nGcJkrIAAAgi4TIC/5C4bEKvNSaVSxs+AdUvGYjGrjTC2/pAhQ3QboLtw/fr1xrZKKYcF1q9frzuCuguHDBmirLnxeFy3DcYXJpNJZa11bUUkRhKj8OQUPc9obGxs5QcBBBBAwE0CjY2Nxk+YAoFAa2ur8NGCFRQKeCgxfu5znzM+9zZs2KBQkarMC2zcuNH4sH7uc58zX5PgmiRGQTD94iRGEqP+zCiyVDQxGv8LQkkEEEAAAXcKkBiLHBbd8FYymbQ4c+LxuJqOnHrqqcabunnzZjWtohaLAlu2bDE+rKeeeqrF6oyvnkgkjDdMt2QikTBenV9LkhhJjMJzm8So+weFhQgggICPBUiMwgdLtSt4JTEeO3ZMaDd59dVX1UJSm0mBV199VWhkjx07ZrImwdVIjIJg+sVJjCRG/ZlRZCmJUehvIoURQAABHwiQGIscFt3wllcS4/79+4V2h23btrmBlzb0KLBt2zahkd2/f3+P25RSgMQohZHESGIUnkgkRqG/iRRGAAEEfCBAYhQ+WKpdwSuJsampSWh3YOKpnUfmaxM9OWxqajJfmciaJEYRrYJlSYwkxoKTo9Abon8UhI4NFEYAAQQQcKEAJ+6FjokuWe6VxMg1RpdMGOnN4BqjdFJXbZDESGIUnpAkRheezNEkBBBAwFYBEqPwwVLtCl5JjHyPUe28UFcb32NUZ+1ETSRGEqPwvCMx2npaxsYRQAABFwqQGIUPlmpX8EpizOfzQvdK3bJli1pIajMpsHnzZuN/uLhXqkll51YjMZIYhWcfidH430RKIoAAAv4QIDEKHyzVruDX5zFu3LhRLSS1mRTYsGGD8b91PI/RpLJzq5EYSYxmZl95ebnxvwuURAABBBDwtEB5ebmZQwXrKBRIp9MW51gsFlPT3iFDhhhv6vr169W0ilosCqxfv974sA4ZMsRidcZXj8fjxhumWzKVShmvzq8lSYwkRjNzu6qqSnenYiECCCCAgP8EqqqqzBwqWEehgPXEGI1G1bR35MiRxveRNWvWqGkVtVgUWLNmjfFhHTlypMXqjK8ei8WMN0y3JIkxn8+TGEmMxne6T0vW1NTo7lQsRAABBBDwn0BNTc2nBwBeuVLAemKMRCJqelZRUWF8H1myZImaVlGLRYElS5YYH9aKigqL1RlfPRqNGm+Ybsl0Om28Or+WJDGSGE3O7crKSt39ioUIIIAAAn4SqKysNHmcYDWFAtls1uKsC4fDato7YcIE40299tpr1bSKWiwKXHvttcaHdcKECRarM756JBIx3jDdkiRGrjEG8nkSo/Gd7qSSog/h1d0JWYgAAggg4HKB5ubmk/7684srBXK5nMWJFAwG1fRs3rx5xps6evRoNa2iFosCo0ePNj6s8+bNs1id8dVDoZDxhumWzGazxqvza0muMZIYzc/t5uZmrjTq/nFhIQIIIOADgcrKyqamJvMHCdZUKKBpmsUppywxPvroo8ab2rdvX4WKVGVeoG/fvsaH9dFHHzVfk+Ca1hNjLpcTrNOHxUmMJEar07qmpqaqqoq7pxr/Q0lJBBBAwM0C5eXlVVVVfHfR6tFR+frBYNDivNI0TUGrN23aJNTOHTt2KGgVVVgR2LFjh9CYbtq0yUp1QusKNUy3sFB1fi1MYiQxSpvbrfwggAACCHhfQNpRgQ2pFbCeGNV8+k701LOurk4tJLUJC9TV1elmrUILd+3aJVyHqRWsf1o7FAqZqtlvK4nutsqG2G7olpaWfD7P9xjtdmb7CCCAAAIIIKBCIBwOFzpBN7g8k8moaGg+X1ZWZrBJgUBg2bJlalpFLaYFli1bZnxAy8rKTFckumImkzHeMN2Syu4IJdo1xeVJjFxjVDzlqA4BBBBAAAEE5AtYf+5cMpmU3yy9LV5yySW6Z+e6CydOnKi3DZa5SGDixIm6Y6e78JJLLlHW9FQqpdsG4wuVPXVGmYm5ikiMJEZzM4e1EEAAAQQQQMBFAvF43Ph5sG7JRCKhpj/XXXedbgN0F/bq1evo0aNqGkYtJgSOHj3aq1cv3bHTXXjdddeZqMXcKslkUrcNxhfG43FzVftsLRIjidFnU5ruIIAAAgggUIoCiUTC+HmwbsloNKoG7sEHH9RtQKGF9fX1ahpGLSYE6uvrCw2c7vIHH3zQRC3mVolGo7ptML5Q2X+jmOugsrVIjCRGZZONihBAAAEEEEDALoF0Om38PFi3pLIHbIg+0nnBggV2qbFdywILFizQnU6FFqp8Zo/1R2uk02nLQn7YAImRxOiHeUwfEEAAAQQQKHEB649kDAQCah6wkc/nzzrrrEKJovvysWPHlvjgurn7Y8eO7T5khZacddZZKvti/QbCPIyxfbxIjCRGlXsudSGAAAIIIICAXQKFTtONL1fzgI18Pn/NNdcYb1UgEPDNzfrtGnuHtisaJGbMmKGspdlsVmiO6RYmMbaPl+hA+2aH5ekaynZYKkIAAQQQQAABFQLWP4On7HaptbW1uifohRbyjA0VE0i8DqHnagQCgdraWvFKTK5h/UapPFqjg57EyDXGjsnACwQQSsCqiQAAIABJREFUQAABBBDwsID1B2zEYjE1/d++fXuhcKi7fOTIkWoaRi1CAiNHjtQdr0ILt2/fLrR9K4Wt3z1Y2b2grHRTzbokRhKjmplGLQgggAACCCBgr4D126Uqu/lNPp8fPnx4oVyhu3zLli328rF1QYEtW7bojlShhcOHDxeswVJx6zdK5dEaHQNAYiQxdkwGXiCAAAIIIICAhwWs3y5V5c1vbrnllkLRQnf57NmzPTw2fmz67NmzdUeq0MJbbrlFJYP1295wo9SO8SIxkhg7JgMvEEAAAQQQQMDDAlJul5rJZNQQbNy4sVC00F1+6qmnHjp0SE3bqKVHgUOHDp166qm6I1Vo4caNG3vcrKwC3PZGlmT7dkiMJEa5M4qtIYAAAggggIBjAh66+U0+nx8yZEihdKG7fNWqVY7JUvHJAqtWrdIdo0ILhwwZcvIG7P0tmUwWaonB5So/oW2vhYytkxhJjDLmEdtAAAEEEEAAARcIWP/ulsq7fdxzzz0GT9/biw0dOtQFxjTh7wJDhw4VGrt77rlHJZy3dgSVMubqIjGSGM3NHNZCAAEEEEAAAdcJeOvmN9u2bRNKHYFAQNnzP1w3tG5qkIkreNu2bVPZA+sX2xOJhMoGu7wuEiOJ0eVTlOYhgAACCCCAgFEBKTe/UfZVxnw+P2HCBKHQOHjw4BMnThjloJwNAidOnBg8eLDQqE2YMMGGhhTcZCaTEWqebmFue9PZl8RIYuw8H3iNAAIIIIAAAh4WkHLzG2VPZczn80888YTu+XqRhQ8//LCHR8j7TX/44YeLjI7uW0888YTKflu/0q7ypsEqZUzXRWIkMZqePKyIAAIIIIAAAq4TiEQiumftxheqvOfHsWPHysrKjLctEAgMGDCgra3Nde6l0aC2trYBAwYIjVdZWdmxY8dU8ljfBcLhsMoGu78uEiOJ0f2zlBYigAACCCCAgFEBKRdYcrmc0fosl6uurhZKIIFAQPFtVCx30T8bEL1ZUSAQqK6uVtl/Kc/ViMfjKtvs/rpIjCRG989SWogAAggggAACRgWkfJVR5Q1mWlpaRBNjIBBobGw0KkI5SQKNjY0mRqqlpUVS/YY2Y+KuPN07xZcYu1iTGEmMXaYEvyKAAAIIIICAtwWCwWD3k2ChJaFQSCXBvHnzhJoXCAQuu+wylS2krnw+f9lll4kO07x58xTTWX+uRjAY1DRNcbNdXh2JkcTo8ilK8xBAAAEEEEBATCAWi4me2Xcvr/KDqblcrnsDelyyfPlyMRdKWxBYvnx5jyPSvYDKWZTP581NpC7NVvlIUgsDonRVEiOJUemEozIEEEAAAQQQsFsglUp1OQk28avKD6bm8/n58+ebaOQbb7xhNybbz+fzb7zxhonRmT9/vmI9KR9JTaVSipvt/upIjCRG989SWogAAggggAACAgJSnrGh8o6p+Xx+9+7dJjLJpEmTBFwoalZg0qRJJkZn9+7dZis0uZ71u6QGAgHF10VNdlXtaiRGEqPaGUdtCCCAAAIIIGC/QCgUMnGK32UVxafOd955Z5cGGPn1rrvusp+zpGtYsGCBkYHoUubOO+9UrCblLqk8V0N31EiMJEbdicFCBBBAAAEEEPCwgJSP58ViMZUEe/bs6dOnT5fgYeTXtWvXqmxnSdW1du1aI0PQpUyfPn327NmjGErKc2USiYTiZnuiOhIjidETE5VGIoAAAggggICAgBc/mJrP51euXNklexj89aWXXhLQoagxgZdfftmgf5diK1euNFaDtFKapnnxurq0/tu8IRIjidHmKcbmEUAAAQQQQMAJASkn0OrvAjJx4sQu8cPIryNGjPjggw+cYPZtnR988MGIESOM4HcpM3HiRPUoUh5DykdSCw0ciZHEWGhusBwBBBBAAAEEPCwg5Y6pih/MmM/nt27d2iWBGPx1ypQpHh4t9zV9ypQpBuW7FNu6dav63ki55w0fSS00cCRGEmOhucFyBBBAAAEEEPCwgJQPpgYCgWw2q1hh6dKlXUKIwV9nzZqluKl+re6b3/ymQfMuxZYuXareJJPJdGmGuV8V3+pJPZTpGkmMJEbTk4cVEUAAAQQQQMDVArFYzNypc+e1HHmgeUVFRec2GH99ww03uHpIvNC466+/3jh455IVFRWO9M+789wRLhOVkhhJjCamDasggAACCCCAgAcEpHy5y5En1L344oudo4jQa8W3ePXAPBBpopX09eKLL4pUJadsLpcLBoNCM0S3cDqdltMgP26FxEhi9OO8pk8IIIAAAggg8ImAlPvfOJLBFi1apHtmb2ThzTffzPibELjpppuM8OqWWbRokYkara8i5aEawWBQ0zTrjfHrFkiMJEa/zm36hQACCCCAAAL5eDyue34vutCRr3hFo1HRdnaUnzNnDsMvJDBnzpwOPdEXjnx0OZ/Pa5om5QIj97wpPlVIjCTG4jOEdxFAAAEEEEDAwwKy7n/jyGVGTdMuuOAC0fTSUX7y5MkHDhzw8OCpavqBAwcmT57c4Sb64oILLnDqAp2UC4yOfO5a1djKqYfESGKUM5PYCgIIIIAAAgi4U8DKN9M6hwdHLjM2NzefcsopnZsh9HrUqFGOPOzBnTNBt1Vbt24dNWqUkGrnwqecckpzc7Pulu1eKOsCo1MXSO32kbh9EiOJUeJ0YlMIIIAAAggg4DoBWc8ecOQyYz6ff/LJJztHFNHX/fr146YmhSZlOp3u16+fKGnn8k8++WShjdu9XNYFRqZHjyNFYiQx9jhJKIAAAggggAAC3haQcv8bBz+8d/fdd3dOKSZer1y50ttDaEPrV65caUKy8yr33HOPDe0ytElZt0gNh8OG6ivtQiRGEmNp7wH0HgEEEEAAgRIQSKVSnU/0Tb928PN706ZNM93s9hVvuOGG/fv3l8Bo99zF/fv333DDDRY9p02b1nNNtpWQ9VnrZDJpWxv9s2ESI4nRP7OZniCAAAIIIIBAIQFZlxmz2WyhKmxdfvz48UmTJlkMOYMHD37uuedsbaf7N/7cc88NHjzYouSkSZOOHz/uVGdlfdA6FAo5dc8ep+jM1UtiJDGamzmshQACCCCAAAJeEpB1mTEUCjnV7ba2tiuvvNJi1AkEAnPnzj127JhTvXCw3mPHjs2dO9c64JVXXtnW1uZgRyKRiPVefLwFHqphcBBJjCRGg1OFYggggAACCCDgYQFN02RdZkylUk5BHDlyZPz48dbTwrnnnltfX+9ULxypt76+/txzz7VON378+CNHjjjShfZKk8mk9V4EAoFgMMgFRoPj2NraKmS+a9cug1t2ebGWlpZ8Ph/I50mMLh8pmocAAggggAACcgRk3VvS2VPtQ4cOXXHFFULnr4UKz5w5880335SD6+KtvPnmmzNnziyEILT8iiuuOHTokIN9lfVEjY97zQVG4+NIYiQxGp8tlEQAAQQQQAABDwtIvMzo4C1w8vn8wYMHx40bJxR1ihSeP3/+Bx984OFxLdz0Dz74YP78+UX6LvTWuHHjDh48WLg2Fe/E43GhNhcq7Oz/eqiQkloHiZHEKHVCsTEEEEAAAQQQcLGArMuMgUAgk8k42NEDBw5UVlYWygOiy8vKypYvX+5gd+yoevny5WVlZaIUhcp/9rOfPXDggB3tNL5NWTe8+biPXGA0zm7iI5l8KjXQ2toqRExhBBBAAAEEEEDAJQISLzMGg0FnO/XRRx/J+rBle0waNmzYsmXL9u3b52y/LNa+b9++ZcuWDRs2rFD2M7F85syZH330kcWGWVxd07RwOGyi8d1X4RapomPBNUauMYrOGcojgAACCCCAgIcFZN00NRAIxGIxxyEWLVrUPRJYWdK7d++5c+du3brV8a6JNmDr1q1z587t3bu3le53X3fRokWiLbGjvMTL4zyDUXSASIwkRtE5Q3kEEEAAAQQQ8LaArJumOv7Z1PZhqK2t7Z5zrC+ZMmXKhg0bPDHSGzZsmDJlivUud99CbW2tGwQymUwwGOzePBNLuMBoYkBJjCRGE9OGVRBAAAEEEEDAwwISvw/m+GdT24ehrq6uf//+JvJDj6sMGjTo1ltv3bRpkwvHe9OmTbfeeuugQYN67IWJAv3796+rq3NDryV+HtUl/8fhBlWhNpAYSYxCE4bCCCCAAAIIIOAHgWg0aiJF6K7i7H1TOwbjrbfekvU9N91uDhgwoLq62g1Pcayvr6+urh4wYIBuO6UsDIfDb731Voetsy9k3R81EAi4ZK4662midhIjidHEtGEVBBBAAAEEEPC2QC6XkxIt2jeSTqfdwHH48OE5c+ZI7Jfupvr37z958uSlS5du2bLl8OHDCjp++PDhzZs3L126dPLkyTZdSu3c0zlz5qjplxE6iV+7DQaD2WzWSKWU6SJAYiQxdpkS5n9t5QcBBBBAwPsC5g8DrOk1AYmXblx1Lv7MM88MHDiwcwSy9XVFRUU8Hn/qqaeampr27t0rZRbs3bu3qanpqaeeisfjFRUVtra/88YHDhz4zDPPSOmClI3kcjlZX1/8uJs8UcP0oJAYSYymJ88/VqypqamqqiovL+/8F4fXCCCAAAIeFSgvL6+qqqqpqbF6eGB91wtIfNJGIBAIhULu6fHevXtnzZrlyD545plnXnzxxdOnT1+4cOHq1atTqdSzzz5bV1fX0NDw2muvvf322+l0+u23337ttdcaGhrq6uqeffbZVCq1evXqhQsXzpgx4+KLLz7zzDMdafmsWbNkJV4pM0HTtEgkIouCG95YGRQSI4nR/PxpamqS+PBcWX8R2A4CCCCAgBSBysrK5uZm8wcJ1vSCgMRb4AQCgUgk4qpOr127VuIj7KXsVu7cSFlZ2dq1a101dh8/NT4Wi0nkcskHp92GbLA9JEYSo8Gp0rVYc3OzxN2YTSGAAAIIuFOgqamp6wGA3/0lIPEWOIFAIJVKuYpn586dU6dOdefO5ZJWTZ06defOna4atXw+n0wmJfpwwxuL40tiJDGanEJcXZT4h4xNIYAAAq4VqKysNHmcYDWPCGiaJvGrYu58esHzzz8/ZswY1+5lTjVszJgxzz//vAvnqcSnLwYCgWAwqGmaC7vpoSaRGEmMZqZrTU2NU3/dqBcBBBBAQLEA32k0c6T01DrpdFripHLVXXA6j0Ntbe3gwYMl9tS7mxo8eHBtbW1nHPe8zmazcv8LI5lMuqd3Hm1JqSfGlpaWhoYGoR2+tbXVo4MtsdlVVVVCaBRGAAEEEPCuQFVVlcQjCJtyp4Dcz6a69qpOW1tbTU1N7969vbs/Wmx57969a2pq2tra3DkPNU2T+1BNPo8qZaBFE2NDQ0OLj34CH3+tVpSAxJjP57kzqsW/16yOAAIIeEigvLxcyjkHG3GzgPTPpobDYdf297333quurvbQPiirqdXV1e+9955rx0XTtBL5nwvXDkGhhonGpV27dhXalLeWt7S05PN5EqOZUROdNLL+zLEdBBBAAAGnBPjfUjPHS6+tI/e+qS68dWqXAWltbV28eHEp/Cd4eXn54sWLXb4XS4+LgUCA+6N2mfOmfxU9+ScxBly+v5meCsZXFJ00Tp3fUC8CCCCAgCwBjn3Gj5KeLhmPx2XNmfbtuO15G91H58SJE2vWrBk7dqzcjrtka2PGjFmzZs2JEye6d9xtS+Q+SyMQCMTjcbf10bvtET35JzGSGIU/x+uSP5o0AwEEEEDAtACJ0buneqItl/stskAg4JUvktXX18v9SKTp3U3KitFotL6+XnT0nSovPS6Gw2HujypxNEmMwvmHo6bopJHyh4+NIIAAAgg4KMCxT+K5l8s3lcvlpM80D13teffddx966CHvPkKssrLyoYceevfdd10+zTo3L5FIyJ1yrr1bb+dee+u16Mk/1xi5xiicseX+FWBrCCCAAALqBUiM3jq9s9hauQ/baJ+uHgqN7Xo7duxYsWLFuHHj1O9uJmocN27cihUrduzYYXHo1a8uPS4GAoFUKqW+I/6ukcQonH84aopOGhN/+FgFAQQQQMBVAhz7/H062L130j8l6N3vle3cuTOZTEYikb59+7pqr+zbt28kEkkmkzt37uw+gp5YYkdc9Nz/TXhipERP/rnGyDVG4Yztqj+vNAYBBBBAwIQAidETZ3VyGxmJRExMleKrxGIxuY1UvLVXXnnlkUcemTFjxqBBg4r31KZ3Bw0aNH369BUrVrzyyiuK+y63Ok3T7PhfCb6+KHeYOrZGYhTOPxw1RSeNTX802SwCCCCAgDIBjn0dZ06l80LTtFAoJH2Ouf/uqQaHuKWlZd26ddXV1ePHj7cDql0+FAqNHz++urp63bp17Y+GM9g8NxezKS6GQqFcLufmjnu3baIn/1xj5BqjcMZubGxs5QcBBBBAwE0CjY2NQkmAxOjdUz0rLc9ms0LzxGBh34TGzrZtbW3bt2+vr69fvXr1HXfcEY1Gv/KVr4wePXrEiBFnn332GWec0atXry4+vXr1OuOMMwYOHDh8+PAvfvGLlZWV0Wj0jjvuWL16dX19/fbt29va2jpX4Y/Xdjx3MRAIBIPBTCbjDyIX9oLEKJx/OGqKThrEXLjn0yQEEChxAf6Sl/gEMN79TCbTJedI+bU0Pz145MiRffv2vf/++/v27Tty5IjxUfBNSZviIne7sXuGiB4yuMbINUYytt17JdtHAAEEbBcQPfzzf3+2D4mLK0gmk1JSYpeN8AgEF4+5LU3LZrM2fXyXu93YMmCdNip6yCAxkhhJjJ12IF4igAAC3hQQPfyTGL05ztJabcdNSvgkobTh8cKGMplMMBjs8r8GUn4lLioYf9FDBomRxEhiVLBjUgUCCCBgr4Do4Z/EaO94eGHrdtw6tT0wJJNJLwDQRvMCyWTSprgYi8U0TTPfMtY0JiB6yCAxkhhJjMb2LUohgAACLhYQPfyTGF08mOqaZl9ojEaj6rpBTQoFbLotavv/NZTmt2EVjt6nVYkeMkiMJEYS46f7D68QQAABjwqIHv5JjB4daLnN1jQtHA5L+SRh942Ew2EejSB3vBzfWjabte9/GYiLKsdX9JBBYiQxkhhV7qHUhQACCNgiIHr4JzHaMgwe3KitoZE7XnpwRhRssn1fXAwEAsTFgu72vCF6yCAxkhhJjPbsi2wVAQQQUCggevgnMSocHLdXZXdo5EYmbp8BPbVP07R4PN79MrKsJVyO7mkE5L8vesggMZIYSYzy90O2iAACCCgWED38kxgVD5DLq7M7NIbD4Ww263IEmqcrkM1m7fvocvvVRT69rCtv60LRQwaJkcRIYrR1l2TjCCCAgAoB0cM/iVHFqHiqDrtD48fXoxKJhKdISr2xmqbZd0/U9uuTXF10apKJHjJIjCRGEqNTeyv1IoAAAtIERA//JEZp9D7akILQSELwynzJZrPRaFTW5051t8NkcHAyiB4ySIwkRuHE2NjY2MoPAggggICbBBobG3XPyQotJDE6eK7m5qoVhMZAIMA3G10+B+LxuE2PW+z4i8StbpydA6KJ0TeHjJaWlnw+H8jnhfOPbwhMzzzRSdOxt/MCAQQQQMCjAhz7TB80fb+imtDINxvdOZEymYyt31ps/4NJXHR89EVP/n1zyCAxmp97opPGo6dHNBsBBBBAoEPAN4d/8wc/1iwqYN9j9zomYSAQiMVi3PWk6Dioe7P9hqh2X1oMBAKRSETTNHUdoyY9AdGTf98cMkiMetPB2DLRSdP5bz2vEUAAAQS8KOCbw7+xAx2lzAjEYjE1c5s74pgZHnnraPbf4aZjIsXjceKivKEzvyXRk3/fHDJIjOomTcduzwsEEEAAAY8K+Obwb/7gx5oGBBKJhJoZHg6HU6mUgRZRRLKAmo+hts8i/mtA8uBZ2ByJke8xCk8f0Umj5uBBLQgggAAC9gmQGIUPlqW6Qjqdtm8edtlyOBxOp9OlKq263yqzYjAY5H8EVA9w0fpET/59c8jgGmPReVH0TdFJ0+XvO78igAACCHhOwDeH/6LHN96UI5DNZhV8va1jJ4pEIny5Uc7IFdhKJpOx+8kZHaMZCASCwSD/EVBgKBxbLHry75tDBonR/JwTnTSd/wrwGgEEEEDAiwK+OfybP/ixpoiAmhuodt6VotFoJpMRaSNlexZQnBUDgQAPXex5VJwoIXry75tDBonR/HQTnTSd/6DzGgEEEEDAiwK+OfybP/ixpriAsnvhdOxTkUiETzOKD5TOGplMRs39bzvGLhAIRKNR7nOjMxguWCR68u+bQwaJ0dLsKy8v77yH8xoBBBBAwMcC5eXllo4ZrFzCAslkUv2uwX1xTM84TdNUfl+xY24Eg8FkMmm62axotwCJkTvfmJljVVVVHTs5LxBAAAEE/C1QVVVl5lDBOgh8IpDNZkOhkCP7SDwe5yuOBqehpmmJRMKRkeKLiwbHyMFiJEYSo5npV1NT48iffipFAAEEEFAvUFNTY+ZQwToI/J+Apmkqb53SZR+JRqN8VPX/hqLrv+0XFaPRqMqbFXUeoEgkwidRu46K+34nMZIYTc7KysrKzjs8rxFAAAEEfClQWVlp8jjBagicLODIJ1Q775XxeDybzZ7cqNL9LZPJOHVRsX1Q+CSqhyYfiZHEaHK6NjU1df4rzGsEEEAAAV8KNDc3mzxOsBoC3QSy2Ww4HHZ2T/m4AYlEomQ/rZrL5RKJhBtGgfTebf9w7wISI4nR/Oxsbm7mSqOzhz1qRwABBOwTqKysbGpqMn+QYE0ECgjE43H75q3xLUcikdK56pjNZt0QFNsftxiPx/kkaoGdw6WLSYwkRqtTs6ampqqqirunGj9EURIBBBBws0B5eXlVVRXfXbR6dGT9ogIO3g6n+94XDAbj8bj/nhrf/h1FlwTFdvZwOOw/56Iz3SdvkhhJjNKmcis/CCCAAALeF5B2VGBDCPQkkEgkuuc3Z5d8fIeeRCKRyWR6artL3++cEp26mY3uCLZ/a5FLiy6dNz01i8RIYuxpjvA+AggggAACCCBgj4Abvtmom3DaHyjffu3R5V961DQtnU63X0t0VUrsgI1EInxr0Z4dSNFWSYwkRkVTjWoQQAABBBBAAAFdAcdvo9qRbYq8iEaj8Xg8lUo5ewVS07RsNtseESORiDsjYgcjlxZ1J7znFpIYSYyem7Q0GAEEEEAAAQT8JqBpWiwW60ga7n8RCoWi0ejHbU4kEu0xUu6lSE3TcrlcezhMJpPxeDwSiYRCIffLdLQwFovJNfHbpPdOf0iMJEbvzFZaigACCCCAAAK+FnDzh1Q7glCPL0KhUDgcjn7yE4vF4p/8fPylTd2f9ndjsVg0Go1EIuFwOBQKufzKYY8CfAzVZ7spiZHE6LMpTXcQQAABBBBAwNsCqVTKWxfTekxQpVMgFAolk0lvzz9a302AxEhi7DYpWIAAAggggAACCDgt4IkvN5ZOFOyxp3xl0ek9xsb6SYwkRhunF5tGAAEEEEAAAQSsCJAbe4xqjhcgK1qZ4Z5Yl8RIYvTERKWRCCCAAAIIIFC6AuRGx2OhbgM+/r5lIpHgKYu+3zNJjCRG309yOogAAggggAACfhAgN+rGNkcWkhX9sEcZ7gOJkcRoeLJQEAEEEEAAAQQQcFogmUxyXxxHUmJ7pXwG1ek9wIH6SYwkRgemHVUigAACCCCAAAJWBMiN6kNjJBJJJpN8BtXKvPXouiRGEqNHpy7NRgABBBBAAIFSF8hkMrFYTH12Kqkag8Egz1cs8T2NxEhiLPFdgO4jgAACCCCAgLcFNE3jkqMdIfbjT/8mEolcLuft+UHrLQuQGEmMlicRG0AAAQQQQAABBFwgkE6nueRoPTp2XFTkA6gumNSuaAKJkcToiolIIxBAAAEEEEAAAVkCyWQyEolYz04ltYX2oMg3FWVNQj9th8RIYvTTfKYvCCCAAAIIIIDAPwTaP61KdOwx97bf0oZPn7LnFBIgMZIYC80NliOAAAIIIIAAAn4QIDp2D40dVxQJin6Y4jb3gcRIYrR5irF5BBBAAAEEEEDANQLt33X8+AH03UNUKSwJBoOxWCydTvMdRddMSQ80hMRIYvTANKWJCCCAAAIIIICAXIFMJlMiX3dsv5yYSCSy2axcQ7ZWIgIkRhJjiUx1uokAAggggAACCOgLpNPpZDIZjUZ9c+0xGAxGo9H2lMjlRP1RZ6lhARIjidHwZKEgAggggAACCCDgd4FcLpdOpxOJRCQS8VCA7LiQmMlk+Gqi3yep6v6RGEmMqucc9SGAAAIIIIAAAl4R0DSt/QpkPB53T4Zsz4fxeDyZTGYyGa4iemU6ebSdJEYSo0enLs1GAAEEEEAAAQScEei4DplIJGKxWCQSCYVC0m+cEwwGw5/8RKPRjnCYzWbJh86MegnXSmIkMZbw9KfrCCCAAAIIIICAVIFcLpfNZjOZTDqdTn3yk0wmE4V/kp/8tJfMfPKTzWZzuRyxUOqwsDFLAiRGEqOlCcTKCCCAAAIIIIAAAggg4GMBEiOJ0cfTm64hgAACCCCAAAIIIICAJQESI4nR0gRiZQQQQAABBBBAAAEEEPCxAImRxOjj6U3XEEAAAQQQQAABBBBAwJIAiZHEaGkCsTICCCCAAAIIIIAAAgj4WIDESGL08fSmawgggAACCCCAAAIIIGBJgMRIYrQ0gVgZAQQQQAABBBBAAAEEfCxAYiQx+nh60zUEEEAAAQQQQAABBBCwJEBiJDFamkCsjAACCCCAAAIIIIAAAj4WIDGSGH08vekaAggggAACCCCAAAIIWBIgMZIYLU0gVkYAAQQQQAABBBBAAAEfC5AYSYw+nt50DQEEEEAAAQQQQAABBCwJkBhJjJYmECsjgAACCCCAAAIIIICAjwVIjCRGH09vuoYAAggggAACCCCAAAKWBEiMJEZLE4iVEUAAAQQQQAABBBBAwMcCJEYSo4+nN11DAAEEEEAAAQQQQAABSwIkRhKjpQnEyggggAAJ7Mv1AAAdHUlEQVQCCCCAAAIIIOBjARIjidHH05uuIYAAAggggAACCCCAgCUBEiOJ0dIEYmUEEEAAAQQQQAABBBDwsQCJkcTo4+lN1xBAAAEEEEAAAQQQQMCSAImRxGhpArEyAggggAACCCCAAAII+FiAxEhi9PH0pmsIIIAAAggggAACCCBgSYDESGK0NIFYGQEEEEAAAQQQQAABBHwsQGIkMfp4etM1BBBAAAEEEEAAAQQQsCRAYiQxWppArIwAAggggAACCCCAAAI+FiAxkhh9PL3pGgIIIIAAAggggAACCFgSIDGSGC1NIFZGAAEEEEAAAQQQQAABHwuQGEmMPp7edA0BBBBAAAEEEEAAAQQsCZAYSYyWJhArI4AAAggggAACCCCAgI8FSIwkRh9Pb7qGAAIIIIAAAggggAAClgRIjCRGSxOIlRFAAAEEEEAAAQQQQMDHAiRGEqOPpzddQwABBBBAAAEEEEAAAUsCJEYSo6UJxMoIIIAAAggggAACCCDgYwESI4nRx9ObriGAAAIIIIAAAggggIAlARIjidHSBGJlBBBAAAEEEEAAAQQQ8LEAiZHE6OPpTdcQQAABBBBAAAEEEEDAkgCJkcRoaQKxMgIIIIAAAggggAACCPhYgMRIYvTx9KZrCCCAAAIIIIAAAgggYEmAxEhitDSBWBkBBBBAAAEEEEAAAQR8LEBiJDH6eHrTNQQQQAABBBBAAAEEELAkQGIkMVqaQKyMAAIIIIAAAggggAACPhYgMZIYfTy96RoCCCCAAAIIIIAAAghYEiAxkhgtTSBWRgABBBBAAAEEEEAAAR8LkBhJjD6e3nQNAQQQQAABBBBAAAEELAmQGEmMliYQKyOAAAIIIIAAAggggICPBUiMJEYfT2+6hgACCCCAAAIIIIAAApYESIwkRksTiJURQAABBBBAAAEEEEDAxwIkRhKjj6c3XUMAAQQQQAABBBBAAAFLAiRGEqOlCcTKCCCAAAIIIIAAAggg4GMBEiOJ0cfTm64hgAACCCCAAAIIIICAJQESI4nR0gRiZQQQQAABBBBAAAEEEPCxAImRxOjj6U3XEEAAAQQQQAABBBBAwJIAiZHEaGkCsTICCCCAAAIIIIAAAgj4WIDESGL08fSmawgggAACCCCAAAIIIGBJgMRIYrQ0gVgZAQQQQAABBBBAAAEEfCxAYiQx+nh60zUEEEAAAQQQQAABBBCwJEBiJDFamkCsjAACCCCAAAIIIIAAAj4WIDGSGH08vekaAggggAACCCCAAAIIWBIgMZIYLU0gVkYAAQQQQAABBBBAAAEfC5AYSYw+nt50DQEEEEAAAQQQQAABBCwJkBhJjJYmECsjgAACCCCAAAIIIICAjwVIjCRGH09vuoYAAggggAACCCCAAAKWBEiMJEZLE4iVEUAAAQQQQAABBBBAwMcCJEYSo4+nN11DAAEEEEAAAQQQQAABSwIkRhKjpQnEyggggAACCCCAAAIIIOBjARIjidHH05uuIYAAAggggAACCCCAgCUBEiOJ0dIEYmUEEEAAAQQQQAABBBDwsQCJkcTo4+lN1xBAAAEEEEAAAQQQQMCSAImRxGhpArEyAggggAACCCCAAAII+FiAxEhi9PH0pmsIIIAAAggggAACCCBgSYDEKJwYGxsbW/lBAAEEEEAAAQQQQAABBEpAoLGxMSDy09raaimhumbllpaWfD4fyOeFE6MIF2URQAABBBBAAAEEEEAAgRISIDGW0GDTVQQQQAABBBBAAAEEEEBASIDEKMRFYQQQQAABBBBAAAEEEECghARIjCU02HQVAQQQQAABBBBAAAEEEBASIDEKcVEYAQQQQAABBBBAAAEEECghARJjCQ02XUUAAQQQQAABBBBAAAEEhARIjEJcFEYAAQQQQAABBBBAAAEESkiAxFhCg01XEUAAAQQQQAABBBBAAAEhAR8mxnw+X15eLqRAYQQQQAABBBBAAAEEEEAAgS4C5eXleb/8tLS05PP5QHt3qqqqunSVXxFAAAEEEEAAAQQQQAABBIQEqqqq/BIY8yclxpqaGiEICiOAAAIIIIAAAggggAACCHQRqKmp8WdizOfzlZWVXXrLrwgggAACCCCAAAIIIIAAAgYFKisrfRMX8/mTrzHm8/mmpiaDEBRDAAEEEEAAAQQQQAABBBDoItDc3OznxJjP55ubm7nS2GXU+RUBBBBAAAEEEEAAAQQQKC5QWVnZ1NTkp7ioc42xo3s1NTVVVVXcPbX4nOBdBBBAAAEEEEAAAQQQKHGB8vLyqqoqP313sSMVFkuMHYUaGhpa+UEAAecE2Aeds6dmBP4uwD7IPEDAWQH2QWf9qd2IQEd08uWLk+6VqtvD9hK6b7EQAQQUCLAPKkCmCgSKCLAPFsHhLQQUCLAPKkCmCgSKCLTvg/94HqNuOfZSXRYWIqBMgH1QGTUVIaArwD6oy8JCBJQJsA8qo6YiBHQF2vdBEqMuDgsRcIUAR0pXDAONKGEB9sESHny67goB9kFXDAONKGEBEmMJDz5d94gAR8r/397dg1h1bQEAvkxMmiCkSSyE4A8SVAaEJDCQRpCkCYJNgmATGJJGkDQpxEaQVDITmwSGNCkGG0FSCTKIU0gaC60EX5ohGJsUE4wYUMh55CW+ccY795597/nZP5+NM/eec/Za39qLfdbLey+JFEqY2QrowWxLK7FEBPRgIoUSZrYCJsZsSyuxbASclNmUUiKJCujBRAsn7GwE9GA2pZRIogImxkQLJ+yCBJyUBRVbqlEK6MEoyyKoggT0YEHFlmqUAibGKMsiKAIvCDgpX8DwI4EeBPRgD+iWJPCCgB58AcOPBHoQyH9irPNvUHENgZgF/HuoYq6O2EoQ0IMlVFmOMQvowZir02BsPUxClqwnkOfEuL6+vrCwMDs7+8orrwz8IUCAAAECBAgQIEAgboGZmZnZ2dmFhYX19fV6g4yrOhLIcGK8cePG/v374+4I0REgQIAAAQIECBAgMERg//79KysrHQ1DlqkhkNvEePPmzSH7zkcECBAgQIAAAQIECKQjcPPmzRqzjEu6EMhqYvzjjz/27t2bTiOIlAABAgQIECBAgACBIQJ79ux5/PhxF/OQNcYJZDUxLi4uDtluPiJAgAABAgQIECBAIDWBhYWFcbOM77sQyGpiPHjwYGqNIF4CBAgQIECAAAECBIYIHDp0qIt5yBrjBLKaGP0/ow5pNR8RIECAAAECBAgQSFBgZmbmr7/+GjfO+L51gXwmxl9++SXBRhAyAQIECBAgQIAAAQLDBX799dfW5yELjBPIZ2KsqmpmZmb4XvMpAQIECBAgQIAAAQKpCfhnjOOmuS6+z2piPHLkSGpdIF4CBAgQIECAAAECBIYIvPvuu13MQ9YYJ5DVxLiwsDBkr/mIAAECBAgQIECAAIHUBC5evDhulvF9FwJZTYy///77G2+8kVoviJcAAQIECBAgQIAAgU0CO3fuXF9f72IessY4gawmxqqqLl68uGmv+YUAAQIECBAgQIAAgdQELly4MG6Q8X1HArlNjFVVHThwILWOEC8BAgQIECBAgAABAv8K7Nq16+nTpx3NQ5YZJ5DhxPjDDz/oNgIECBAgQIAAAQIEEhVYXFwcN8X4vjuBDCfGqqo++OCD0PaYn59f84cAAQIECBAgQIAAgeYElpaWQl/L9+3b190wZKUaAnlOjNeuXQvdmoPB4N69ezXEXEKAAAECBAgQIECAQC2Bubm50NfypaWlWo92UVcCeU6MVVWdOHEidHeeOnWqK3brECBAgAABAgQIEMhcYHl5OfSFfHZ2NnOUBNPLdmK8fft26AYdDAarq6sJFlHIBAgQIECAAAECBKITmJ2dDX0hX15eji6N4gPKdmKsqurzzz8P3aMfffRR8VsCAAECBAgQIECAAIFpBSb4XzDOzc1Nu6r7WxDIeWJcW1sLnRgHg8GVK1dacPZIAgQIECBAgAABAgUJ7Nu3L/RV/OrVqwUBpZNqzhNjVVXnzp0L3alHjhxJp3wiJUCAAAECBAgQIBCdwOLiYuhL+LFjx6JLQ0D/E8h8Ynzy5Mmbb74Zul+/++4724MAAQIECBAgQIAAgQkEnj59umvXrtA38OvXr0+wlls6EMh8Yqyq6tKlS6H7dffu3c+ePetA3xIECBAgQIAAAQIEMhO4cOFC6Ov38ePHM0PIKZ38J8aqqg4fPhy6a8+fP59TmeVCgAABAgQIECBAoAOB9fX1nTt3hr5737p1q4PYLDGZQBET4+XLl0N37Wuvvfbw4cPJTN1FgAABAgQIECBAoEyBs2fPhr54nzx5skyrVLIuYmKsquro0aOhe/f06dOpVFGcBAgQIECAAAECBHoXePDgwczMTOhb9507d3qPXAAjBEqZGFdWVkL37mAwuHv37gg7XxEgQIAAAQIECBAg8H+BM2fOhL5yz8/P//92P8QpUMrEWFXVJ598ErqDP/300zjLJioCBAgQIECAAAECUQncv38/9GV7MBjcv38/qiwE87JAQRPj3bt3J9jEKysrL6v5hAABAgQIECBAgACBFwXm5+dDX7bPnDnz4hP8HKdAQRNjVVWnT58O3cdHjx6Ns3KiIkCAAAECBAgQIBCJwJ07d0Jfs2dmZh48eBBJ/MIYIVDWxPjw4cNXX301dDdfvnx5hKCvCBAgQIAAAQIECBQucPLkydB37LNnzxaOlkr6ZU2MVVWdP38+dDcfPnw4lXKKkwABAgQIECBAgEDHArdu3Qp9wd65c+f6+nrHcVpuMoHiJsZnz57t3r07dE9funRpMl93ESBAgAABAgQIEMhb4Pjx46Fv1xcuXMjbJKfsipsYq6r69ttvQ/f0W2+99eTJk5wKLxcCBAgQIECAAAEC0wtcv3499NV6165dT58+nX5pT+hGoMSJsaqqI0eOhO7sc+fOdVMSqxAgQIAAAQIECBBIReDYsWOh79WLi4upZCfOqqoKnRivXLkSurMHg8Ha2ppNQ4AAAQIECBAgQIDAPwJXr14Nfanet28fvbQECp0Yq6r68MMPQ/f3F198kVZ1RUuAAAECBAgQIECgPYG5ubnQN+qlpaX24vHkNgTKnRhXV1dD9/dgMLh9+3YbZfBMAgQIECBAgAABAmkJLC8vh75Oz87OppWjaMv9b6X+U/tTp06F7vITJ07YNwQIECBAgAABAgQIzM7Ohr5LLy8vc0tOoNx/xlhV1b1790J3+WAwuHbtWnJlFjABAgQIECBAgACBBgWWlpZCX6Tn5uYaDMCjOhMoemKsqurLL78M3evvvffemj8ECBAgQIAAAQIEChZ4++23Q9+ir1692tmQY6EGBUqfGH/77bfXX389dLu7ngABAgQIECBAgACB+gLHjh1rcIbxqC4FSp8Yq6r6+uuv6+91VxIgQIAAAQIECBAgECpw/fr1LoccazUoYGL8G3PPnj2hm971BAgQIECAAAECBAjUETh+/HiDA4xHdSxgYvwb/Pvvv6+z111DgAABAgQIECBAgECowK1btzoecizXoICJ8V/M999/P3Tru54AAQIECBAgQIAAgdECJ0+ebHB68ajuBUyM/5r/+OOPo/e6bwkQIECAAAECBAgQCBW4c+dO90OOFRsUMDFuYH788cehDeB6AgQIECBAgAABAgS2E5ifn9942/ZTmgImxo26/fTTT9vtdZ8TIECAAAECBAgQIBAqcP/+/Y23bT+lKWBi3FS3zz77LLQNXE+AAAECBAgQIECAwMsCZ86c2fSq7Zc0BUyMm+r2888/v7zXfUKAAAECBAgQIECAQJDAzMzMgwcPNr1q+yVNARPj1rp99dVXQc3gYgIECBAgQIAAAQIEtgicPXt263u239MUMDFurdujR48OHDiwZcf7lQABAgQIECBAgACBmgLvvPPOn3/+ufU92+9pCpgYh9Ttxo0bNZvBZQQIECBAgAABAgQIbBFYWVkZ8pLtozQFTIzD63bz5s29e/du2fp+JUCAAAECBAgQIEBghMCePXtWV1eHv2H7NE0BE+O2dXv06NHi4uKhQ4d27Ngxoit8RYAAAQIECBAgQKBwgR07dhw8ePCbb755/Pjxtq/XvkhTwMRYq25r/hDoT2B1dbW/xa1MgMCaHrQJCPQroAf79a+5eq1XahelKWBiTLNuoi5J4J8uLSljuRKIS0APxlUP0ZQnoAfLq7mM4xIwMcZVD9EQeFnASfmyiU8IdCmgB7vUthaBlwX04MsmPiHQpYCJsUttaxGYRMBJOYmaewg0J6AHm7P0JAKTCOjBSdTcQ6A5ARNjc5aeRKAdASdlO66eSqCugB6sK+U6Au0I6MF2XD2VQF0BE2NdKdcR6EvASdmXvHUJ/COgB+0EAv0K6MF+/a1OwMRoDxCIXcBJGXuFxJe7gB7MvcLyi11AD8ZeIfHlLmBizL3C8ktfwEmZfg1lkLaAHky7fqJPX0APpl9DGaQtYGJMu36iL0HASVlCleUYs4AejLk6YitBQA+WUGU5xixgYoy5OmIj8LeAk9I+INCvgB7s19/qBPSgPUCgXwETY7/+VicwXsBJOd7IFQTaFNCDbep6NoHxAnpwvJErCLQpYGJsU9ezCTQh4KRsQtEzCEwuoAcnt3MngSYE9GATip5BYHIBE+Pkdu4k0I2Ak7IbZ6sQ2E5AD24n43MC3QjowW6crUJgOwET43YyPicQi4CTMpZKiKNUAT1YauXlHYuAHoylEuIoVcDEWGrl5Z2OgJMynVqJNE8BPZhnXWWVjoAeTKdWIs1TwMSYZ11llZOAkzKnasolRQE9mGLVxJyTgB7MqZpySVHAxJhi1cRcloCTsqx6yzY+AT0YX01EVJaAHiyr3rKNT8DEGF9NRERgs4CTcrOH3wh0LaAHuxa3HoHNAnpws4ffCHQtYGLsWtx6BEIFnJShYq4n0KyAHmzW09MIhArowVAx1xNoVsDE2KynpxFoXsBJ2bypJxIIEdCDIVquJdC8gB5s3tQTCYQImBhDtFxLoA8BJ2Uf6tYksCGgBzcs/ESgDwE92Ie6NQlsCJgYNyz8RCBOASdlnHURVTkCerCcWss0TgE9GGddRFWOgImxnFrLNFUBJ2WqlRN3LgJ6MJdKyiNVAT2YauXEnYuAiTGXSsojXwEnZb61lVkaAnowjTqJMl8BPZhvbWWWhoCJMY06ibJkASdlydWXewwCejCGKoihZAE9WHL15R6DgIkxhiqIgcAoASflKB3fEWhfQA+2b2wFAqME9OAoHd8RaF/AxNi+sRUITCfgpJzOz90EphXQg9MKup/AdAJ6cDo/dxOYVsDEOK2g+wm0LeCkbFvY8wmMFtCDo318S6BtAT3YtrDnExgtYGIc7eNbAv0LOCn7r4EIyhbQg2XXX/b9C+jB/msggrIFTIxl11/2KQg4KVOokhhzFtCDOVdXbikI6MEUqiTGnAVMjDlXV255CDgp86ijLNIV0IPp1k7keQjowTzqKIt0BUyM6dZO5KUIOClLqbQ8YxXQg7FWRlylCOjBUiotz1gFTIyxVkZcBJ4LOCmfS/ibQD8CerAfd6sSeC6gB59L+JtAPwImxn7crUqgvoCTsr6VKwm0IaAH21D1TAL1BfRgfStXEmhDwMTYhqpnEmhSwEnZpKZnEQgX0IPhZu4g0KSAHmxS07MIhAuYGMPN3EGgWwEnZbfeViOwVUAPbhXxO4FuBfRgt95WI7BVwMS4VcTvBGITcFLGVhHxlCagB0uruHxjE9CDsVVEPKUJmBhLq7h80xNwUqZXMxHnJaAH86qnbNIT0IPp1UzEeQmYGPOqp2xyFHBS5lhVOaUkoAdTqpZYcxTQgzlWVU4pCZgYU6qWWMsUcFKWWXdZxyOgB+OphUjKFNCDZdZd1vEImBjjqYVICAwXcFIOd/Epga4E9GBX0tYhMFxADw538SmBrgRMjF1JW4fApAJOyknl3EegGQE92IyjpxCYVEAPTirnPgLNCJgYm3H0FALtCTgp27P1ZAJ1BPRgHSXXEGhPQA+2Z+vJBOoImBjrKLmGQJ8CTso+9a1NoKr0oF1AoF8BPdivv9UJmBjtAQKxCzgpY6+Q+HIX0IO5V1h+sQvowdgrJL7cBUyMuVdYfukLOCnTr6EM0hbQg2nXT/TpC+jB9Gsog7QFTIxp10/0JQg4KUuoshxjFtCDMVdHbCUI6MESqizHmAVMjDFXR2wE/hZwUtoHBPoV0IP9+ludgB60Bwj0K2Bi7Nff6gTGCzgpxxu5gkCbAnqwTV3PJjBeQA+ON3IFgTYFTIxt6no2gSYEnJRNKHoGgckF9ODkdu4k0ISAHmxC0TMITC5gYpzczp0EuhFwUnbjbBUC2wnowe1kfE6gGwE92I2zVQhsJ2Bi3E7G5wRiEXBSxlIJcZQqoAdLrby8YxHQg7FUQhylCpgYS628vNMRcFKmUyuR5imgB/Osq6zSEdCD6dRKpHkKmBjzrKuschJwUuZUTbmkKKAHU6yamHMS0IM5VVMuKQqYGFOsmpjLEnBSllVv2cYnoAfjq4mIyhLQg2XVW7bxCZgY46uJiAhsFnBSbvbwG4GuBfRg1+LWI7BZQA9u9vAbga4FTIxdi1uPQKiAkzJUzPUEmhXQg816ehqBUAE9GCrmegLNCpgYm/X0NALNCzgpmzf1RAIhAnowRMu1BJoX0IPNm3oigRABE2OIlmsJ9CHgpOxD3ZoENgT04IaFnwj0IaAH+1C3JoENARPjhoWfCMQp4KSMsy6iKkdAD5ZTa5nGKaAH46yLqMoRMDGWU2uZpirgpEy1cuLORUAP5lJJeaQqoAdTrZy4cxEwMeZSSXnkK+CkzLe2MktDQA+mUSdR5iugB/OtrczSEDAxplEnUZYs4KQsufpyj0FAD8ZQBTGULKAHS66+3GMQMDHGUAUxEBgl4KQcpeM7Au0L6MH2ja1AYJSAHhyl4zsC7QuYGNs3tgKB6QSclNP5uZvAtAJ6cFpB9xOYTkAPTufnbgLTCpgYpxV0P4G2BZyUbQt7PoHRAnpwtI9vCbQtoAfbFvZ8AqMFTIyjfXxLoH8BJ2X/NRBB2QJ6sOz6y75/AT3Yfw1EULaAibHs+ss+BQEnZQpVEmPOAnow5+rKLQUBPZhClcSYs4CJMefqyi0PASdlHnWURboCejDd2ok8DwE9mEcdZZGugIkx3dqJvBQBJ2UplZZnrAJ6MNbKiKsUAT1YSqXlGauAiTHWyoiLwHMBJ+VzCX8T6EdAD/bjblUCzwX04HMJfxPoR8DE2I+7VQnUF3BS1rdyJYE2BPRgG6qeSaC+gB6sb+VKAm0ImBjbUPVMAk0KOCmb1PQsAuECejDczB0EmhTQg01qehaBcAETY7iZOwh0K+Ck7NbbagS2CujBrSJ+J9CtgB7s1ttqBLYKmBi3ividQGwCTsrYKiKe0gT0YGkVl29sAnowtoqIpzQBE2NpFZdvegJOyvRqJuK8BPRgXvWUTXoCejC9mok4LwETY171lE2OAk7KHKsqp5QE9GBK1RJrjgJ6MMeqyiklARNjStUSa5kCTsoy6y7reAT0YDy1EEmZAnqwzLrLOh4BE2M8tRAJgeECTsrhLj4l0JWAHuxK2joEhgvoweEuPiXQlYCJsStp6xCYVMBJOamc+wg0I6AHm3H0FAKTCujBSeXcR6AZARNjM46eQqA9ASdle7aeTKCOgB6so+QaAu0J6MH2bD2ZQB0BE2MdJdcQ6FPASdmnvrUJVJUetAsI9CugB/v1tzoBE6M9QCB2ASdl7BUSX+4CejD3CssvdgE9GHuFxJe7gIkx9wrLL30BJ2X6NZRB2gJ6MO36iT59AT2Yfg1lkLaAiTHt+om+BAEnZQlVlmPMAnow5uqIrQQBPVhCleUYs8C/E+N//CFAgAABAgQIECBAgAABAsMEBiOGWv+5zggcXxHoQEAPdoBsCQIjBPTgCBxfEehAQA92gGwJAiME/unB/wLsB1jx/FjcqQAAAABJRU5ErkJggg==;" parent="IKqkC-VqAS8bh-hIaz8--111" vertex="1">
          <mxGeometry x="265.15999999999997" y="1437" width="98.79" height="49.27" as="geometry" />
        </mxCell>
        <mxCell id="mVWykb73rqQKBAf5Biol-16" value="" style="shape=image;verticalLabelPosition=bottom;labelBackgroundColor=default;verticalAlign=top;aspect=fixed;imageAspect=0;image=data:image/png,iVBORw0KGgoAAAANSUhEUgAABLsAAAJcCAIAAACe9TGsAAAgAElEQVR4Aezdf3gU1aH/8RUuoiXWpTYPCE9hueAv0LKCNU3l0b2ATxBa3AJKiz+6aCX4UMv6A3gUiesXhavFLldoipW6eIteq70u3Da5xUI3Xo2J1YdtVRRTLhuklRaBKZaHH7GwX2t6Y0hmN3Nmzpz5se/8w2b2zJxzXudMZj7M7kwgX/inpaWl8Ju8gwACtguwD9pOTAUIFBVgHyzKw5sI2C7APmg7MRUgUFSgfR8MFCnDXloEh7cQUCDAPqgAmSoQKCLAPlgEh7cQUCDAPqgAmSoQKCLQvg8GWvhBAAEEEEAAAQQQQAABBBBAQE+Aa4xFQjVvIeCwAP+36vAAUH3JC7APlvwUAMBhAfZBhweA6kte4B/XGIs4sJcWweEtBBQIsA8qQKYKBIoIsA8WweEtBBQIsA8qQKYKBIoItO+DXGMsQsRbCDgswJHS4QGg+pIXYB8s+SkAgMMC7IMODwDVl7wAibHkpwAArhfgSOn6IaKBPhdgH/T5ANM91wuwD7p+iGigzwVIjD4fYLrnAwGOlD4YRLrgaQH2QU8PH433gQD7oA8GkS54WoDE6Onho/ElIcCRsiSGmU66WIB90MWDQ9NKQoB9sCSGmU66WIDE6OLBoWkIfCLAkZKJgICzAuyDzvpTOwLsg8wBBJwVIDE660/tCPQswJGyZyNKIGCnAPugnbpsG4GeBdgHezaiBAJ2CpAY7dRl2wjIEOBIKUORbSBgXoB90LwdayIgQ4B9UIYi20DAvACJ0byd0JrHjh3bv39/Kz8IiAs0NDSIr8QaCCAgTYB9UBolG0LAlAD7oCm2Yivt37//6NGjQqeyFC5lARKj1dHftWvX5s2b16xZc9ddd82dO/f666+/+uqrJ0yYUFFRMWrUqCFDhnzuc5879dRTA/wggAACCCCAAAIIIOAagT59+vTv33/IkCEjR4689NJLx48fP3Xq1FmzZt1yyy233377v/3bv9XV1b377rvHjx+3errM+h4XIDEKDOAf/vCHhoaGxx9/fNGiRdOmTbvoootOP/101+z1NAQBBBBAAAEEEEAAAfkCI0aMmDRp0ne+852VK1f+4he/2L59+9/+9jeBc2iKelyAxFhsAPfv379x48YFCxZUVlaWlZXJ3//YIgIIIIAAAggggAACHhQYPnz4jTfe+Nhjj23btq3Y+TTveV+AxNh1DPfs2fPcc89997vfHTNmjAd3XpqMAAIIIIAAAggggIBSgYEDB06fPj2ZTP7mN7/pem7N794XIDH+fQxbW1vXr18/d+7cCy+8UOnuRWUIIIAAAggggAACCPhI4IwzzrjqqqseeOCBhoYG72clevB3gZJOjO+///6jjz56xRVX+GgnpSsIIIAAAggggAACCLhCoH///jfddNMvfvELgpenBUoxMWqa9vjjj0+aNMkVexKNQAABBBBAAAEEEEDA1wLl5eXV1dWbNm3ydHAq2caXUGI8cuTI+vXrv/71r/t6f6RzCCCAAAIIIIAAAgi4VGDQoEHf+c53fv3rX5ds+vJix0siMT7//POzZs3q27evS3cdmoUAAggggAACCCCAQCkJDBkyJB6Pc6ccTwRInyfGxx57bPTo0aW099FXBBBAAAEEEEAAAQQ8I3DVVVdt3LjRE8GpZBvpz8S4f//+pUuXDho0yDP7Cg1FAAEEEEAAAQQQQKBUBcLh8Jo1a0o2krm8435LjNu3b//ud7/bp0+fUt3d6DcCCCCAAAIIIIAAAp4UGDBgwH333bdnzx6XJ6hSa55/EuNLL730zW9+05M7B41GAAEEEEAAAQQQQACB/xOorq7eunVrqQUz1/bXD4kxk8lMnDjx/yYY/yKAAAIIIIAAAggggIDnBaZOncqtcdwQI72dGHO53OzZsz2/N9ABBBBAAAEEEEAAAQQQ0BOYO3fuH//4RzcEp5Jtg4cT4/3339+rVy+9eeXAsr59+44aNSoajc6ZM+eOO+647777vve97/3whz/8yU9+smHDhs2bNzc3N7/11luNjY2t/CCAAAIIIIAAAggg4JDArl273nrrrebm5s2bN2/YsGH9+vVr1qxZsWJFIpG466675s6dO3PmzLFjx5555pkOnFIXqLJv374PPPBAyQY2xzvuycT45JNP/vM//3OBGWX74t69e59//vlf+9rXbr/99tra2hdeeCGXyzk+kDQAAQQQQAABBBBAAAGJAnv27Hn55ZfXrVt37733fuMb37jkkkuCwaDtp9qFKxg+fHgqlZLYQTZlUMBjibGhoWH8+PGFJ5Jd7wwbNuyGG2547LHHtm3bZlCWYggggAACCCCAAAII+Ezgz3/+88aNGxcuXPiVr3zFrjPvotu9/PLLf/WrX/lM1eXd8UxibG1tvemmm4rOH8lvnnfeed/+9rfXrVu3Y8cOl48izUMAAQQQQAABBBBAQLHAkSNHfvWrXyUSiSuvvPL000+XfC5edHOzZs165513FPe3ZKvzRmJcu3btZz7zmaLTRs6b/fv3v+WWW55++undu3eX7Jyg4wgggAACCCCAAAIIiAq88sor3/ve9yKRiJzzcgNbWblypWgjKW9CwO2J8eDBgzfeeKOBCWOpyGmnnXb99den02kTgqyCAAIIIIAAAggggAACHQKtra3f//73x40bZ+kE3djKV199dWtra0fVvLBDwNWJ8ec//3koFDI2W0yWmjZt2tNPP33s2DE7cNkmAggggAACCCCAAAIlK/D73//+oYceqqioMHmmbmy1z372s9wRx9Y55t7EuGDBAmOTxEypq6666sc//vFf/vIXW3HZOAIIIIAAAggggAACCLzzzjsPPvjgmDFjzJy4G1vnxhtv1DQNajsE3JgYf/Ob39j3XxHV1dW//e1v7aBkmwgggAACCCCAAAIIIFBE4L//+7+vvvpqYxlQuNQXvvCF559/vkjtvGVOwHWJ8ePnhwrPDgMrnHXWWffee+/7779vjom1EEAAAQQQQAABBBBAQIrAb3/727lz5xo4hTdT5Lbbbjtx4oSUdrKRdgEXJca//vWvU6dONTMviq5z/vnnP/roox999BFDjgACCCCAAAIIIIAAAi4R+POf/3z//fefffbZRc/lzbx54YUXvv766y7ppg+a4ZbE+Pbbb4fDYTMzovA6l19++X/8x3/4YJDoAgIIIIAAAggggAACfhX40Y9+JP0rjqeffvrPfvYzv4op7pcrEuMLL7zw+c9/vnD0E37n/PPPf/rppxVTUh0CCCCAAAIIIIAAAgiYE3jiiSeGDRsmfN5fdIUVK1aYawxrdRZwPjH++Mc/LjrQYm+edtppy5cv79xDXiOAAAIIIIAAAggggIAnBP7f//t/ffr0EQsARUvfdtttnui4mxvpcGK8//77iw6x2JvV1dV//OMf3cxN2xBAAAEEEEAAAQQQQKCIwO7du+fMmSMWA4qW/trXvnbw4MEiNfJWcQEnE+O3v/3tooMr8GZVVVVjY2PxrvIuAggggAACCCCAAAIIeEKgubl5ypQpAnmgaNGLLrrod7/7nSc67sJGOpMY9+/fP2nSpKLDavTN8847j68sunBi0SQEEEAAAQQQQAABBCwK/OxnPxs9erTRYFC03BlnnLFx40aL7SnN1R1IjG+//faoUaOKDqjRN+fMmXP06NHSHDl6jQACCCCAAAIIIIBAKQjcddddRuNBT+VWrVpVCmJy+6g6Me7YseOcc87paSh7fr9///7r16+Xa8HWEEAAAQQQQAABBBBAwIUCdXV1I0aM6DkkGCjxgx/8wIUddHOTlCbG9957T8rVxauvvnrXrl1uZqVtCCCAAAIIIIAAAgggIFHg8OHDt9xyi4FI2HORH/7whxIb5vtNqUuMe/bsufjii3sewJ5KPPLII74fFTqIAAIIIIAAAggggAAC3QWefvrp8vLynhJDz+8/9thj3TfOEl0BRYlx//79l156ac9DV7TEl7/85ddee023GyxEAAEEEEAAAQQQQACBUhDYs2fPtddeWzQ3GHrz8ccfLwUu631UkRg//PDDcePGGRq3woVuv/12671lCwgggAACCCCAAAIIIOADgR/+8IeFo4PRd3784x/7gMLuLtieGI8ePfov//IvRgetQLnvf//7dkOwfQQQQAABBBBAAAEEEPCQwC9/+cvPf/7zBQKE0cXr1q3zUJcdaaq9ifHEiRNVVVVGh0uvXJ8+fZ599llHaKgUAQQQQAABBBBAAAEE3CzwzjvvXHLJJXoxQmDZv//7v7u5j463zd7E+NWvflVgrLoVHTZsWFNTk+NGNAABBBBAAAEEEEAAAQTcKXDkyJHp06d3SxJiC7hGVWRwbUyM8XhcbKBOLn355Zfv3r27SNN5CwEEEEAAAQQQQAABBBDI5/N33nnnyWFC7LfTTjstm80iqStgV2Jcs2aN2CidXHrWrFm6zWUhAggggAACCCCAAAIIINBdYNWqVSdHCrHfLrroor/+9a/dN8sSWxJjQ0OD2PicXHrRokUMDAIIIIAAAggggAACCCAgJPDzn/+8X79+J2cLgd+mTZsmVF2JFJafGP/0pz8NGzZMYGROLkpcLJGZRzcRQAABBBBAAAEEEJAu8Otf//r0008/OWEI/EYY6T4i8hPjpEmTBMbk5KI8dLH7CLEEAQQQQAABBBBAAAEEjAts3ry5b9++J+cMgd/Wrl1rvK5SKCk5MVq52813vvOdUhCnjwgggAACCCCAAAIIIGCrwAsvvNCnTx+BmHhy0YaGBlub562Ny0yMVu52U11d7S04WosAAggggAACCCCAAAKuFfjlL3/Zq1evk5Og0d+GDh36xz/+0bVdU9wwaYnRyt1uZs+erbjbVIcAAggggAACCCCAAAL+FqivrzeaEbuVmzhxor9xjPdOTmI8fvz4eeed183Z0ILrr7/eeHMpiQACCCCAAAIIIIAAAggYFPjFL35hKJPoFVq4cKHBWvxdTE5ivOOOO/SQe152zTXX+NuX3iGAAAIIIIAAAggggICDAhs3buw5lhQo8etf/9rBlrukagmJccuWLQWEe1h80UUXHTp0yCUQNAMBBBBAAAEEEEAAAQR8KfCDH/ygh2RS4O2LL77YlyBCnZKQGMeMGVNAuNjiPn36vP7660JtpTACCCCAAAIIIIAAAgggYELg9ttvLxZOCr939913m6jOT6tYTYxLliwpzFvsnfXr1/vJkb4ggAACCCCAAAIIIICAmwW++tWvFssnhd8r8YdtWEqMTU1NhWGLvXPvvfe6eTLRNgQQQAABBBBAAAEEEPCZwP79+83drXPs2LE+oxDqjqXEOG7cuGK5sMB7M2bMEGoihRFAAAEEEEAAAQQQQAAB6wKvvvpq7969C8SUYosXL15svXaPbsF8Yly+fHkx1ALvXXjhhX/96189ikWzEUAAAQQQQAABBBBAwNMC69evL5BUelj80ksvebrjphtvMjG+8cYbPYjqvf1P//RPr732mum2siICCCCAAAIIIIAAAgggYFHgvvvu0wsrPSy79NJLLdbr0dVNJsbJkyf3IKr3dm1trUeZaDYCCCCAAAIIIIAAAgj4RsBcnHnwwQd9I2C8I2YS4y9/+Uu9PNjDsilTphhvFiURQAABBBBAAAEEEEAAAZsE3nnnnV69evUQYLq9feaZZ/7lL3+xqUmu3ayZxDh+/Phuej0sOOWUU9555x3XKtAwBBBAAAEEEEAAAQQQKCmBZDLZQ4bRe7sEH88onBg3bNigR9fDshUrVpTU/KOzCCCAAAIIIIAAAggg4HKBqqqqHmJMt7d79+79hz/8weX9kts84cR42WWXdXPrYcG//Mu/yG00W0MAAQQQQAABBBBAAAEELAq89dZbPSQZvbdvu+02i/V6a3WxxPjMM8/oofWw7PXXX/cWCq1FAAEEEEAAAQQQQACBUhB45JFHeggzem9v3769FHDa+yiWGMeOHasnVmzZ/fffXzqa9BQBBBBAAAEEEEAAAQS8JXDllVcWyzN6782ePdtbfbTSWoHEuG7dOj2uYssqKiqsNI51EUAAAQQQQAABBBBAAAFbBcw9ar50PkcpkBhHjRpVLB3qvVdXV2fr6LJxBBBAAAEEEEAAAQQQQMCiwL333quXZootu+aaayxW6pXVjSbGxx57rBiY3ntVVVVeUaCdCCCAAAIIIIAAAgggULICH374Yf/+/fUyTbFlDQ0NpSBmNDFeeOGFxbT03tuyZUspCNJHBBBAAAEEEEAAAQQQ8LrAv/7rv+plmmLLSuQyo6HEuHnz5mJUeu9dffXVXp80tB8BBBBAAAEEEEAAAQRKRODEiRNf+MIX9JJNsWW7d+/2vY+hxPitb32rmJPeey+//LLv7eggAggggAACCCCAAAII+EZg9erVesmm2LIHHnjAN90v1JGeE+Prr7/eq1evYk7d3ps5c2ah+liOAAIIIIAAAggggAACCLhT4IILLugWbootOOecc9zZEYmt6jkxmrhxUOncalbiSLApBBBAAAEEEEAAAQQQcFbAxAMFf/7znzvbZrtr7zkxXnTRRcVidbf3brzxRrsbzfYRQAABBBBAAAEEEEAAATsEvvSlL3WLOMUWzJgxw45muGebPSTGl19+uRiP3nsbNmxwT/doCQIIIIAAAggggAACCCBgXODOO+/USznFlr333nvGt++5kj0kxurq6mI23d6bMGGC5whoMAIIIIAAAggggAACCCDQITBkyJBuQafYgqVLl3as678XxRLjkSNHPvOZzxSz6fbeunXr/GdEjxBAAAEEEEAAAQQQQKB0BJYsWdIt6BRbMGLECB/jFEuMP/rRj4rBdHsvGAyeOHHCx1h0DQEEEEAAAQQQQAABBHwv8Pvf/75b1ulhwX/913/5laVYYoxEIj3AnPz2d7/7Xb8y0S8EEEAAAQQQQAABBBAoHYGpU6eenHV6+O0b3/iGX3EKJsaDBw/2oNLt7ddee82vTPQLAQQQQAABBBBAAAEESkfgP//zP7vFnWILzjrrLL/iFEyMokaXXXaZX43oFwIIIIAAAggggAACCJSawNChQ4tlxG7vvfTSS74kKpgYb7311m4IxRY89thjvgSiUwgggAACCCCAAAIIIFCCAjU1NcXyT7f3ampqfKlUMDGec8453RAKLjjttNMOHz7sSyA6hQACCCCAAAIIIIAAAiUo8L//+78F84/eG1/+8pd9qaSfGN955x09hILLrrvuOl/q0CkEEEAAAQQQQAABBBAoWYGJEycWjEB6b/zpT3/yn5V+Yly1apWeQMFlPIbRfzODHiGAAAIIIIAAAgggUOICDz30UMEIpPfGT37yE/+J6SfGq6++Wk+g4LI//OEP/qOhRwgggAACCCCAAAIIIFDKAtlstmAE0nvjxhtv9B+XfmLs16+fnoD+sjFjxvjPhR4hgAACCCCAAAIIIIAAAkOGDNFPQXpLzz77bP+J6STGLVu26HW/4LKFCxf6z4UeIYAAAggggAACCJgW0DQtl8tlP/lJf/KT+uQnWeCn/d10Op355CebzeZyOdO1syICEgVuvvnmgkFI741XX31VYu1u2JROYrz77rv1+l5w2QsvvOCGntAGBBBAAAEEEEAAAWUC7Zkwk8mkUqlkMhmPxyORSDgcDoVCwWCw4Imj+BuhUCgSiUSj0VgslkgkUqlUJpMhTyobaCr66U9/KjRtH3jgAZ+h6STGSCRiHOW00047ceKEz1DoDgIIIIAAAggggEBnAU3TstlsKpVKJBLtyVBuLDR+8tm5ZCgUikajHTGyc4N5jYAsgQMHDnSedT2+/upXvyqrapdsRycxDhgwoEeIjgL+E3HJwNAMBBBAAAEEEEDAQQFN0zKZTDKZdE8+7Dj/LPKiI0NmMhkH9ajaZwKXX355kVnX5a1hw4b5rPtdE+Of//znLn0u/uvKlSt9JkJ3EEAAAQQQQACB0hTIZrPJZDIWi4XD4eJngF55NxwOx2KxZDLJp1hLc0rL6vXSpUuF5vyHH34oq2o3bKdrYsxkMkIcv/vd79zQDdqAAAIIIIAAAgggYEKgIyW64VOmQmehooWDwWB7etQ0zQQUq5SywCuvvCI035qbm/3E1TUx1tbWCnG0tbX5iYO+IIAAAggggAACvhdo/8RpIpHwzbVEodPXQCAQiUTi8TifXPX9VJfVwb/85S9Cc+yJJ56QVbUbttM1Md52223GOc4//3w39IE2IIAAAggggAACCPQooGlaKpWKRCK+v5xo/Gw2EAhEo9FUKtWjHgVKXGDo0KHG59Vdd93lJ66uiXHChAnGLaZNm+YnC/qCAAIIIIAAAgj4T0DTtGQyGQ6HCYrFz3KJjv6b/BJ7dNVVVxWfP53fveqqqyRW7fimuibGQYMGde5t8deLFy92vAM0AAEEEEAAAQQQQKC7gKZp6XSaK4rFz2Z13yU6dp9OLLnrrrt0Z4vuwqFDh/pJ7KTEuG/fPt0+F1q4fv16P1nQFwQQQAABBBBAwAcCmUwmHo9zRbHQGazx5fF4PJvN+mBK0AXrAk888YTxmRMIBA4ePGi9Upds4aTE+D//8z9CEFu3bnVJN2gGAggggAACCCBQ4gKappXyzWyETmKFCofD4WQyWeKzi+43NzcLTZumpibfoJ2UGB977DEhiCNHjvgGgo4ggAACCCCAAAIeFeCiotAZrOnC8Xic5zp6dB+x3uwPP/xQaOasXbvWeqUu2cJJiXHx4sXGIc455xyX9IFmIIAAAggggAACJSjQ/pCMkn1ChvGzVrklI5EI91Ytwd0tn88PGzbM+FxasmSJb5ROSoxCj9aYOnWqbxToCAIIIIAAAggg4CGB9udkkBWNn75LLxkOh8mNHtplpDR1ypQpxifS/PnzpVTqho2clBi/9a1vGVe4+eab3dAB2oAAAggggAACCJSOQPuXFUOhkPFzNkraJ/Dx7YUSiUTpTL8S72ksFjM+l2bPnu0brpMS49e//nXjCrfffrtvFOgIAggggAACCCDgcoH2rMgdUI2frKosGY/HXT5/aJ51gfnz5xufVNOnT7deo0u2cFJinDBhgnGF++67zyV9oBkIIIAAAggggICPBciKxk9QnS3J9UYf74b5fH7JkiXGJ9jEiRN9o3FSYvzSl75kXOGRRx7xjQIdQQABBBBAAAEEXCjQ/n1FPoNq/ATV8ZLBYJDvN7pwV5LSpO9973vGJ9ill14qpVI3bOSkxHjeeecZV3j88cfd0AHagAACCCCAAAII+FIgk8lwbxvjp6auKsl9cXy5Swo9ifD888/3DcJJifHss882vrP99Kc/9Y0CHUEAAQQQQAABBNwjkM1mo9Go8bMyd5YMBoOhUCgcDkcikWg0GvvkJ17gp/3daDQa+eQnFAr54BubkUiE5ze6Z7ey3pJnnnnG+L42aNAg6zW6ZAsnJcZ+/foZV6ivr3dJH2gGAggggAACCCDgDwFN0+LxuIfCUjAYDIfD0Wg0Ho8nk8lMJpPNZnO5nKZpUkYkl8tlMpl0Op1KpRKJRCwWi0Qixs9X3VCSm+JImQlu2Eh9fb3xGVVWVuaGNktpw6eJ8W9/+5txgkAg8PLLL0tpARtBAAEEEEAAAQQQyOfz6XTa5V9ZbM+HsVisPRw6eAEtl8ul0+lkMhmPx92fIflyoz928JdfflkoLh0/ftwfHf80MR44cECI4I033vAHAb1AAAEEEEAAAQScFXDzx1DbLyEmk8lsNivryqEd2rlcLpVKxeNx1375MxwOO5ix7TAvtW2+8cYbQnHpwIED/iD6NDG2trYKETQ2NvqDgF4ggAACCCCAAAJOCbjzY6jhcDgej2cyGTdHxOJDlk6nE4mEC9MjT+AoPnBuflc0Lu3atcvN3THeNvOJsbW11Xg1lEQAAQQQQAABBBDoIpDNZt0TaYLBYDQaTaVS/rsOlk6nY7GYe74dGg6Hs9lsl8nAr+4X2LVrl9AFNhJjgMTo/mlNCxFAAAEEEEDAnQLuubQYCoXi8bjLP3EqaxDbLzy65MuiXGyUNazKtkNizIteZiUxKpudVIQAAggggAACfhJww7cWP77glkgkSvZKVyaTSSQSjkdHvtnorf2axEhi9NaMpbUIIIAAAggg4EmBVCrl4Mcjg8FgLBYrkSuKRuZHJpOJx+NCHzWUXjiVShlpKmUcFyAxkhgdn4Q0AAEEEEAAAQT8LKBpWiwWk543DG4wEokkk0nv3snG7pmRTqcdfEpHLBazu4Ns37oAiZHEaH0WsQUEEEAAAQQQQEBfIJvNOvIZyI6LivrNYunJAtls1qlLjtwO5+ShcONvJEYSoxvnJW1CAAEEEEAAAR8IJJNJ9Z9EDYVCXFQ0PXmSyaQjCT+ZTJpuMyvaLUBiJDHaPcfYPgIIIIAAAgiUnED7PVENfnBUVjE+gCprnqXTafW5MR6Py2o/25ErQGIkMcqdUWwNAQQQQAABBEpdQNO0aDQqKwca2U4kEslkMqXuLrv/6XRa8TiGw2G+cSp7GCVsj8RIYpQwjdgEAggggAACCCDQLqD4i4tkRbsnXiaTUZkbg8FgyT77xO6hNL19EiOJ0fTkYUUEEEAAAQQQQOAkgXQ6reyLi+FwOJ1On1Q9v9gmoPhzqoysbSNpZsMkRhKjmXnDOggggAACCCCAQBcBZfe5CQaD3NumC76aX1OplLLvN3IvHDVjaqQWEiOJ0cg8oQwCCCCAAAIIIFBMQM2zGciKxcZA1XvJZNLIl0utl0kkEqr6RD3FBEiMJMZi84P3EEAAAQQQQACB4gKapsViMevxoMctRCKRXC5XvDG8q0ZA5aCr6RG1FBEgMZIYi0wP3kIAAQQQQAABBIoJqLktKl9ZLDYGzr2n5i5HkUjEuS5S898FSIwkRvYEBBBAAAEEEEDAjICCuBgMBuPxOE9cMDM8qtZJJBI9Xh+2WCAcDqvqDfXoCJAYSYw604JFCCCAAAIIIIBAcQFN0wDtR/kAACAASURBVCKRiMUkUHz1cDjMgxaKj4JL3s1ms+FwuPhoWnyXRzU6ONYkRhKjg9OPqhFAAAEEEEDAkwKaptmaELjDjRenhd0XGwmNTs0KEiOJ0am5R70IIIAAAggg4EkBu+Mi31r05LT4pNF2f7OR0OjI3CAxkhgdmXhUigACCCCAAAKeFLA7LkajUb616MmZ0anRtt47l9DYSVrRSxIjiVHRVKMaBBBAAAEEEPC6gK3fXWz/JKrXiWh/u4Ctz2zkRjiKpxmJkcSoeMpRHQIIIIAAAgh4UsDWO6NykxtPzomijbb1djiExqL2kt8kMZIYJU8pNocAAggggAAC/hOwNS5GIhE+ieq/OdPeo2g0avEuqYVW5zmNyuYMiZHEqGyyURECCCCAAAIIeFXAvm+mJRIJ4qJXp4Wxdtt3D1VCo7ERsFqKxEhitDqHWB8BBBBAAAEE/C0Qj8cLXeexsjwYDKZSKX/T0bt2gUwmY2WqFFk3Ho+DbLcAiZHEaPccY/sIIIAAAggg4GEBm25hEgwG0+m0h11ouqBANpsNBoNFsp/pt/h/B8GhEC5OYiQxCk8aVkAAAQQQQACBEhFIpVJ2nOWHw+FcLlcihh3dPHLkyL59+95///19+/YdOXKkY3npvLDv0SyZTKZ0GNX3lMRIYlQ/66gRAQQQQAABBDwgYNNFIV/e56atrW379u319fWrV6++4447otFoZWXlF7/4xeHDhw8cOPCMM87o1atXl2tovXr1OuOMM84+++wRI0aMHj36K1/5SjQaveOOO1avXl1fX799+/a2tjYPzBLBJtr0gJZgMJjNZgXbQnGjAiRGEqPRuUI5BBBAAAEEECgdAZsuB0WjUX/c56alpWXdunXV1dXjx48PhUJd0qCsX0Oh0Pjx46urq9etW9fS0uKb6ReJRGQRdWwnFAr5Y2q5cJRJjCRGF05LmoQAAggggAACTgrY9CyNWCzm6XP6V155ZcWKFdOnTx80aFBHUFH5YtCgQTNmzHjkkUdeeeUVJ+eHjLrtuPsut06VMTI62yAxkhh1pgWLEEAAAQQQQKCUBex4HEI8HvdiXNy5c2cymYxEIn379lUZDnusq2/fvpFIJJlM7ty506Nz1Y7QyK1T7ZgMJEYSox3zim0igAACCCCAgFcFUqlUj3FFtIDn4uKOHTtWrFgxbtw40Z46Un7cuHErVqzYsWOH5+acHaGRe/BKnwYkRhKj9EnFBhFAAAEEEEDAqwK5XE76zVE9FBfffffdhx56qLKy0pHgZ73SysrKhx566N133/XQ/JMeGoPBYAneidfWEScxkhhtnWBsHAEEEEAAAQQ8I2DHfSy98t3F+vr6aDRqPbO5ZAvRaLS+vt4rM096aAyHw17puyfaSWIkMXpiotJIBBBAAAEEELBdQPrXF90fF0+cOLFmzZoxY8a4JOnJbcbYsWPXrFlz4sQJ26eO5Qqkx3W+0Gh5TD7dAImRxPjpbOAVAggggAACCJSsQCaTkft51HA47OZb3bS2ti5evLi8vFxuSHPh1srLyxcvXtza2uryuS39kRuZTMblXfZK80iMJEavzFXaiQACCCCAAAJ2CWiaJvehgm6Oi++99151dbULo53dTaqurn7vvffsmkOWtyv9EaDBYNDN/2dhGUzdBkiMJEZ1s42aEEAAAQQQQMCdAvF4XGJcce2tR9ra2mpqanr37i2xs97aVO/evWtqatra2tw5D6X/z0U0GnVnT73VKhIjidFbM5bWIoAAAggggIBkgXQ6LTH2BINBd34asLa2dvDgwRJ76t1NDR48uLa2VvI0krS5bDYrF5aHbVgfGRIjidH6LGILCCCAAAIIIOBVAU3T5H59MZVKuc3i+eef9+u9bayEqzFjxjz//PNuG6x8Pp/JZKz0q8u6fDbV+hCTGEmM1mcRW0AAAQQQQAABrwrI/Tyq225QuXPnzqlTp3aJEPzaWWDq1Kk7d+502/RNJpOdG2nxNZ9NtTi+JEYSo8UpxOoIIIAAAggg4FUBuZ9Hddt5+dq1a8vKyiyGjVJYvaysbO3atW6bxHKft+HOT0q7zbxQe0iMJMZCc4PlCCCAAAIIIOBnAbm3pgyFQu65L+XevXtnzZrlSNg788wzL7744hkzZixcuHD16tWpVOrZZ5+tq6traGh47bXX3n777XQ6/fbbb7/22msNDQ11dXXPPvtsKpVavXr1woULp0+ffvHFF5955pmOtHzWrFl79+51z4yXOz+DwaB7uua5lpAYSYyem7Q0GAEEEEAAAQQkCCQSCVnJxFV3u3nmmWcGDhwoq2s9bqeioiIejz/11FNNTU2yEtfevXubmpqeeuqpeDxeUVHRYxtkFRg4cOAzzzwjYW5J2kQul5PVtY+3k0gkJLWr5DZDYiQxltykp8MIIIAAAgggkMvlJN7wJplMuoH08OHDc+bMkZgxdDfVv3//yZMnL126dPPmzYcPH1bQ8cOHD2/ZsmXp0qWTJ0/u37+/bqskLpwzZ46afhmhk/vB6VwuZ6RSynQRIDGSGLtMCX5FAAEEEEAAAf8LxGIxWRnDJV9ffOutt8LhsKxOdd/OgAEDqqur6+vrHZ8c9fX11dXVAwYM6N5IWUvC4fBbb73leE/bGyDxC40umasugTXeDBIjidH4bKEkAggggAACCPhBQOJ1G5d8fbGurs6mi2+DBg269dZbN23a5MKB37Rp06233jpo0CBZQbHzdvr3719XV+eGXmuaFgqFOrfNymtugWNiTEmMJEYT04ZVEEAAAQQQQMDDApFIxMo5d+d13fB49Nra2s5NkvV6ypQpGzZs8MQwb9iwYcqUKbI63nk7tbW1bhCQ+ITGUCjkhh55qw0kRhKjt2YsrUUAAQQQQAABSwISLzC64emLixYt6pxwrL/u3bv33Llzt27daknZiZW3bt06d+7c3r17W0fovIVFixY50ZuudUp8cGgqleq6dX4vKkBiJDEWnSC8iQACCCCAAAI+EpD4xALHP4/60UcfzZw5s3O2sfh62LBhy5Yt27dvn6cHfN++fcuWLRs2bJhFjc6rz5w586OPPnKWReJnU3nShuhQkhhJjKJzhvIIIIAAAggg4FWBZDLZOQlYee3s51EPHDjw2c9+1kr7O69bVla2fPlyrw5qgXYvX768rKysczetvK6srDxw4ECBqhQtlvjZVC4zCo0ZiZHEKDRhKIwAAggggAACXhWQeJXG2XtOHjx4cNy4cVbyT+d158+f/8EHH3h1UIu2+4MPPpg/f37nzlp5PW7cuIMHDxat0PY3Zd03lcuMQkNFYiQxCk0YCiOAAAIIIICAVwUSiYSVwNCxbjAY1DTNKYVDhw5dccUVHY2x8mLmzJlvvvmmUx1RVu+bb74p6+O7V1xxxaFDh5S1vHtFmqbJeo6oSx4i2r2PLlxCYiQxunBa0iQEEEAAAQQQkCwg8QJjIpGQ3DjDmzty5Mj48eOtpMT2dc8991w3PFnRcL8lFKyvrz/33HOt040fP/7IkSMSGmR2E6lUynovAoEAlxmNjwCJkcRofLZQEgEEEEAAAQS8KiDrG4wO3vCmra3tyiuvtJ4W5s6de+zYMa8OpIV2Hzt2bO7cudYBr7zyyra2NgsNsbpqOBy23otAIMC3GQ2OBImRxGhwqlAMAQQQQAABBLwqIPECo1MPQD9+/PikSZMs5oTBgwc/99xzXh1FSe1+7rnnBg8ebFFy0qRJx48fl9Qi4c1ks1mL7W9fncuMBulJjCRGg1OFYggggAACCCDgVQFZz2B08IY306ZNsxgSbrjhhv3793t1CKW2e//+/TfccINFz2nTpkltlNjGZN0Ch8uMRtxJjCRGI/OEMggggAACCCDgYYFIJGIxHrSv7tQFxnvuucdi+1euXOnh8bOn6StXrrSoevfdd9vTtJ63qmmaxca3rx4KhXqurORLkBhJjCW/EwCAAAIIIICArwW8foHxySeftJIN+vXr5+yjI908udLpdL9+/azwPvnkk051MBaLWWl5x7rZbNapLnilXhIjidErc5V2IoAAAggggIAZASmf3wsGg46cWDc3N59yyikdJ/eiL0aNGrV161YzaiWzztatW0eNGiUK21H+lFNOaW5udkRL1mXGWCzmSPs9VCmJkcTooelKUxFAAAEEEEBATCCXy0l5fp0jZ9Wapl1wwQUd4UT0xeTJkw8cOCDmVZKlDxw4MHnyZFHejvIXXHCBU8/nlHWZMZfLleTIG+00iZHEaHSuUA4BBBBAAAEEPCeQSCQ6zuxNv3DqAqOVq6Nz5szx3GA52+A5c+aYniFO3RJJ1mXGZDLpLL7LaycxkhhdPkVpHgIIIIAAAgiYFwiFQqZjQMeKjuSBRYsWdTRA9MVNN91knqyE17z55ptFqTvKL1q0yBE5KZcZecxG8bEjMZIYi88Q3kUAAQQQQAABrwrIuueN+lukvvjiix1RRPSFIx+g9eoU6dZuKwHsxRdf7LY92xfIuszIYzaKDBWJkcRYZHrwFgIIIIAAAgh4WMDKpzo7cpojFxgrKio6GiD04vrrr/fwgLmj6aYf1VhRUeFID6yk3I7Z5cg8d4TLRKUkRhKjiWnDKggggAACCCDgdgFN06Tc80b9oymWLl3acR4v9OKb3/ym20fFI+2bNWuWkHxH4aVLl6rvYjab7WiAlRfc/6bQ2JEYSYyF5gbLEUAAAQQQQMDDAslk0srZc/u64XBYMcHWrVvNNXvKlCmKm+rv6qZMmWJuIBx5nImU7+ty/5tCU5rESGIsNDdYjgACCCCAAAIeFohEIubO+DuvlUgkFBNMnDixcwMMvh4xYsQHH3yguKn+rm7v3r0jRoww6N+52MSJE9XLpFKpzm0w9zoSiahvuSdqJDGSGD0xUWkkAggggAACCAgI5HI5cyfNndcKBoOKn7O3cuXKzg0w/vqll14S0KGoMYGXXnrJ+BB0Lrly5UpjNUgrJesz2HwwVXdISIwkRt2JwUIEEEAAAQQQ8LCAlI+kKr7p6J49e/r06dM5eBh8vXbtWg8PlbubvnbtWoOj0LlYnz599uzZo7hn8Xi8cxvMveaDqbqjRmIkMepODBYigAACCCCAgIcFpNwlVfFDNe68804TZ/kLFizw8Dh5oel33XWXiXG58847FXdOynV1PpiqO2okRhKj7sRgIQIIIIAAAgh4VUDKE+oU3/Nm9+7dJmLJpEmTvDpInmr3pEmTTIzO7t27FfdSyv1v+GBq91EjMZIYu88KliCAAAIIIICAhwXS6bSJ8/suqyi+5838+fO7NMDIr2+88YaHx8k7TX/jjTeMDEeXMvPnz1fcRSkfxuaDqd1HjcRIYuw+K1iCAAIIIIAAAh4WkPKR1Gw2q4zA3OcJly9frqyFVLR8+fIugdDIr4qv10m5uh6NRhnuLgIkRhJjlynBrwgggAACCCDgbQHrn81T/JHUefPmGYkfnctcdtll3h4kD7b+sssu6zwERl7PmzdPcUetT/5gMKi4ze6vjsRIYpQ2S1v5QQABBBDwvoC0owIbckggm80aOZUvXkblR1JbWlqKN0b33cbGRoeAS7faxsZG3bEovrClpUUlmZQPpiq+55NKH3N1kRhJjOZmzqdr1dTUVFVVlZeXF/97wbsIIIAAAp4QKC8vr6qqqqmp+fQPPa88JeC5M+bq6mrRXeOee+7x1Jj4p7H33HOP6GBVV1er7L+UD6byVcYuQ0ZiJDF2mRICvzY1NVVWVor+4aA8AggggIAnBCorK5ubmwWOChR1h4D1LzGq/EjqsWPHysrKhPaIAQMGtLW1uQO75FrR1tY2YMAAofEqKys7duyYSinrH0zlq4xdxovESGLsMiWM/trc3Cz094LCCCCAAAJeFGhqajJ6YKCcOwSCwaDFmRaPx5V15YknnhBt7cMPP6yseVTUXeDhhx8WHbInnnii+3bsWxKPx0Vb2KU8X2XsMjokRhJjlylh9FeuLnb548KvCCCAgC8FKisrjR4YKOcCASlfYkyn08q6MmHCBKEdZ/DgwSdOnFDWPCrqLnDixInBgwcLjdqECRO6b8e+JVKeLsNXGTsPEImRxNh5Phh9XVNTI/SXgsIIIIAAAt4V4DuNRo+OLign5UuMmqap6cq2bdtE9wu+YKZmaIrXYmKabdu2rfg25b5r/Uo7M63ziJAYSYyd54PR11VVVaJ/4imPAAIIIOBRgaqqKqOHB8o5LeCtLzGK3kZl6NChTgNT/z8Ehg4dKvQHTfHNiiKRiFDzuhfmq4yd5zqJkcTYeT4Yfc2dUbv/ZWEJAggg4FeB8vJyo4cHyjktYP2eHyq/xDhkyBChvWbVqlVOA1P/PwRWrVolNHZDhgxRaZdIJISa170wX2XsPF4kRhJj5/lg6HVra2v3/YolCCCAAAI+FmhtbTV0hKCQowK5XM76JFT2JcaNGzcKtfbUU089dOiQo8BU/qnAoUOHTj31VKER3Lhx46fr2/xKylcZc7mczc30zOZJjCRG4clKYhT6+0hhBBBAwAcCJEbhg6UTK3jrLPmWW24R2jVmz57tBCp1FhSYPXu20AjecsstBbcl+w0pT2VMpVKy2+XV7ZEYSYzCc5fEKPT3kcIIIICADwRIjMIHSydWMHE/ki6TU+WTGIcPH96l9uK/btmyxQlU6iwosGXLluJD1uXd4cOHF9yWDW+Ew+EuDRD9NZFI2NAuT26SxEhiFJ64JEbRvziURwABBLwuQGIUPlg6sYL1297EYjE1Dd++fbvQTjFy5Eg1DaMWIYGRI0cKjeP27duFtm+lsPWnMnLzmw5/EiOJsWMyGH1BYhT640hhBBBAwAcCJEajx0hHy1m/7Y2yj+HV1tYK7RfLli1zlJbK9QWWLVsmNI61tbX6G7JhqfUPaXPzm45hITGSGDsmg9EXJEahP44URgABBHwgQGI0eox0tJz1mabstjczZswQau2uXbscpaVyfQHRIHHNNdfob8iGpVK+yqjs2aQ2AMjcpOhA+2aHbWlpyefzgXyexCg8n0iMQgc5CiOAAAI+ECAxCh8sla+QzWatzzRlN4c866yzjLd27Nixyjmp0KjA2LFjjQ/lWWedZXS7lstJSYzZbNZyQ/ywARIjiVF4HpMYjf9lpCQCCCDgDwESo/DBUvkKmUzG4mQLhUJqWt3U1CTU1AULFqhpGLWYEFiwYIHQaDY1NZmoxdwq1m9+o+yqu7kOKluLxEhiFJ5soomxsbGxlR8EEEAAATcJNDY2Cp3kkRiFD5bKV7B+o9RIJKKm1Q8++KDQ9Kuvr1fTMGoxIVBfXy80mg8++KCJWsytEovFhNrWvXAymTRXtc/WIjGSGIWntGhi5DxDmJgVEEAAAZsF+EtuM7ADm08kEt3Pd4WWxONxNe2+7rrrjDesV69eR48eVdMwajEhcPTo0V69ehkf0Ouuu85ELeZWsX67VGV3DzbXQWVrkRhJjMKTjfMMYTJWQAABBFwmwF9ylw2IhOZYf7SGshulXnLJJcYDxsSJEyXosAk7BSZOnGh8QC+55BI723LStq3fLpUHbLSDkhhJjCftWkZ+4TzDiBJlEEAAATcL8JfczaNjrm2RSMT4WbtuSWVf2SorK9NtgO5Cnqthbj6oXEvoGRtlZWXK2mY9MSr7cq8yE3MVkRhJjMIzh/MMYTJWQAABBFwmwF9ylw2IhOZYfxijmttCip561tXVSdBhE3YK1NXV6ab9QguVPXrB+u1SeSRj+8QR3W2VDbGd8/rv2+bpGuaFOc8wb8eaCCCAgDsE+EvujnGQ2YpgMFjoBN3gcjWP1ti0aZPB9rQX27Fjh0wmtmWDwI4dO4TGdNOmTTa0QmeT1hNjIPD3R/HxQ2LkGqPwXsB5hjAZKyCAAAIuE+AvucsGxGpzPHRm/OijjxpPF3379rVKw/pKBPr27Wt8WB999FEljfp7Jdb/J0XTNGWtdW1FJEYSo/Dk5DxDmIwVEEAAAZcJ8JfcZQNitTm5XM74+bpuSWXf15o3b55uA3QXjh492ioN6ysRGD16tO4I6i6cN2+ekkb9vRLrj2RU82ltZSDmKiIxkhiFZw7nGcJkrIAAAgi4TIC/5C4bEKvNyWazuqfmxheGw2GrjTC2/oQJE4y36tprrzW2VUo5LHDttdcaH9YJEyYoa671O0JlMhllrXVtRSRGEqPw5OQ8Q5iMFRBAAAGXCfCX3GUDYrU5mUzG+Pm6bslIJGK1EcbWr6io0G2A7sIlS5YY2yqlHBZYsmSJ7gjqLqyoqFDWXOtPnVF2D2FlJiYqIjGSGIWnDecZwmSsgAACCLhMgL/kLhsQq82x/hQBZc+dGzlypG6K0F24Zs0aqzSsr0RgzZo1uiOou3DkyJFKGvX3SmKxmG4bjC9U9pxSZSYmKiIxkhiFpw3nGcJkrIAAAgi4TIC/5C4bEKvNSaVSxs+AdUvGYjGrjTC2/pAhQ3QboLtw/fr1xrZKKYcF1q9frzuCuguHDBmirLnxeFy3DcYXJpNJZa11bUUkRhKj8OQUPc9obGxs5QcBBBBAwE0CjY2Nxk+YAoFAa2ur8NGCFRQKeCgxfu5znzM+9zZs2KBQkarMC2zcuNH4sH7uc58zX5PgmiRGQTD94iRGEqP+zCiyVDQxGv8LQkkEEEAAAXcKkBiLHBbd8FYymbQ4c+LxuJqOnHrqqcabunnzZjWtohaLAlu2bDE+rKeeeqrF6oyvnkgkjDdMt2QikTBenV9LkhhJjMJzm8So+weFhQgggICPBUiMwgdLtSt4JTEeO3ZMaDd59dVX1UJSm0mBV199VWhkjx07ZrImwdVIjIJg+sVJjCRG/ZlRZCmJUehvIoURQAABHwiQGIscFt3wllcS4/79+4V2h23btrmBlzb0KLBt2zahkd2/f3+P25RSgMQohZHESGIUnkgkRqG/iRRGAAEEfCBAYhQ+WKpdwSuJsampSWh3YOKpnUfmaxM9OWxqajJfmciaJEYRrYJlSYwkxoKTo9Abon8UhI4NFEYAAQQQcKEAJ+6FjokuWe6VxMg1RpdMGOnN4BqjdFJXbZDESGIUnpAkRheezNEkBBBAwFYBEqPwwVLtCl5JjHyPUe28UFcb32NUZ+1ETSRGEqPwvCMx2npaxsYRQAABFwqQGIUPlmpX8EpizOfzQvdK3bJli1pIajMpsHnzZuN/uLhXqkll51YjMZIYhWcfidH430RKIoAAAv4QIDEKHyzVruDX5zFu3LhRLSS1mRTYsGGD8b91PI/RpLJzq5EYSYxmZl95ebnxvwuURAABBBDwtEB5ebmZQwXrKBRIp9MW51gsFlPT3iFDhhhv6vr169W0ilosCqxfv974sA4ZMsRidcZXj8fjxhumWzKVShmvzq8lSYwkRjNzu6qqSnenYiECCCCAgP8EqqqqzBwqWEehgPXEGI1G1bR35MiRxveRNWvWqGkVtVgUWLNmjfFhHTlypMXqjK8ei8WMN0y3JIkxn8+TGEmMxne6T0vW1NTo7lQsRAABBBDwn0BNTc2nBwBeuVLAemKMRCJqelZRUWF8H1myZImaVlGLRYElS5YYH9aKigqL1RlfPRqNGm+Ybsl0Om28Or+WJDGSGE3O7crKSt39ioUIIIAAAn4SqKysNHmcYDWFAtls1uKsC4fDato7YcIE40299tpr1bSKWiwKXHvttcaHdcKECRarM756JBIx3jDdkiRGrjEG8nkSo/Gd7qSSog/h1d0JWYgAAggg4HKB5ubmk/7684srBXK5nMWJFAwG1fRs3rx5xps6evRoNa2iFosCo0ePNj6s8+bNs1id8dVDoZDxhumWzGazxqvza0muMZIYzc/t5uZmrjTq/nFhIQIIIOADgcrKyqamJvMHCdZUKKBpmsUppywxPvroo8ab2rdvX4WKVGVeoG/fvsaH9dFHHzVfk+Ca1hNjLpcTrNOHxUmMJEar07qmpqaqqoq7pxr/Q0lJBBBAwM0C5eXlVVVVfHfR6tFR+frBYNDivNI0TUGrN23aJNTOHTt2KGgVVVgR2LFjh9CYbtq0yUp1QusKNUy3sFB1fi1MYiQxSpvbrfwggAACCHhfQNpRgQ2pFbCeGNV8+k701LOurk4tJLUJC9TV1elmrUILd+3aJVyHqRWsf1o7FAqZqtlvK4nutsqG2G7olpaWfD7P9xjtdmb7CCCAAAIIIKBCIBwOFzpBN7g8k8moaGg+X1ZWZrBJgUBg2bJlalpFLaYFli1bZnxAy8rKTFckumImkzHeMN2Syu4IJdo1xeVJjFxjVDzlqA4BBBBAAAEE5AtYf+5cMpmU3yy9LV5yySW6Z+e6CydOnKi3DZa5SGDixIm6Y6e78JJLLlHW9FQqpdsG4wuVPXVGmYm5ikiMJEZzM4e1EEAAAQQQQMBFAvF43Ph5sG7JRCKhpj/XXXedbgN0F/bq1evo0aNqGkYtJgSOHj3aq1cv3bHTXXjdddeZqMXcKslkUrcNxhfG43FzVftsLRIjidFnU5ruIIAAAgggUIoCiUTC+HmwbsloNKoG7sEHH9RtQKGF9fX1ahpGLSYE6uvrCw2c7vIHH3zQRC3mVolGo7ptML5Q2X+jmOugsrVIjCRGZZONihBAAAEEEEDALoF0Om38PFi3pLIHbIg+0nnBggV2qbFdywILFizQnU6FFqp8Zo/1R2uk02nLQn7YAImRxOiHeUwfEEAAAQQQKHEB649kDAQCah6wkc/nzzrrrEKJovvysWPHlvjgurn7Y8eO7T5khZacddZZKvti/QbCPIyxfbxIjCRGlXsudSGAAAIIIICAXQKFTtONL1fzgI18Pn/NNdcYb1UgEPDNzfrtGnuHtisaJGbMmKGspdlsVmiO6RYmMbaPl+hA+2aH5ekaynZYKkIAAQQQQAABFQLWP4On7HaptbW1uifohRbyjA0VE0i8DqHnagQCgdraWvFKTK5h/UapPFqjg57EyDXGjsnACwQQSsCqiQAAIABJREFUQAABBBDwsID1B2zEYjE1/d++fXuhcKi7fOTIkWoaRi1CAiNHjtQdr0ILt2/fLrR9K4Wt3z1Y2b2grHRTzbokRhKjmplGLQgggAACCCBgr4D126Uqu/lNPp8fPnx4oVyhu3zLli328rF1QYEtW7bojlShhcOHDxeswVJx6zdK5dEaHQNAYiQxdkwGXiCAAAIIIICAhwWs3y5V5c1vbrnllkLRQnf57NmzPTw2fmz67NmzdUeq0MJbbrlFJYP1295wo9SO8SIxkhg7JgMvEEAAAQQQQMDDAlJul5rJZNQQbNy4sVC00F1+6qmnHjp0SE3bqKVHgUOHDp166qm6I1Vo4caNG3vcrKwC3PZGlmT7dkiMJEa5M4qtIYAAAggggIBjAh66+U0+nx8yZEihdKG7fNWqVY7JUvHJAqtWrdIdo0ILhwwZcvIG7P0tmUwWaonB5So/oW2vhYytkxhJjDLmEdtAAAEEEEAAARcIWP/ulsq7fdxzzz0GT9/biw0dOtQFxjTh7wJDhw4VGrt77rlHJZy3dgSVMubqIjGSGM3NHNZCAAEEEEAAAdcJeOvmN9u2bRNKHYFAQNnzP1w3tG5qkIkreNu2bVPZA+sX2xOJhMoGu7wuEiOJ0eVTlOYhgAACCCCAgFEBKTe/UfZVxnw+P2HCBKHQOHjw4BMnThjloJwNAidOnBg8eLDQqE2YMMGGhhTcZCaTEWqebmFue9PZl8RIYuw8H3iNAAIIIIAAAh4WkHLzG2VPZczn80888YTu+XqRhQ8//LCHR8j7TX/44YeLjI7uW0888YTKflu/0q7ypsEqZUzXRWIkMZqePKyIAAIIIIAAAq4TiEQiumftxheqvOfHsWPHysrKjLctEAgMGDCgra3Nde6l0aC2trYBAwYIjVdZWdmxY8dU8ljfBcLhsMoGu78uEiOJ0f2zlBYigAACCCCAgFEBKRdYcrmc0fosl6uurhZKIIFAQPFtVCx30T8bEL1ZUSAQqK6uVtl/Kc/ViMfjKtvs/rpIjCRG989SWogAAggggAACRgWkfJVR5Q1mWlpaRBNjIBBobGw0KkI5SQKNjY0mRqqlpUVS/YY2Y+KuPN07xZcYu1iTGEmMXaYEvyKAAAIIIICAtwWCwWD3k2ChJaFQSCXBvHnzhJoXCAQuu+wylS2krnw+f9lll4kO07x58xTTWX+uRjAY1DRNcbNdXh2JkcTo8ilK8xBAAAEEEEBATCAWi4me2Xcvr/KDqblcrnsDelyyfPlyMRdKWxBYvnx5jyPSvYDKWZTP581NpC7NVvlIUgsDonRVEiOJUemEozIEEEAAAQQQsFsglUp1OQk28avKD6bm8/n58+ebaOQbb7xhNybbz+fzb7zxhonRmT9/vmI9KR9JTaVSipvt/upIjCRG989SWogAAggggAACAgJSnrGh8o6p+Xx+9+7dJjLJpEmTBFwoalZg0qRJJkZn9+7dZis0uZ71u6QGAgHF10VNdlXtaiRGEqPaGUdtCCCAAAIIIGC/QCgUMnGK32UVxafOd955Z5cGGPn1rrvusp+zpGtYsGCBkYHoUubOO+9UrCblLqk8V0N31EiMJEbdicFCBBBAAAEEEPCwgJSP58ViMZUEe/bs6dOnT5fgYeTXtWvXqmxnSdW1du1aI0PQpUyfPn327NmjGErKc2USiYTiZnuiOhIjidETE5VGIoAAAggggICAgBc/mJrP51euXNklexj89aWXXhLQoagxgZdfftmgf5diK1euNFaDtFKapnnxurq0/tu8IRIjidHmKcbmEUAAAQQQQMAJASkn0OrvAjJx4sQu8cPIryNGjPjggw+cYPZtnR988MGIESOM4HcpM3HiRPUoUh5DykdSCw0ciZHEWGhusBwBBBBAAAEEPCwg5Y6pih/MmM/nt27d2iWBGPx1ypQpHh4t9zV9ypQpBuW7FNu6dav63ki55w0fSS00cCRGEmOhucFyBBBAAAEEEPCwgJQPpgYCgWw2q1hh6dKlXUKIwV9nzZqluKl+re6b3/ymQfMuxZYuXareJJPJdGmGuV8V3+pJPZTpGkmMJEbTk4cVEUAAAQQQQMDVArFYzNypc+e1HHmgeUVFRec2GH99ww03uHpIvNC466+/3jh455IVFRWO9M+789wRLhOVkhhJjCamDasggAACCCCAgAcEpHy5y5En1L344oudo4jQa8W3ePXAPBBpopX09eKLL4pUJadsLpcLBoNCM0S3cDqdltMgP26FxEhi9OO8pk8IIIAAAggg8ImAlPvfOJLBFi1apHtmb2ThzTffzPibELjpppuM8OqWWbRokYkara8i5aEawWBQ0zTrjfHrFkiMJEa/zm36hQACCCCAAAL5eDyue34vutCRr3hFo1HRdnaUnzNnDsMvJDBnzpwOPdEXjnx0OZ/Pa5om5QIj97wpPlVIjCTG4jOEdxFAAAEEEEDAwwKy7n/jyGVGTdMuuOAC0fTSUX7y5MkHDhzw8OCpavqBAwcmT57c4Sb64oILLnDqAp2UC4yOfO5a1djKqYfESGKUM5PYCgIIIIAAAgi4U8DKN9M6hwdHLjM2NzefcsopnZsh9HrUqFGOPOzBnTNBt1Vbt24dNWqUkGrnwqecckpzc7Pulu1eKOsCo1MXSO32kbh9EiOJUeJ0YlMIIIAAAggg4DoBWc8ecOQyYz6ff/LJJztHFNHX/fr146YmhSZlOp3u16+fKGnn8k8++WShjdu9XNYFRqZHjyNFYiQx9jhJKIAAAggggAAC3haQcv8bBz+8d/fdd3dOKSZer1y50ttDaEPrV65caUKy8yr33HOPDe0ytElZt0gNh8OG6ivtQiRGEmNp7wH0HgEEEEAAgRIQSKVSnU/0Tb928PN706ZNM93s9hVvuOGG/fv3l8Bo99zF/fv333DDDRY9p02b1nNNtpWQ9VnrZDJpWxv9s2ESI4nRP7OZniCAAAIIIIBAIQFZlxmz2WyhKmxdfvz48UmTJlkMOYMHD37uuedsbaf7N/7cc88NHjzYouSkSZOOHz/uVGdlfdA6FAo5dc8ep+jM1UtiJDGamzmshQACCCCAAAJeEpB1mTEUCjnV7ba2tiuvvNJi1AkEAnPnzj127JhTvXCw3mPHjs2dO9c64JVXXtnW1uZgRyKRiPVefLwFHqphcBBJjCRGg1OFYggggAACCCDgYQFN02RdZkylUk5BHDlyZPz48dbTwrnnnltfX+9ULxypt76+/txzz7VON378+CNHjjjShfZKk8mk9V4EAoFgMMgFRoPj2NraKmS+a9cug1t2ebGWlpZ8Ph/I50mMLh8pmocAAggggAACcgRk3VvS2VPtQ4cOXXHFFULnr4UKz5w5880335SD6+KtvPnmmzNnziyEILT8iiuuOHTokIN9lfVEjY97zQVG4+NIYiQxGp8tlEQAAQQQQAABDwtIvMzo4C1w8vn8wYMHx40bJxR1ihSeP3/+Bx984OFxLdz0Dz74YP78+UX6LvTWuHHjDh48WLg2Fe/E43GhNhcq7Oz/eqiQkloHiZHEKHVCsTEEEEAAAQQQcLGArMuMgUAgk8k42NEDBw5UVlYWygOiy8vKypYvX+5gd+yoevny5WVlZaIUhcp/9rOfPXDggB3tNL5NWTe8+biPXGA0zm7iI5l8KjXQ2toqRExhBBBAAAEEEEDAJQISLzMGg0FnO/XRRx/J+rBle0waNmzYsmXL9u3b52y/LNa+b9++ZcuWDRs2rFD2M7F85syZH330kcWGWVxd07RwOGyi8d1X4RapomPBNUauMYrOGcojgAACCCCAgIcFZN00NRAIxGIxxyEWLVrUPRJYWdK7d++5c+du3brV8a6JNmDr1q1z587t3bu3le53X3fRokWiLbGjvMTL4zyDUXSASIwkRtE5Q3kEEEAAAQQQ8LaArJumOv7Z1PZhqK2t7Z5zrC+ZMmXKhg0bPDHSGzZsmDJlivUud99CbW2tGwQymUwwGOzePBNLuMBoYkBJjCRGE9OGVRBAAAEEEEDAwwISvw/m+GdT24ehrq6uf//+JvJDj6sMGjTo1ltv3bRpkwvHe9OmTbfeeuugQYN67IWJAv3796+rq3NDryV+HtUl/8fhBlWhNpAYSYxCE4bCCCCAAAIIIOAHgWg0aiJF6K7i7H1TOwbjrbfekvU9N91uDhgwoLq62g1Pcayvr6+urh4wYIBuO6UsDIfDb731Voetsy9k3R81EAi4ZK4662midhIjidHEtGEVBBBAAAEEEPC2QC6XkxIt2jeSTqfdwHH48OE5c+ZI7Jfupvr37z958uSlS5du2bLl8OHDCjp++PDhzZs3L126dPLkyTZdSu3c0zlz5qjplxE6iV+7DQaD2WzWSKWU6SJAYiQxdpkS5n9t5QcBBBBAwPsC5g8DrOk1AYmXblx1Lv7MM88MHDiwcwSy9XVFRUU8Hn/qqaeampr27t0rZRbs3bu3qanpqaeeisfjFRUVtra/88YHDhz4zDPPSOmClI3kcjlZX1/8uJs8UcP0oJAYSYymJ88/VqypqamqqiovL+/8F4fXCCCAAAIeFSgvL6+qqqqpqbF6eGB91wtIfNJGIBAIhULu6fHevXtnzZrlyD545plnXnzxxdOnT1+4cOHq1atTqdSzzz5bV1fX0NDw2muvvf322+l0+u23337ttdcaGhrq6uqeffbZVCq1evXqhQsXzpgx4+KLLz7zzDMdafmsWbNkJV4pM0HTtEgkIouCG95YGRQSI4nR/PxpamqS+PBcWX8R2A4CCCCAgBSBysrK5uZm8wcJ1vSCgMRb4AQCgUgk4qpOr127VuIj7KXsVu7cSFlZ2dq1a101dh8/NT4Wi0nkcskHp92GbLA9JEYSo8Gp0rVYc3OzxN2YTSGAAAIIuFOgqamp6wGA3/0lIPEWOIFAIJVKuYpn586dU6dOdefO5ZJWTZ06defOna4atXw+n0wmJfpwwxuL40tiJDGanEJcXZT4h4xNIYAAAq4VqKysNHmcYDWPCGiaJvGrYu58esHzzz8/ZswY1+5lTjVszJgxzz//vAvnqcSnLwYCgWAwqGmaC7vpoSaRGEmMZqZrTU2NU3/dqBcBBBBAQLEA32k0c6T01DrpdFripHLVXXA6j0Ntbe3gwYMl9tS7mxo8eHBtbW1nHPe8zmazcv8LI5lMuqd3Hm1JqSfGlpaWhoYGoR2+tbXVo4MtsdlVVVVCaBRGAAEEEPCuQFVVlcQjCJtyp4Dcz6a69qpOW1tbTU1N7969vbs/Wmx57969a2pq2tra3DkPNU2T+1BNPo8qZaBFE2NDQ0OLj34CH3+tVpSAxJjP57kzqsW/16yOAAIIeEigvLxcyjkHG3GzgPTPpobDYdf297333quurvbQPiirqdXV1e+9955rx0XTtBL5nwvXDkGhhonGpV27dhXalLeWt7S05PN5EqOZUROdNLL+zLEdBBBAAAGnBPjfUjPHS6+tI/e+qS68dWqXAWltbV28eHEp/Cd4eXn54sWLXb4XS4+LgUCA+6N2mfOmfxU9+ScxBly+v5meCsZXFJ00Tp3fUC8CCCCAgCwBjn3Gj5KeLhmPx2XNmfbtuO15G91H58SJE2vWrBk7dqzcjrtka2PGjFmzZs2JEye6d9xtS+Q+SyMQCMTjcbf10bvtET35JzGSGIU/x+uSP5o0AwEEEEDAtACJ0buneqItl/stskAg4JUvktXX18v9SKTp3U3KitFotL6+XnT0nSovPS6Gw2HujypxNEmMwvmHo6bopJHyh4+NIIAAAgg4KMCxT+K5l8s3lcvlpM80D13teffddx966CHvPkKssrLyoYceevfdd10+zTo3L5FIyJ1yrr1bb+dee+u16Mk/1xi5xiicseX+FWBrCCCAAALqBUiM3jq9s9hauQ/baJ+uHgqN7Xo7duxYsWLFuHHj1O9uJmocN27cihUrduzYYXHo1a8uPS4GAoFUKqW+I/6ukcQonH84aopOGhN/+FgFAQQQQMBVAhz7/H062L130j8l6N3vle3cuTOZTEYikb59+7pqr+zbt28kEkkmkzt37uw+gp5YYkdc9Nz/TXhipERP/rnGyDVG4Yztqj+vNAYBBBBAwIQAidETZ3VyGxmJRExMleKrxGIxuY1UvLVXXnnlkUcemTFjxqBBg4r31KZ3Bw0aNH369BUrVrzyyiuK+y63Ok3T7PhfCb6+KHeYOrZGYhTOPxw1RSeNTX802SwCCCCAgDIBjn0dZ06l80LTtFAoJH2Ouf/uqQaHuKWlZd26ddXV1ePHj7cDql0+FAqNHz++urp63bp17Y+GM9g8NxezKS6GQqFcLufmjnu3baIn/1xj5BqjcMZubGxs5QcBBBBAwE0CjY2NQkmAxOjdUz0rLc9ms0LzxGBh34TGzrZtbW3bt2+vr69fvXr1HXfcEY1Gv/KVr4wePXrEiBFnn332GWec0atXry4+vXr1OuOMMwYOHDh8+PAvfvGLlZWV0Wj0jjvuWL16dX19/fbt29va2jpX4Y/Xdjx3MRAIBIPBTCbjDyIX9oLEKJx/OGqKThrEXLjn0yQEEChxAf6Sl/gEMN79TCbTJedI+bU0Pz145MiRffv2vf/++/v27Tty5IjxUfBNSZviIne7sXuGiB4yuMbINUYytt17JdtHAAEEbBcQPfzzf3+2D4mLK0gmk1JSYpeN8AgEF4+5LU3LZrM2fXyXu93YMmCdNip6yCAxkhhJjJ12IF4igAAC3hQQPfyTGL05ztJabcdNSvgkobTh8cKGMplMMBjs8r8GUn4lLioYf9FDBomRxEhiVLBjUgUCCCBgr4Do4Z/EaO94eGHrdtw6tT0wJJNJLwDQRvMCyWTSprgYi8U0TTPfMtY0JiB6yCAxkhhJjMb2LUohgAACLhYQPfyTGF08mOqaZl9ojEaj6rpBTQoFbLotavv/NZTmt2EVjt6nVYkeMkiMJEYS46f7D68QQAABjwqIHv5JjB4daLnN1jQtHA5L+SRh942Ew2EejSB3vBzfWjabte9/GYiLKsdX9JBBYiQxkhhV7qHUhQACCNgiIHr4JzHaMgwe3KitoZE7XnpwRhRssn1fXAwEAsTFgu72vCF6yCAxkhhJjPbsi2wVAQQQUCggevgnMSocHLdXZXdo5EYmbp8BPbVP07R4PN79MrKsJVyO7mkE5L8vesggMZIYSYzy90O2iAACCCgWED38kxgVD5DLq7M7NIbD4Ww263IEmqcrkM1m7fvocvvVRT69rCtv60LRQwaJkcRIYrR1l2TjCCCAgAoB0cM/iVHFqHiqDrtD48fXoxKJhKdISr2xmqbZd0/U9uuTXF10apKJHjJIjCRGEqNTeyv1IoAAAtIERA//JEZp9D7akILQSELwynzJZrPRaFTW5051t8NkcHAyiB4ySIwkRuHE2NjY2MoPAggggICbBBobG3XPyQotJDE6eK7m5qoVhMZAIMA3G10+B+LxuE2PW+z4i8StbpydA6KJ0TeHjJaWlnw+H8jnhfOPbwhMzzzRSdOxt/MCAQQQQMCjAhz7TB80fb+imtDINxvdOZEymYyt31ps/4NJXHR89EVP/n1zyCAxmp97opPGo6dHNBsBBBBAoEPAN4d/8wc/1iwqYN9j9zomYSAQiMVi3PWk6Dioe7P9hqh2X1oMBAKRSETTNHUdoyY9AdGTf98cMkiMetPB2DLRSdP5bz2vEUAAAQS8KOCbw7+xAx2lzAjEYjE1c5s74pgZHnnraPbf4aZjIsXjceKivKEzvyXRk3/fHDJIjOomTcduzwsEEEAAAY8K+Obwb/7gx5oGBBKJhJoZHg6HU6mUgRZRRLKAmo+hts8i/mtA8uBZ2ByJke8xCk8f0Umj5uBBLQgggAAC9gmQGIUPlqW6Qjqdtm8edtlyOBxOp9OlKq263yqzYjAY5H8EVA9w0fpET/59c8jgGmPReVH0TdFJ0+XvO78igAACCHhOwDeH/6LHN96UI5DNZhV8va1jJ4pEIny5Uc7IFdhKJpOx+8kZHaMZCASCwSD/EVBgKBxbLHry75tDBonR/JwTnTSd/wrwGgEEEEDAiwK+OfybP/ixpoiAmhuodt6VotFoJpMRaSNlexZQnBUDgQAPXex5VJwoIXry75tDBonR/HQTnTSd/6DzGgEEEEDAiwK+OfybP/ixpriAsnvhdOxTkUiETzOKD5TOGplMRs39bzvGLhAIRKNR7nOjMxguWCR68u+bQwaJ0dLsKy8v77yH8xoBBBBAwMcC5eXllo4ZrFzCAslkUv2uwX1xTM84TdNUfl+xY24Eg8FkMmm62axotwCJkTvfmJljVVVVHTs5LxBAAAEE/C1QVVVl5lDBOgh8IpDNZkOhkCP7SDwe5yuOBqehpmmJRMKRkeKLiwbHyMFiJEYSo5npV1NT48iffipFAAEEEFAvUFNTY+ZQwToI/J+Apmkqb53SZR+JRqN8VPX/hqLrv+0XFaPRqMqbFXUeoEgkwidRu46K+34nMZIYTc7KysrKzjs8rxFAAAEEfClQWVlp8jjBagicLODIJ1Q775XxeDybzZ7cqNL9LZPJOHVRsX1Q+CSqhyYfiZHEaHK6NjU1df4rzGsEEEAAAV8KNDc3mzxOsBoC3QSy2Ww4HHZ2T/m4AYlEomQ/rZrL5RKJhBtGgfTebf9w7wISI4nR/Oxsbm7mSqOzhz1qRwABBOwTqKysbGpqMn+QYE0ECgjE43H75q3xLUcikdK56pjNZt0QFNsftxiPx/kkaoGdw6WLSYwkRqtTs6ampqqqirunGj9EURIBBBBws0B5eXlVVRXfXbR6dGT9ogIO3g6n+94XDAbj8bj/nhrf/h1FlwTFdvZwOOw/56Iz3SdvkhhJjNKmcis/CCCAAALeF5B2VGBDCPQkkEgkuuc3Z5d8fIeeRCKRyWR6artL3++cEp26mY3uCLZ/a5FLiy6dNz01i8RIYuxpjvA+AggggAACCCBgj4Abvtmom3DaHyjffu3R5V961DQtnU63X0t0VUrsgI1EInxr0Z4dSNFWSYwkRkVTjWoQQAABBBBAAAFdAcdvo9qRbYq8iEaj8Xg8lUo5ewVS07RsNtseESORiDsjYgcjlxZ1J7znFpIYSYyem7Q0GAEEEEAAAQT8JqBpWiwW60ga7n8RCoWi0ejHbU4kEu0xUu6lSE3TcrlcezhMJpPxeDwSiYRCIffLdLQwFovJNfHbpPdOf0iMJEbvzFZaigACCCCAAAK+FnDzh1Q7glCPL0KhUDgcjn7yE4vF4p/8fPylTd2f9ndjsVg0Go1EIuFwOBQKufzKYY8CfAzVZ7spiZHE6LMpTXcQQAABBBBAwNsCqVTKWxfTekxQpVMgFAolk0lvzz9a302AxEhi7DYpWIAAAggggAACCDgt4IkvN5ZOFOyxp3xl0ek9xsb6SYwkRhunF5tGAAEEEEAAAQSsCJAbe4xqjhcgK1qZ4Z5Yl8RIYvTERKWRCCCAAAIIIFC6AuRGx2OhbgM+/r5lIpHgKYu+3zNJjCRG309yOogAAggggAACfhAgN+rGNkcWkhX9sEcZ7gOJkcRoeLJQEAEEEEAAAQQQcFogmUxyXxxHUmJ7pXwG1ek9wIH6SYwkRgemHVUigAACCCCAAAJWBMiN6kNjJBJJJpN8BtXKvPXouiRGEqNHpy7NRgABBBBAAIFSF8hkMrFYTH12Kqkag8Egz1cs8T2NxEhiLPFdgO4jgAACCCCAgLcFNE3jkqMdIfbjT/8mEolcLuft+UHrLQuQGEmMlicRG0AAAQQQQAABBFwgkE6nueRoPTp2XFTkA6gumNSuaAKJkcToiolIIxBAAAEEEEAAAVkCyWQyEolYz04ltYX2oMg3FWVNQj9th8RIYvTTfKYvCCCAAAIIIIDAPwTaP61KdOwx97bf0oZPn7LnFBIgMZIYC80NliOAAAIIIIAAAn4QIDp2D40dVxQJin6Y4jb3gcRIYrR5irF5BBBAAAEEEEDANQLt33X8+AH03UNUKSwJBoOxWCydTvMdRddMSQ80hMRIYvTANKWJCCCAAAIIIICAXIFMJlMiX3dsv5yYSCSy2axcQ7ZWIgIkRhJjiUx1uokAAggggAACCOgLpNPpZDIZjUZ9c+0xGAxGo9H2lMjlRP1RZ6lhARIjidHwZKEgAggggAACCCDgd4FcLpdOpxOJRCQS8VCA7LiQmMlk+Gqi3yep6v6RGEmMqucc9SGAAAIIIIAAAl4R0DSt/QpkPB53T4Zsz4fxeDyZTGYyGa4iemU6ebSdJEYSo0enLs1GAAEEEEAAAQScEei4DplIJGKxWCQSCYVC0m+cEwwGw5/8RKPRjnCYzWbJh86MegnXSmIkMZbw9KfrCCCAAAIIIICAVIFcLpfNZjOZTDqdTn3yk0wmE4V/kp/8tJfMfPKTzWZzuRyxUOqwsDFLAiRGEqOlCcTKCCCAAAIIIIAAAggg4GMBEiOJ0cfTm64hgAACCCCAAAIIIICAJQESI4nR0gRiZQQQQAABBBBAAAEEEPCxAImRxOjj6U3XEEAAAQQQQAABBBBAwJIAiZHEaGkCsTICCCCAAAIIIIAAAgj4WIDESGL08fSmawgggAACCCCAAAIIIGBJgMRIYrQ0gVgZAQQQQAABBBBAAAEEfCxAYiQx+nh60zUEEEAAAQQQQAABBBCwJEBiJDFamkCsjAACCCCAAAIIIIAAAj4WIDGSGH08vekaAggggAACCCCAAAIIWBIgMZIYLU0gVkYAAQQQQAABBBBAAAEfC5AYSYw+nt50DQEEEEAAAQQQQAABBCwJkBhJjJYmECsjgAACCCCAAAIIIICAjwVIjCRGH09vuoYAAggggAACCCCAAAKWBEiMJEZLE4iVEUAAAQQQQAABBBBAwMcCJEYSo4+nN11DAAEEEEAAAQQQQAABSwIkRhKjpQnEyggggAAJ7Mv1AAAdHUlEQVQCCCCAAAIIIOBjARIjidHH05uuIYAAAggggAACCCCAgCUBEiOJ0dIEYmUEEEAAAQQQQAABBBDwsQCJkcTo4+lN1xBAAAEEEEAAAQQQQMCSAImRxGhpArEyAggggAACCCCAAAII+FiAxEhi9PH0pmsIIIAAAggggAACCCBgSYDESGK0NIFYGQEEEEAAAQQQQAABBHwsQGIkMfp4etM1BBBAAAEEEEAAAQQQsCRAYiQxWppArIwAAggggAACCCCAAAI+FiAxkhh9PL3pGgIIIIAAAggggAACCFgSIDGSGC1NIFZGAAEEEEAAAQQQQAABHwuQGEmMPp7edA0BBBBAAAEEEEAAAQQsCZAYSYyWJhArI4AAAggggAACCCCAgI8FSIwkRh9Pb7qGAAIIIIAAAggggAAClgRIjCRGSxOIlRFAAAEEEEAAAQQQQMDHAiRGEqOPpzddQwABBBBAAAEEEEAAAUsCJEYSo6UJxMoIIIAAAggggAACCCDgYwESI4nRx9ObriGAAAIIIIAAAggggIAlARIjidHSBGJlBBBAAAEEEEAAAQQQ8LEAiZHE6OPpTdcQQAABBBBAAAEEEEDAkgCJkcRoaQKxMgIIIIAAAggggAACCPhYgMRIYvTx9KZrCCCAAAIIIIAAAgggYEmAxEhitDSBWBkBBBBAAAEEEEAAAQR8LEBiJDH6eHrTNQQQQAABBBBAAAEEELAkQGIkMVqaQKyMAAIIIIAAAggggAACPhYgMZIYfTy96RoCCCCAAAIIIIAAAghYEiAxkhgtTSBWRgABBBBAAAEEEEAAAR8LkBhJjD6e3nQNAQQQQAABBBBAAAEELAmQGEmMliYQKyOAAAIIIIAAAggggICPBUiMJEYfT2+6hgACCCCAAAIIIIAAApYESIwkRksTiJURQAABBBBAAAEEEEDAxwIkRhKjj6c3XUMAAQQQQAABBBBAAAFLAiRGEqOlCcTKCCCAAAIIIIAAAggg4GMBEiOJ0cfTm64hgAACCCCAAAIIIICAJQESI4nR0gRiZQQQQAABBBBAAAEEEPCxAImRxOjj6U3XEEAAAQQQQAABBBBAwJIAiZHEaGkCsTICCCCAAAIIIIAAAgj4WIDESGL08fSmawgggAACCCCAAAIIIGBJgMRIYrQ0gVgZAQQQQAABBBBAAAEEfCxAYiQx+nh60zUEEEAAAQQQQAABBBCwJEBiJDFamkCsjAACCCCAAAIIIIAAAj4WIDGSGH08vekaAggggAACCCCAAAIIWBIgMZIYLU0gVkYAAQQQQAABBBBAAAEfC5AYSYw+nt50DQEEEEAAAQQQQAABBCwJkBhJjJYmECsjgAACCCCAAAIIIICAjwVIjCRGH09vuoYAAggggAACCCCAAAKWBEiMJEZLE4iVEUAAAQQQQAABBBBAwMcCJEYSo4+nN11DAAEEEEAAAQQQQAABSwIkRhKjpQnEyggggAACCCCAAAIIIOBjARIjidHH05uuIYAAAggggAACCCCAgCUBEiOJ0dIEYmUEEEAAAQQQQAABBBDwsQCJkcTo4+lN1xBAAAEEEEAAAQQQQMCSAImRxGhpArEyAggggAACCCCAAAII+FiAxEhi9PH0pmsIIIAAAggggAACCCBgSYDEKJwYGxsbW/lBAAEEEEAAAQQQQAABBEpAoLGxMSDy09raaimhumbllpaWfD4fyOeFE6MIF2URQAABBBBAAAEEEEAAgRISIDGW0GDTVQQQQAABBBBAAAEEEEBASIDEKMRFYQQQQAABBBBAAAEEEECghARIjCU02HQVAQQQQAABBBBAAAEEEBASIDEKcVEYAQQQQAABBBBAAAEEECghARJjCQ02XUUAAQQQQAABBBBAAAEEhARIjEJcFEYAAQQQQAABBBBAAAEESkiAxFhCg01XEUAAAQQQQAABBBBAAAEhAR8mxnw+X15eLqRAYQQQQAABBBBAAAEEEEAAgS4C5eXleb/8tLS05PP5QHt3qqqqunSVXxFAAAEEEEAAAQQQQAABBIQEqqqq/BIY8yclxpqaGiEICiOAAAIIIIAAAggggAACCHQRqKmp8WdizOfzlZWVXXrLrwgggAACCCCAAAIIIIAAAgYFKisrfRMX8/mTrzHm8/mmpiaDEBRDAAEEEEAAAQQQQAABBBDoItDc3OznxJjP55ubm7nS2GXU+RUBBBBAAAEEEEAAAQQQKC5QWVnZ1NTkp7ioc42xo3s1NTVVVVXcPbX4nOBdBBBAAAEEEEAAAQQQKHGB8vLyqqoqP313sSMVFkuMHYUaGhpa+UEAAecE2Aeds6dmBP4uwD7IPEDAWQH2QWf9qd2IQEd08uWLk+6VqtvD9hK6b7EQAQQUCLAPKkCmCgSKCLAPFsHhLQQUCLAPKkCmCgSKCLTvg/94HqNuOfZSXRYWIqBMgH1QGTUVIaArwD6oy8JCBJQJsA8qo6YiBHQF2vdBEqMuDgsRcIUAR0pXDAONKGEB9sESHny67goB9kFXDAONKGEBEmMJDz5d94gAR8r/397dg1h1bQEAvkxMmiCkSSyE4A8SVAaEJDCQRpCkCYJNgmATGJJGkDQpxEaQVDITmwSGNCkGG0FSCTKIU0gaC60EX5ohGJsUE4wYUMh55CW+ccY795597/nZP5+NM/eec/Za39qLfdbLey+JFEqY2QrowWxLK7FEBPRgIoUSZrYCJsZsSyuxbASclNmUUiKJCujBRAsn7GwE9GA2pZRIogImxkQLJ+yCBJyUBRVbqlEK6MEoyyKoggT0YEHFlmqUAibGKMsiKAIvCDgpX8DwI4EeBPRgD+iWJPCCgB58AcOPBHoQyH9irPNvUHENgZgF/HuoYq6O2EoQ0IMlVFmOMQvowZir02BsPUxClqwnkOfEuL6+vrCwMDs7+8orrwz8IUCAAAECBAgQIEAgboGZmZnZ2dmFhYX19fV6g4yrOhLIcGK8cePG/v374+4I0REgQIAAAQIECBAgMERg//79KysrHQ1DlqkhkNvEePPmzSH7zkcECBAgQIAAAQIECKQjcPPmzRqzjEu6EMhqYvzjjz/27t2bTiOIlAABAgQIECBAgACBIQJ79ux5/PhxF/OQNcYJZDUxLi4uDtluPiJAgAABAgQIECBAIDWBhYWFcbOM77sQyGpiPHjwYGqNIF4CBAgQIECAAAECBIYIHDp0qIt5yBrjBLKaGP0/ow5pNR8RIECAAAECBAgQSFBgZmbmr7/+GjfO+L51gXwmxl9++SXBRhAyAQIECBAgQIAAAQLDBX799dfW5yELjBPIZ2KsqmpmZmb4XvMpAQIECBAgQIAAAQKpCfhnjOOmuS6+z2piPHLkSGpdIF4CBAgQIECAAAECBIYIvPvuu13MQ9YYJ5DVxLiwsDBkr/mIAAECBAgQIECAAIHUBC5evDhulvF9FwJZTYy///77G2+8kVoviJcAAQIECBAgQIAAgU0CO3fuXF9f72IessY4gawmxqqqLl68uGmv+YUAAQIECBAgQIAAgdQELly4MG6Q8X1HArlNjFVVHThwILWOEC8BAgQIECBAgAABAv8K7Nq16+nTpx3NQ5YZJ5DhxPjDDz/oNgIECBAgQIAAAQIEEhVYXFwcN8X4vjuBDCfGqqo++OCD0PaYn59f84cAAQIECBAgQIAAgeYElpaWQl/L9+3b190wZKUaAnlOjNeuXQvdmoPB4N69ezXEXEKAAAECBAgQIECAQC2Bubm50NfypaWlWo92UVcCeU6MVVWdOHEidHeeOnWqK3brECBAgAABAgQIEMhcYHl5OfSFfHZ2NnOUBNPLdmK8fft26AYdDAarq6sJFlHIBAgQIECAAAECBKITmJ2dDX0hX15eji6N4gPKdmKsqurzzz8P3aMfffRR8VsCAAECBAgQIECAAIFpBSb4XzDOzc1Nu6r7WxDIeWJcW1sLnRgHg8GVK1dacPZIAgQIECBAgAABAgUJ7Nu3L/RV/OrVqwUBpZNqzhNjVVXnzp0L3alHjhxJp3wiJUCAAAECBAgQIBCdwOLiYuhL+LFjx6JLQ0D/E8h8Ynzy5Mmbb74Zul+/++4724MAAQIECBAgQIAAgQkEnj59umvXrtA38OvXr0+wlls6EMh8Yqyq6tKlS6H7dffu3c+ePetA3xIECBAgQIAAAQIEMhO4cOFC6Ov38ePHM0PIKZ38J8aqqg4fPhy6a8+fP59TmeVCgAABAgQIECBAoAOB9fX1nTt3hr5737p1q4PYLDGZQBET4+XLl0N37Wuvvfbw4cPJTN1FgAABAgQIECBAoEyBs2fPhr54nzx5skyrVLIuYmKsquro0aOhe/f06dOpVFGcBAgQIECAAAECBHoXePDgwczMTOhb9507d3qPXAAjBEqZGFdWVkL37mAwuHv37gg7XxEgQIAAAQIECBAg8H+BM2fOhL5yz8/P//92P8QpUMrEWFXVJ598ErqDP/300zjLJioCBAgQIECAAAECUQncv38/9GV7MBjcv38/qiwE87JAQRPj3bt3J9jEKysrL6v5hAABAgQIECBAgACBFwXm5+dDX7bPnDnz4hP8HKdAQRNjVVWnT58O3cdHjx6Ns3KiIkCAAAECBAgQIBCJwJ07d0Jfs2dmZh48eBBJ/MIYIVDWxPjw4cNXX301dDdfvnx5hKCvCBAgQIAAAQIECBQucPLkydB37LNnzxaOlkr6ZU2MVVWdP38+dDcfPnw4lXKKkwABAgQIECBAgEDHArdu3Qp9wd65c+f6+nrHcVpuMoHiJsZnz57t3r07dE9funRpMl93ESBAgAABAgQIEMhb4Pjx46Fv1xcuXMjbJKfsipsYq6r69ttvQ/f0W2+99eTJk5wKLxcCBAgQIECAAAEC0wtcv3499NV6165dT58+nX5pT+hGoMSJsaqqI0eOhO7sc+fOdVMSqxAgQIAAAQIECBBIReDYsWOh79WLi4upZCfOqqoKnRivXLkSurMHg8Ha2ppNQ4AAAQIECBAgQIDAPwJXr14Nfanet28fvbQECp0Yq6r68MMPQ/f3F198kVZ1RUuAAAECBAgQIECgPYG5ubnQN+qlpaX24vHkNgTKnRhXV1dD9/dgMLh9+3YbZfBMAgQIECBAgAABAmkJLC8vh75Oz87OppWjaMv9b6X+U/tTp06F7vITJ07YNwQIECBAgAABAgQIzM7Ohr5LLy8vc0tOoNx/xlhV1b1790J3+WAwuHbtWnJlFjABAgQIECBAgACBBgWWlpZCX6Tn5uYaDMCjOhMoemKsqurLL78M3evvvffemj8ECBAgQIAAAQIEChZ4++23Q9+ir1692tmQY6EGBUqfGH/77bfXX389dLu7ngABAgQIECBAgACB+gLHjh1rcIbxqC4FSp8Yq6r6+uuv6+91VxIgQIAAAQIECBAgECpw/fr1LoccazUoYGL8G3PPnj2hm971BAgQIECAAAECBAjUETh+/HiDA4xHdSxgYvwb/Pvvv6+z111DgAABAgQIECBAgECowK1btzoecizXoICJ8V/M999/P3Tru54AAQIECBAgQIAAgdECJ0+ebHB68ajuBUyM/5r/+OOPo/e6bwkQIECAAAECBAgQCBW4c+dO90OOFRsUMDFuYH788cehDeB6AgQIECBAgAABAgS2E5ifn9942/ZTmgImxo26/fTTT9vtdZ8TIECAAAECBAgQIBAqcP/+/Y23bT+lKWBi3FS3zz77LLQNXE+AAAECBAgQIECAwMsCZ86c2fSq7Zc0BUyMm+r2888/v7zXfUKAAAECBAgQIECAQJDAzMzMgwcPNr1q+yVNARPj1rp99dVXQc3gYgIECBAgQIAAAQIEtgicPXt263u239MUMDFurdujR48OHDiwZcf7lQABAgQIECBAgACBmgLvvPPOn3/+ufU92+9pCpgYh9Ttxo0bNZvBZQQIECBAgAABAgQIbBFYWVkZ8pLtozQFTIzD63bz5s29e/du2fp+JUCAAAECBAgQIEBghMCePXtWV1eHv2H7NE0BE+O2dXv06NHi4uKhQ4d27Ngxoit8RYAAAQIECBAgQKBwgR07dhw8ePCbb755/Pjxtq/XvkhTwMRYq25r/hDoT2B1dbW/xa1MgMCaHrQJCPQroAf79a+5eq1XahelKWBiTLNuoi5J4J8uLSljuRKIS0APxlUP0ZQnoAfLq7mM4xIwMcZVD9EQeFnASfmyiU8IdCmgB7vUthaBlwX04MsmPiHQpYCJsUttaxGYRMBJOYmaewg0J6AHm7P0JAKTCOjBSdTcQ6A5ARNjc5aeRKAdASdlO66eSqCugB6sK+U6Au0I6MF2XD2VQF0BE2NdKdcR6EvASdmXvHUJ/COgB+0EAv0K6MF+/a1OwMRoDxCIXcBJGXuFxJe7gB7MvcLyi11AD8ZeIfHlLmBizL3C8ktfwEmZfg1lkLaAHky7fqJPX0APpl9DGaQtYGJMu36iL0HASVlCleUYs4AejLk6YitBQA+WUGU5xixgYoy5OmIj8LeAk9I+INCvgB7s19/qBPSgPUCgXwETY7/+VicwXsBJOd7IFQTaFNCDbep6NoHxAnpwvJErCLQpYGJsU9ezCTQh4KRsQtEzCEwuoAcnt3MngSYE9GATip5BYHIBE+Pkdu4k0I2Ak7IbZ6sQ2E5AD24n43MC3QjowW6crUJgOwET43YyPicQi4CTMpZKiKNUAT1YauXlHYuAHoylEuIoVcDEWGrl5Z2OgJMynVqJNE8BPZhnXWWVjoAeTKdWIs1TwMSYZ11llZOAkzKnasolRQE9mGLVxJyTgB7MqZpySVHAxJhi1cRcloCTsqx6yzY+AT0YX01EVJaAHiyr3rKNT8DEGF9NRERgs4CTcrOH3wh0LaAHuxa3HoHNAnpws4ffCHQtYGLsWtx6BEIFnJShYq4n0KyAHmzW09MIhArowVAx1xNoVsDE2KynpxFoXsBJ2bypJxIIEdCDIVquJdC8gB5s3tQTCYQImBhDtFxLoA8BJ2Uf6tYksCGgBzcs/ESgDwE92Ie6NQlsCJgYNyz8RCBOASdlnHURVTkCerCcWss0TgE9GGddRFWOgImxnFrLNFUBJ2WqlRN3LgJ6MJdKyiNVAT2YauXEnYuAiTGXSsojXwEnZb61lVkaAnowjTqJMl8BPZhvbWWWhoCJMY06ibJkASdlydWXewwCejCGKoihZAE9WHL15R6DgIkxhiqIgcAoASflKB3fEWhfQA+2b2wFAqME9OAoHd8RaF/AxNi+sRUITCfgpJzOz90EphXQg9MKup/AdAJ6cDo/dxOYVsDEOK2g+wm0LeCkbFvY8wmMFtCDo318S6BtAT3YtrDnExgtYGIc7eNbAv0LOCn7r4EIyhbQg2XXX/b9C+jB/msggrIFTIxl11/2KQg4KVOokhhzFtCDOVdXbikI6MEUqiTGnAVMjDlXV255CDgp86ijLNIV0IPp1k7keQjowTzqKIt0BUyM6dZO5KUIOClLqbQ8YxXQg7FWRlylCOjBUiotz1gFTIyxVkZcBJ4LOCmfS/ibQD8CerAfd6sSeC6gB59L+JtAPwImxn7crUqgvoCTsr6VKwm0IaAH21D1TAL1BfRgfStXEmhDwMTYhqpnEmhSwEnZpKZnEQgX0IPhZu4g0KSAHmxS07MIhAuYGMPN3EGgWwEnZbfeViOwVUAPbhXxO4FuBfRgt95WI7BVwMS4VcTvBGITcFLGVhHxlCagB0uruHxjE9CDsVVEPKUJmBhLq7h80xNwUqZXMxHnJaAH86qnbNIT0IPp1UzEeQmYGPOqp2xyFHBS5lhVOaUkoAdTqpZYcxTQgzlWVU4pCZgYU6qWWMsUcFKWWXdZxyOgB+OphUjKFNCDZdZd1vEImBjjqYVICAwXcFIOd/Epga4E9GBX0tYhMFxADw538SmBrgRMjF1JW4fApAJOyknl3EegGQE92IyjpxCYVEAPTirnPgLNCJgYm3H0FALtCTgp27P1ZAJ1BPRgHSXXEGhPQA+2Z+vJBOoImBjrKLmGQJ8CTso+9a1NoKr0oF1AoF8BPdivv9UJmBjtAQKxCzgpY6+Q+HIX0IO5V1h+sQvowdgrJL7cBUyMuVdYfukLOCnTr6EM0hbQg2nXT/TpC+jB9Gsog7QFTIxp10/0JQg4KUuoshxjFtCDMVdHbCUI6MESqizHmAVMjDFXR2wE/hZwUtoHBPoV0IP9+ludgB60Bwj0K2Bi7Nff6gTGCzgpxxu5gkCbAnqwTV3PJjBeQA+ON3IFgTYFTIxt6no2gSYEnJRNKHoGgckF9ODkdu4k0ISAHmxC0TMITC5gYpzczp0EuhFwUnbjbBUC2wnowe1kfE6gGwE92I2zVQhsJ2Bi3E7G5wRiEXBSxlIJcZQqoAdLrby8YxHQg7FUQhylCpgYS628vNMRcFKmUyuR5imgB/Osq6zSEdCD6dRKpHkKmBjzrKuschJwUuZUTbmkKKAHU6yamHMS0IM5VVMuKQqYGFOsmpjLEnBSllVv2cYnoAfjq4mIyhLQg2XVW7bxCZgY46uJiAhsFnBSbvbwG4GuBfRg1+LWI7BZQA9u9vAbga4FTIxdi1uPQKiAkzJUzPUEmhXQg816ehqBUAE9GCrmegLNCpgYm/X0NALNCzgpmzf1RAIhAnowRMu1BJoX0IPNm3oigRABE2OIlmsJ9CHgpOxD3ZoENgT04IaFnwj0IaAH+1C3JoENARPjhoWfCMQp4KSMsy6iKkdAD5ZTa5nGKaAH46yLqMoRMDGWU2uZpirgpEy1cuLORUAP5lJJeaQqoAdTrZy4cxEwMeZSSXnkK+CkzLe2MktDQA+mUSdR5iugB/OtrczSEDAxplEnUZYs4KQsufpyj0FAD8ZQBTGULKAHS66+3GMQMDHGUAUxEBgl4KQcpeM7Au0L6MH2ja1AYJSAHhyl4zsC7QuYGNs3tgKB6QSclNP5uZvAtAJ6cFpB9xOYTkAPTufnbgLTCpgYpxV0P4G2BZyUbQt7PoHRAnpwtI9vCbQtoAfbFvZ8AqMFTIyjfXxLoH8BJ2X/NRBB2QJ6sOz6y75/AT3Yfw1EULaAibHs+ss+BQEnZQpVEmPOAnow5+rKLQUBPZhClcSYs4CJMefqyi0PASdlHnWURboCejDd2ok8DwE9mEcdZZGugIkx3dqJvBQBJ2UplZZnrAJ6MNbKiKsUAT1YSqXlGauAiTHWyoiLwHMBJ+VzCX8T6EdAD/bjblUCzwX04HMJfxPoR8DE2I+7VQnUF3BS1rdyJYE2BPRgG6qeSaC+gB6sb+VKAm0ImBjbUPVMAk0KOCmb1PQsAuECejDczB0EmhTQg01qehaBcAETY7iZOwh0K+Ck7NbbagS2CujBrSJ+J9CtgB7s1ttqBLYKmBi3ividQGwCTsrYKiKe0gT0YGkVl29sAnowtoqIpzQBE2NpFZdvegJOyvRqJuK8BPRgXvWUTXoCejC9mok4LwETY171lE2OAk7KHKsqp5QE9GBK1RJrjgJ6MMeqyiklARNjStUSa5kCTsoy6y7reAT0YDy1EEmZAnqwzLrLOh4BE2M8tRAJgeECTsrhLj4l0JWAHuxK2joEhgvoweEuPiXQlYCJsStp6xCYVMBJOamc+wg0I6AHm3H0FAKTCujBSeXcR6AZARNjM46eQqA9ASdle7aeTKCOgB6so+QaAu0J6MH2bD2ZQB0BE2MdJdcQ6FPASdmnvrUJVJUetAsI9CugB/v1tzoBE6M9QCB2ASdl7BUSX+4CejD3CssvdgE9GHuFxJe7gIkx9wrLL30BJ2X6NZRB2gJ6MO36iT59AT2Yfg1lkLaAiTHt+om+BAEnZQlVlmPMAnow5uqIrQQBPVhCleUYs8C/E+N//CFAgAABAgQIECBAgAABAsMEBiOGWv+5zggcXxHoQEAPdoBsCQIjBPTgCBxfEehAQA92gGwJAiME/unB/wLsB1jx/FjcqQAAAABJRU5ErkJggg==;" parent="IKqkC-VqAS8bh-hIaz8--111" vertex="1">
          <mxGeometry x="1496.0600000000002" y="827.56" width="78.74" height="39.27" as="geometry" />
        </mxCell>
        <mxCell id="mVWykb73rqQKBAf5Biol-17" value="Projector" style="text;html=1;strokeColor=none;fillColor=none;align=center;verticalAlign=middle;whiteSpace=wrap;rounded=0;dashed=1;fillStyle=auto;strokeWidth=2;fontFamily=Arial;fontSize=14;fontStyle=2" parent="IKqkC-VqAS8bh-hIaz8--111" vertex="1">
          <mxGeometry x="1494.4275000000005" y="861.1374999999998" width="80" height="30" as="geometry" />
        </mxCell>
        <mxCell id="mVWykb73rqQKBAf5Biol-18" value="Switch 1" style="text;html=1;strokeColor=none;fillColor=none;align=center;verticalAlign=middle;whiteSpace=wrap;rounded=0;dashed=1;fillStyle=auto;strokeWidth=2;fontFamily=Arial;fontSize=14;fontStyle=2" parent="IKqkC-VqAS8bh-hIaz8--111" vertex="1">
          <mxGeometry x="1446.8500000000004" y="460.45999999999975" width="80" height="30" as="geometry" />
        </mxCell>
        <mxCell id="mVWykb73rqQKBAf5Biol-19" value="Switch 2" style="text;html=1;strokeColor=none;fillColor=none;align=center;verticalAlign=middle;whiteSpace=wrap;rounded=0;dashed=1;fillStyle=auto;strokeWidth=2;fontFamily=Arial;fontSize=14;fontStyle=2" parent="IKqkC-VqAS8bh-hIaz8--111" vertex="1">
          <mxGeometry x="1416.0625000000005" y="624.4024999999997" width="80" height="30" as="geometry" />
        </mxCell>
        <mxCell id="mVWykb73rqQKBAf5Biol-20" value="Router" style="text;html=1;strokeColor=none;fillColor=none;align=center;verticalAlign=middle;whiteSpace=wrap;rounded=0;dashed=1;fillStyle=auto;strokeWidth=2;fontFamily=Arial;fontSize=14;fontStyle=2" parent="IKqkC-VqAS8bh-hIaz8--111" vertex="1">
          <mxGeometry x="1092.5125000000005" y="540.0424999999997" width="80" height="30" as="geometry" />
        </mxCell>
        <mxCell id="mVWykb73rqQKBAf5Biol-21" value="Server" style="text;html=1;strokeColor=none;fillColor=none;align=center;verticalAlign=middle;whiteSpace=wrap;rounded=0;dashed=1;fillStyle=auto;strokeWidth=2;fontFamily=Arial;fontSize=14;fontStyle=2" parent="IKqkC-VqAS8bh-hIaz8--111" vertex="1">
          <mxGeometry x="1691.6525000000004" y="510.04249999999973" width="80" height="30" as="geometry" />
        </mxCell>
        <mxCell id="mVWykb73rqQKBAf5Biol-22" value="" style="endArrow=none;html=1;rounded=0;strokeWidth=3;fontFamily=Arial;fontSize=14;exitX=0;exitY=1;exitDx=0;exitDy=0;align=center;fontStyle=2" parent="IKqkC-VqAS8bh-hIaz8--111" edge="1">
          <mxGeometry width="50" height="50" relative="1" as="geometry">
            <mxPoint x="836.6125" y="1456.6924999999999" as="sourcePoint" />
            <mxPoint x="916.6125" y="1456.6924999999999" as="targetPoint" />
          </mxGeometry>
        </mxCell>
        <mxCell id="mVWykb73rqQKBAf5Biol-23" value="" style="endArrow=none;html=1;rounded=0;strokeWidth=3;fontFamily=Arial;fontSize=14;exitX=0.5;exitY=0.98;exitDx=0;exitDy=0;align=center;fontStyle=2;exitPerimeter=0;" parent="IKqkC-VqAS8bh-hIaz8--111" source="0MDFwOMSwQNmZCORZw81-282" edge="1">
          <mxGeometry width="50" height="50" relative="1" as="geometry">
            <mxPoint x="1358.2649999999999" y="748.0349999999999" as="sourcePoint" />
            <mxPoint x="1890" y="748" as="targetPoint" />
            <Array as="points">
              <mxPoint x="1417" y="748" />
            </Array>
          </mxGeometry>
        </mxCell>
        <mxCell id="mVWykb73rqQKBAf5Biol-24" value="" style="endArrow=none;html=1;rounded=0;strokeWidth=1;fontFamily=Arial;fontSize=14;align=center;fontStyle=2;" parent="IKqkC-VqAS8bh-hIaz8--111" edge="1">
          <mxGeometry width="50" height="50" relative="1" as="geometry">
            <mxPoint x="1535" y="827" as="sourcePoint" />
            <mxPoint x="1535" y="748" as="targetPoint" />
          </mxGeometry>
        </mxCell>
        <mxCell id="mVWykb73rqQKBAf5Biol-25" value="" style="endArrow=none;html=1;rounded=0;strokeWidth=1;fontFamily=Arial;fontSize=14;align=center;fontStyle=2;" parent="IKqkC-VqAS8bh-hIaz8--111" edge="1">
          <mxGeometry width="50" height="50" relative="1" as="geometry">
            <mxPoint x="1693.1924999999999" y="827.5625" as="sourcePoint" />
            <mxPoint x="1693.1924999999999" y="748.5625" as="targetPoint" />
          </mxGeometry>
        </mxCell>
        <mxCell id="mVWykb73rqQKBAf5Biol-26" value="" style="endArrow=none;html=1;rounded=0;strokeWidth=1;fontFamily=Arial;fontSize=14;align=center;fontStyle=2;" parent="IKqkC-VqAS8bh-hIaz8--111" edge="1">
          <mxGeometry width="50" height="50" relative="1" as="geometry">
            <mxPoint x="1850" y="797" as="sourcePoint" />
            <mxPoint x="1850" y="748" as="targetPoint" />
          </mxGeometry>
        </mxCell>
        <mxCell id="mVWykb73rqQKBAf5Biol-27" value="" style="endArrow=none;html=1;rounded=0;strokeWidth=3;fontFamily=Arial;fontSize=14;exitX=0.5;exitY=0;exitDx=0;exitDy=0;align=center;fontStyle=2;exitPerimeter=0;" parent="IKqkC-VqAS8bh-hIaz8--111" source="mVWykb73rqQKBAf5Biol-4" edge="1">
          <mxGeometry width="50" height="50" relative="1" as="geometry">
            <mxPoint x="1417.0125" y="374.0125" as="sourcePoint" />
            <mxPoint x="1772" y="433" as="targetPoint" />
            <Array as="points">
              <mxPoint x="1417" y="433" />
            </Array>
          </mxGeometry>
        </mxCell>
        <mxCell id="mVWykb73rqQKBAf5Biol-28" value="" style="endArrow=none;html=1;rounded=0;strokeWidth=1;fontFamily=Arial;fontSize=14;align=center;fontStyle=2;" parent="IKqkC-VqAS8bh-hIaz8--111" target="OupxM0vO_hwoNVz3ZpiY-30" edge="1">
          <mxGeometry width="50" height="50" relative="1" as="geometry">
            <mxPoint x="1535" y="433" as="sourcePoint" />
            <mxPoint x="1476.3725" y="344.49249999999995" as="targetPoint" />
          </mxGeometry>
        </mxCell>
        <mxCell id="mVWykb73rqQKBAf5Biol-29" value="" style="endArrow=none;html=1;rounded=0;strokeWidth=1;fontFamily=Arial;fontSize=14;align=center;fontStyle=2;entryX=0.5;entryY=1;entryDx=0;entryDy=0;entryPerimeter=0;" parent="IKqkC-VqAS8bh-hIaz8--111" target="OupxM0vO_hwoNVz3ZpiY-31" edge="1">
          <mxGeometry width="50" height="50" relative="1" as="geometry">
            <mxPoint x="1693" y="433" as="sourcePoint" />
            <mxPoint x="1544.8425" y="364.8425" as="targetPoint" />
          </mxGeometry>
        </mxCell>
        <mxCell id="mVWykb73rqQKBAf5Biol-30" value="Примечание:&lt;div&gt;&lt;br&gt;В данном случае маршрутизатор является одновременно и модемом, и беспроводной точкой доступа.&lt;br&gt;&lt;/div&gt;" style="text;html=1;strokeColor=none;fillColor=none;align=left;verticalAlign=middle;whiteSpace=wrap;rounded=0;dashed=1;fillStyle=auto;strokeWidth=2;fontFamily=Arial;fontSize=14;fontStyle=2;container=0;" parent="IKqkC-VqAS8bh-hIaz8--111" vertex="1">
          <mxGeometry x="1574.8000000000002" y="1171.26" width="295.27" height="88.58" as="geometry" />
        </mxCell>
        <object label="Интерфейсы" id="9BwAd8rwPp-84XcoNZzX-187">
          <mxCell parent="0" />
        </object>
        <mxCell id="9BwAd8rwPp-84XcoNZzX-200" value="Беспроводные соединения" parent="0" />
        <mxCell id="IKqkC-VqAS8bh-hIaz8--4" style="edgeStyle=orthogonalEdgeStyle;rounded=0;orthogonalLoop=1;jettySize=auto;html=1;strokeWidth=1;fontFamily=Arial;fontSize=14;endArrow=none;endFill=0;dashed=1;align=center;fontStyle=2" parent="9BwAd8rwPp-84XcoNZzX-200" edge="1">
          <mxGeometry relative="1" as="geometry">
            <mxPoint x="919.37" y="1520" as="targetPoint" />
            <mxPoint x="839.37" y="1520" as="sourcePoint" />
          </mxGeometry>
        </mxCell>
        <mxCell id="9BwAd8rwPp-84XcoNZzX-199" value="Проводные соединения" parent="0" />
        <mxCell id="Ox5Po6O9_LgIOVLj1sJk-14" value="" style="endArrow=none;html=1;rounded=0;strokeWidth=1;fontFamily=Arial;fontSize=14;exitX=0;exitY=1;exitDx=0;exitDy=0;align=center;fontStyle=2" parent="9BwAd8rwPp-84XcoNZzX-199" edge="1">
          <mxGeometry width="50" height="50" relative="1" as="geometry">
            <mxPoint x="839.37" y="1590" as="sourcePoint" />
            <mxPoint x="919.37" y="1590" as="targetPoint" />
          </mxGeometry>
        </mxCell>
        <mxCell id="IKqkC-VqAS8bh-hIaz8--27" style="edgeStyle=orthogonalEdgeStyle;rounded=0;orthogonalLoop=1;jettySize=auto;html=1;strokeWidth=1;fontFamily=Arial;fontSize=14;endArrow=none;endFill=0;align=center;fontStyle=2;" parent="9BwAd8rwPp-84XcoNZzX-199" edge="1">
          <mxGeometry relative="1" as="geometry">
            <mxPoint x="1159.37" y="1520" as="targetPoint" />
            <mxPoint x="1079.37" y="1520" as="sourcePoint" />
          </mxGeometry>
        </mxCell>
        <mxCell id="IKqkC-VqAS8bh-hIaz8--6" style="edgeStyle=orthogonalEdgeStyle;rounded=0;orthogonalLoop=1;jettySize=auto;html=1;strokeWidth=1;fontFamily=Arial;fontSize=14;endArrow=none;endFill=0;align=center;fontStyle=2;" parent="9BwAd8rwPp-84XcoNZzX-199" edge="1">
          <mxGeometry relative="1" as="geometry">
            <mxPoint x="1159.37" y="1440" as="targetPoint" />
            <mxPoint x="1079.37" y="1440" as="sourcePoint" />
          </mxGeometry>
        </mxCell>
        <mxCell id="IKqkC-VqAS8bh-hIaz8--110" value="Устройства" parent="0" />
        <mxCell id="0MDFwOMSwQNmZCORZw81-290" value="" style="shape=mxgraph.cisco.servers.file_server;sketch=0;html=1;pointerEvents=1;dashed=0;fillColor=#000000;strokeColor=#E6E6E6;strokeWidth=2;verticalLabelPosition=bottom;verticalAlign=top;align=center;outlineConnect=0;fillStyle=auto;fontSize=23;fontFamily=Arial;fontStyle=2" parent="IKqkC-VqAS8bh-hIaz8--110" vertex="1">
          <mxGeometry x="590.55" y="1525.59" width="78.74" height="80" as="geometry" />
        </mxCell>
        <mxCell id="0MDFwOMSwQNmZCORZw81-252" value="" style="shape=mxgraph.cisco.routers.router;sketch=0;html=1;pointerEvents=1;dashed=0;fillColor=#000000;strokeColor=#E6E6E6;strokeWidth=2;verticalLabelPosition=bottom;verticalAlign=top;align=center;outlineConnect=0;fontSize=23;fillStyle=auto;aspect=fixed;fontFamily=Arial;fontStyle=2" parent="IKqkC-VqAS8bh-hIaz8--110" vertex="1">
          <mxGeometry x="590.55" y="1429.16" width="78.74" height="54.36" as="geometry" />
        </mxCell>
        <mxCell id="0MDFwOMSwQNmZCORZw81-282" value="" style="shape=mxgraph.cisco.switches.workgroup_switch;sketch=0;html=1;pointerEvents=1;dashed=0;fillColor=#000000;strokeColor=#E6E6E6;strokeWidth=2;verticalLabelPosition=bottom;verticalAlign=top;align=center;outlineConnect=0;fontSize=23;fillStyle=auto;aspect=fixed;fontFamily=Arial;fontStyle=2" parent="IKqkC-VqAS8bh-hIaz8--110" vertex="1">
          <mxGeometry x="1376.6899999999998" y="648.78" width="78.74" height="44.44" as="geometry" />
        </mxCell>
        <mxCell id="0MDFwOMSwQNmZCORZw81-284" value="" style="shape=mxgraph.cisco.computers_and_peripherals.pc;sketch=0;html=1;pointerEvents=1;dashed=0;fillColor=#000000;strokeColor=#E6E6E6;strokeWidth=2;verticalLabelPosition=bottom;verticalAlign=top;align=center;outlineConnect=0;fontSize=23;fillStyle=auto;aspect=fixed;fontFamily=Arial;fontStyle=2" parent="IKqkC-VqAS8bh-hIaz8--110" vertex="1">
          <mxGeometry x="1813.1599999999999" y="797.56" width="78.74" height="71.8" as="geometry" />
        </mxCell>
        <mxCell id="0MDFwOMSwQNmZCORZw81-283" value="" style="shape=mxgraph.cisco.computers_and_peripherals.laptop;sketch=0;html=1;pointerEvents=1;dashed=0;fillColor=#000000;strokeColor=#E6E6E6;strokeWidth=2;verticalLabelPosition=bottom;verticalAlign=top;align=center;outlineConnect=0;fillStyle=auto;fontSize=23;aspect=fixed;fontFamily=Arial;container=0;fontStyle=2" parent="IKqkC-VqAS8bh-hIaz8--110" vertex="1">
          <mxGeometry x="748.03" y="374.1499999999999" width="78.74" height="54.22" as="geometry" />
        </mxCell>
        <mxCell id="0MDFwOMSwQNmZCORZw81-253" value="" style="shape=mxgraph.cisco.modems_and_phones.modem;sketch=0;html=1;pointerEvents=1;dashed=0;fillColor=#000000;strokeColor=#E6E6E6;strokeWidth=2;verticalLabelPosition=bottom;verticalAlign=top;align=center;outlineConnect=0;fontSize=23;fillStyle=auto;aspect=fixed;fontFamily=Arial;fontStyle=2" parent="IKqkC-VqAS8bh-hIaz8--110" vertex="1">
          <mxGeometry x="118.37" y="1442.85" width="78.74" height="28.04" as="geometry" />
        </mxCell>
        <mxCell id="0MDFwOMSwQNmZCORZw81-289" value="" style="shape=mxgraph.cisco.computers_and_peripherals.printer;sketch=0;html=1;pointerEvents=1;dashed=0;fillColor=#000000;strokeColor=#E6E6E6;strokeWidth=2;verticalLabelPosition=bottom;verticalAlign=top;align=center;outlineConnect=0;fontSize=23;fillStyle=auto;aspect=fixed;fontFamily=Arial;fontStyle=2" parent="IKqkC-VqAS8bh-hIaz8--110" vertex="1">
          <mxGeometry x="1656.05" y="826.77" width="104.67" height="39.72" as="geometry" />
        </mxCell>
        <mxCell id="9BwAd8rwPp-84XcoNZzX-198" value="Шины" parent="0" />
        <mxCell id="9BwAd8rwPp-84XcoNZzX-201" value="Названия" style="" parent="0" />
        <mxCell id="0MDFwOMSwQNmZCORZw81-165" value="Коммутатор" style="text;html=1;strokeColor=none;fillColor=none;align=center;verticalAlign=middle;whiteSpace=wrap;rounded=0;dashed=1;fillStyle=auto;strokeWidth=2;fontFamily=Arial;fontSize=14;fontStyle=2;container=0;" parent="9BwAd8rwPp-84XcoNZzX-201" vertex="1">
          <mxGeometry x="433.07" y="1387.79" width="78.74" height="29.53" as="geometry" />
        </mxCell>
        <mxCell id="0MDFwOMSwQNmZCORZw81-166" value="Модем" style="text;html=1;strokeColor=none;fillColor=none;align=center;verticalAlign=middle;whiteSpace=wrap;rounded=0;dashed=1;fillStyle=auto;strokeWidth=2;fontFamily=Arial;fontSize=14;fontStyle=2;container=0;" parent="9BwAd8rwPp-84XcoNZzX-201" vertex="1">
          <mxGeometry x="118.11" y="1387.79" width="78.74" height="29.53" as="geometry" />
        </mxCell>
        <mxCell id="0MDFwOMSwQNmZCORZw81-167" value="Маршрутизатор" style="text;html=1;strokeColor=none;fillColor=none;align=center;verticalAlign=middle;whiteSpace=wrap;rounded=0;dashed=1;fillStyle=auto;strokeWidth=2;fontFamily=Arial;fontSize=14;fontStyle=2;container=0;" parent="9BwAd8rwPp-84XcoNZzX-201" vertex="1">
          <mxGeometry x="590.55" y="1387.79" width="78.74" height="29.53" as="geometry" />
        </mxCell>
        <mxCell id="0MDFwOMSwQNmZCORZw81-168" value="Проектор" style="text;html=1;strokeColor=none;fillColor=none;align=center;verticalAlign=middle;whiteSpace=wrap;rounded=0;dashed=1;fillStyle=auto;strokeWidth=2;fontFamily=Arial;fontSize=14;fontStyle=2;container=0;" parent="9BwAd8rwPp-84XcoNZzX-201" vertex="1">
          <mxGeometry x="236.22" y="1387.79" width="157.48" height="29.53" as="geometry" />
        </mxCell>
        <mxCell id="0MDFwOMSwQNmZCORZw81-169" value="Беспроводное устройство" style="text;html=1;strokeColor=none;fillColor=none;align=center;verticalAlign=middle;whiteSpace=wrap;rounded=0;dashed=1;fillStyle=auto;strokeWidth=2;fontFamily=Arial;fontSize=14;fontStyle=2;container=0;" parent="9BwAd8rwPp-84XcoNZzX-201" vertex="1">
          <mxGeometry x="275.59" y="1496.0600000000002" width="78.74" height="29.53" as="geometry" />
        </mxCell>
        <mxCell id="0MDFwOMSwQNmZCORZw81-170" value="Рабочая станция" style="text;html=1;strokeColor=none;fillColor=none;align=center;verticalAlign=middle;whiteSpace=wrap;rounded=0;dashed=1;fillStyle=auto;strokeWidth=2;fontFamily=Arial;fontSize=14;fontStyle=2;container=0;" parent="9BwAd8rwPp-84XcoNZzX-201" vertex="1">
          <mxGeometry x="413.39" y="1496.06" width="118.11" height="29.53" as="geometry" />
        </mxCell>
        <mxCell id="0MDFwOMSwQNmZCORZw81-175" value="Принтер" style="text;html=1;strokeColor=none;fillColor=none;align=center;verticalAlign=middle;whiteSpace=wrap;rounded=0;dashed=1;fillStyle=auto;strokeWidth=2;fontFamily=Arial;fontSize=14;fontStyle=2;container=0;" parent="9BwAd8rwPp-84XcoNZzX-201" vertex="1">
          <mxGeometry x="118.11" y="1496.0600000000002" width="78.74" height="29.53" as="geometry" />
        </mxCell>
        <mxCell id="0MDFwOMSwQNmZCORZw81-176" value="Web-сервер" style="text;html=1;strokeColor=none;fillColor=none;align=center;verticalAlign=middle;whiteSpace=wrap;rounded=0;dashed=1;fillStyle=auto;strokeWidth=2;fontFamily=Arial;fontSize=14;fontStyle=2;container=0;" parent="9BwAd8rwPp-84XcoNZzX-201" vertex="1">
          <mxGeometry x="585.37" y="1496.06" width="100" height="24.3" as="geometry" />
        </mxCell>
        <mxCell id="Ox5Po6O9_LgIOVLj1sJk-18" value="Кабель UTP категории 5e" style="text;html=1;strokeColor=none;fillColor=none;align=center;verticalAlign=bottom;whiteSpace=wrap;rounded=0;dashed=1;fillStyle=auto;strokeWidth=2;fontFamily=Arial;fontSize=14;fontStyle=2;container=0;" parent="9BwAd8rwPp-84XcoNZzX-201" vertex="1">
          <mxGeometry x="759.37" y="1550" width="240" height="30" as="geometry" />
        </mxCell>
        <mxCell id="Ox5Po6O9_LgIOVLj1sJk-19" value="Шина" style="text;html=1;strokeColor=none;fillColor=none;align=center;verticalAlign=bottom;whiteSpace=wrap;rounded=0;dashed=1;fillStyle=auto;strokeWidth=2;fontFamily=Arial;fontSize=14;fontStyle=2;container=0;" parent="9BwAd8rwPp-84XcoNZzX-201" vertex="1">
          <mxGeometry x="799.37" y="1400" width="160" height="30" as="geometry" />
        </mxCell>
        <mxCell id="IKqkC-VqAS8bh-hIaz8--20" value="Кабель телефонный" style="text;html=1;strokeColor=none;fillColor=none;align=center;verticalAlign=bottom;whiteSpace=wrap;rounded=0;dashed=1;fillStyle=auto;strokeWidth=2;fontFamily=Arial;fontSize=14;fontStyle=2;container=0;" parent="9BwAd8rwPp-84XcoNZzX-201" vertex="1">
          <mxGeometry x="1039.37" y="1480" width="160" height="30" as="geometry" />
        </mxCell>
        <mxCell id="IKqkC-VqAS8bh-hIaz8--7" value="Кабель Universal Serial Bus" style="text;html=1;strokeColor=none;fillColor=none;align=center;verticalAlign=bottom;whiteSpace=wrap;rounded=0;dashed=1;fillStyle=auto;strokeWidth=2;fontFamily=Arial;fontSize=14;fontStyle=2;container=0;" parent="9BwAd8rwPp-84XcoNZzX-201" vertex="1">
          <mxGeometry x="999.37" y="1400" width="240" height="30" as="geometry" />
        </mxCell>
        <mxCell id="IKqkC-VqAS8bh-hIaz8--5" value="Беспроводное соединение Wi-Fi" style="text;html=1;strokeColor=none;fillColor=none;align=center;verticalAlign=bottom;whiteSpace=wrap;rounded=0;dashed=1;fillStyle=auto;strokeWidth=2;fontFamily=Arial;fontSize=14;fontStyle=2;container=0;" parent="9BwAd8rwPp-84XcoNZzX-201" vertex="1">
          <mxGeometry x="759.37" y="1480" width="240" height="30" as="geometry" />
        </mxCell>
        <mxCell id="Ox5Po6O9_LgIOVLj1sJk-22" value="Подзаголовки" parent="0" />
        <mxCell id="oEqlLLCMxWZDDx5f_Mu--158" value="Устройства:" style="text;html=1;strokeColor=none;fillColor=none;align=left;verticalAlign=bottom;whiteSpace=wrap;rounded=0;dashed=1;fillStyle=auto;strokeWidth=2;fontFamily=Arial;fontSize=16;fontStyle=2;container=0;" parent="Ox5Po6O9_LgIOVLj1sJk-22" vertex="1">
          <mxGeometry x="119.37" y="1330" width="410" height="30" as="geometry" />
        </mxCell>
        <mxCell id="oEqlLLCMxWZDDx5f_Mu--159" value="Соединения:" style="text;html=1;strokeColor=none;fillColor=none;align=left;verticalAlign=bottom;whiteSpace=wrap;rounded=0;dashed=1;fillStyle=auto;strokeWidth=2;fontFamily=Arial;fontSize=16;fontStyle=2;container=0;" parent="Ox5Po6O9_LgIOVLj1sJk-22" vertex="1">
          <mxGeometry x="759.37" y="1330" width="410" height="30" as="geometry" />
        </mxCell>
        <mxCell id="Ox5Po6O9_LgIOVLj1sJk-21" value="Заголовки" parent="0" />
        <mxCell id="0MDFwOMSwQNmZCORZw81-180" value="Третий этаж" style="text;html=1;strokeColor=none;fillColor=none;align=left;verticalAlign=middle;whiteSpace=wrap;rounded=0;dashed=1;fillStyle=auto;strokeWidth=2;fontFamily=Arial;fontSize=18;fontStyle=2;container=0;" parent="Ox5Po6O9_LgIOVLj1sJk-21" vertex="1">
          <mxGeometry x="490.81" y="226.69" width="167.75" height="19.64" as="geometry" />
        </mxCell>
        <mxCell id="Ox5Po6O9_LgIOVLj1sJk-11" value="Условные графические обозначения:" style="text;html=1;strokeColor=none;fillColor=none;align=left;verticalAlign=bottom;whiteSpace=wrap;rounded=0;dashed=1;fillStyle=auto;strokeWidth=2;fontFamily=Arial;fontSize=18;fontStyle=2;container=0;" parent="Ox5Po6O9_LgIOVLj1sJk-21" vertex="1">
          <mxGeometry x="119.37" y="1300" width="410" height="30" as="geometry" />
        </mxCell>
        <mxCell id="Ox5Po6O9_LgIOVLj1sJk-23" value="Группы" parent="0" />
        <mxCell id="oEqlLLCMxWZDDx5f_Mu--78" value="" style="vsdxID=6;edgeStyle=none;dashed=1;dashPattern=12.00 4.00 4.00 4.00;startArrow=none;endArrow=none;startSize=5;endSize=5;strokeColor=#000000;spacingTop=0;spacingBottom=0;spacingLeft=0;spacingRight=0;verticalAlign=middle;html=1;labelBackgroundColor=#ffffff;rounded=0;strokeWidth=2;fontFamily=Arial;align=center;fontStyle=2" parent="Ox5Po6O9_LgIOVLj1sJk-23" edge="1">
          <mxGeometry width="50" height="50" relative="1" as="geometry">
            <mxPoint x="2008" y="197" as="sourcePoint" />
            <mxPoint x="2008" y="197" as="targetPoint" />
            <Array as="points">
              <mxPoint x="2008" y="945" />
              <mxPoint x="472" y="945" />
              <mxPoint x="472.44" y="196.85" />
            </Array>
          </mxGeometry>
        </mxCell>
        <mxCell id="9BwAd8rwPp-84XcoNZzX-183" value="Коннекторы" parent="0" />
        <mxCell id="IKqkC-VqAS8bh-hIaz8--33" value="" style="group;fontFamily=Arial;fontStyle=2" parent="9BwAd8rwPp-84XcoNZzX-183" vertex="1" connectable="0">
          <mxGeometry x="1104.37" y="1435" width="30" height="10" as="geometry" />
        </mxCell>
        <mxCell id="IKqkC-VqAS8bh-hIaz8--22" value="" style="rounded=0;whiteSpace=wrap;html=1;fontFamily=Arial;fontStyle=2" parent="IKqkC-VqAS8bh-hIaz8--33" vertex="1">
          <mxGeometry width="30" height="10" as="geometry" />
        </mxCell>
        <mxCell id="IKqkC-VqAS8bh-hIaz8--23" value="" style="rounded=0;whiteSpace=wrap;html=1;fontFamily=Arial;fillColor=#000000;strokeColor=none;fontStyle=2" parent="IKqkC-VqAS8bh-hIaz8--33" vertex="1">
          <mxGeometry x="0.7502999999999247" width="5.9055" height="1.9685" as="geometry" />
        </mxCell>
        <mxCell id="IKqkC-VqAS8bh-hIaz8--24" value="" style="rounded=0;whiteSpace=wrap;html=1;fontFamily=Arial;fillColor=#000000;strokeColor=none;fontStyle=2" parent="IKqkC-VqAS8bh-hIaz8--33" vertex="1">
          <mxGeometry x="8.250299999999925" width="5.9055" height="1.9685" as="geometry" />
        </mxCell>
        <mxCell id="IKqkC-VqAS8bh-hIaz8--25" value="" style="rounded=0;whiteSpace=wrap;html=1;fontFamily=Arial;fillColor=#000000;strokeColor=none;fontStyle=2" parent="IKqkC-VqAS8bh-hIaz8--33" vertex="1">
          <mxGeometry x="15.750299999999925" width="5.9055" height="1.9685" as="geometry" />
        </mxCell>
        <mxCell id="IKqkC-VqAS8bh-hIaz8--26" value="" style="rounded=0;whiteSpace=wrap;html=1;fontFamily=Arial;fillColor=#000000;strokeColor=none;fontStyle=2" parent="IKqkC-VqAS8bh-hIaz8--33" vertex="1">
          <mxGeometry x="23.250299999999925" width="5.9055" height="1.9685" as="geometry" />
        </mxCell>
        <mxCell id="IKqkC-VqAS8bh-hIaz8--32" value="" style="group;fontFamily=Arial;fontStyle=2" parent="9BwAd8rwPp-84XcoNZzX-183" vertex="1" connectable="0">
          <mxGeometry x="1109.37" y="1510" width="20" height="20" as="geometry" />
        </mxCell>
        <mxCell id="IKqkC-VqAS8bh-hIaz8--21" value="" style="rounded=0;whiteSpace=wrap;html=1;fontFamily=Arial;fontStyle=2" parent="IKqkC-VqAS8bh-hIaz8--32" vertex="1">
          <mxGeometry width="20" height="20" as="geometry" />
        </mxCell>
        <mxCell id="IKqkC-VqAS8bh-hIaz8--28" value="" style="rounded=0;whiteSpace=wrap;html=1;fontFamily=Arial;fillColor=#000000;strokeColor=none;fontStyle=2" parent="IKqkC-VqAS8bh-hIaz8--32" vertex="1">
          <mxGeometry x="4.40729999999985" width="1.9685" height="10" as="geometry" />
        </mxCell>
        <mxCell id="IKqkC-VqAS8bh-hIaz8--29" value="" style="rounded=0;whiteSpace=wrap;html=1;fontFamily=Arial;fillColor=#000000;strokeColor=none;fontStyle=2" parent="IKqkC-VqAS8bh-hIaz8--32" vertex="1">
          <mxGeometry x="13.462399999999889" width="1.9685" height="10" as="geometry" />
        </mxCell>
        <mxCell id="IKqkC-VqAS8bh-hIaz8--30" value="" style="rounded=0;whiteSpace=wrap;html=1;fontFamily=Arial;fillColor=#000000;strokeColor=none;fontStyle=2" parent="IKqkC-VqAS8bh-hIaz8--32" vertex="1">
          <mxGeometry x="10.312799999999925" width="1.9685" height="10" as="geometry" />
        </mxCell>
        <mxCell id="IKqkC-VqAS8bh-hIaz8--31" value="" style="rounded=0;whiteSpace=wrap;html=1;fontFamily=Arial;fillColor=#000000;strokeColor=none;fontStyle=2" parent="IKqkC-VqAS8bh-hIaz8--32" vertex="1">
          <mxGeometry x="7.556899999999814" width="1.9685" height="10" as="geometry" />
        </mxCell>
        <mxCell id="9BwAd8rwPp-84XcoNZzX-188" value="Рамка" style="" parent="0" />
        <mxCell id="Izu4CDzaR0ki_h7jihql-159" value="&lt;p style=&quot;margin: 0px ; text-indent: 0px ; direction: rtl ; font-size: 30px&quot;&gt;&lt;font style=&quot;font-size: 30px; direction: ltr; letter-spacing: 0px; line-height: 120%; opacity: 1;&quot;&gt;&lt;span style=&quot;font-size: 30px&quot;&gt;&lt;br style=&quot;font-size: 30px&quot;&gt;&lt;/span&gt;&lt;/font&gt;&lt;/p&gt;" style="verticalAlign=middle;align=center;vsdxID=275;rotation=180;fillColor=none;gradientColor=none;shape=stencil(nZBLDoAgDERP0z3SIyjew0SURgSD+Lu9kMZoXLhwN9O+tukAlrNpJg1SzDH4QW/URgNYgZTkjA4UkwJUgGXng+6DX1zLfmoymdXo17xh5zmRJ6Q42BWCfc2oJfdAr+Yv+AP9Cb7OJ3H/2JG1HNGz/84klThPVCc=);strokeColor=none;spacingTop=-1;spacingBottom=-1;spacingLeft=-1;spacingRight=-1;labelBackgroundColor=none;rounded=0;html=1;whiteSpace=wrap;fontSize=30;fontFamily=Arial;fontStyle=2" parent="9BwAd8rwPp-84XcoNZzX-188" vertex="1">
          <mxGeometry x="75.88" y="30.2" width="308" height="16" as="geometry" />
        </mxCell>
        <mxCell id="0MDFwOMSwQNmZCORZw81-0" style="vsdxID=204;edgeStyle=none;startArrow=none;endArrow=none;startSize=5;endSize=5;strokeWidth=3;strokeColor=#000000;spacingTop=0;spacingBottom=0;spacingLeft=0;spacingRight=0;verticalAlign=middle;html=1;labelBackgroundColor=#ffffff;rounded=0;fontFamily=Arial;fontStyle=2;align=center;" parent="9BwAd8rwPp-84XcoNZzX-188" edge="1">
          <mxGeometry relative="1" as="geometry">
            <mxPoint as="offset" />
            <Array as="points">
              <mxPoint x="32" y="1645.4" />
            </Array>
            <mxPoint x="32" y="5" as="sourcePoint" />
            <mxPoint x="2332" y="1646" as="targetPoint" />
          </mxGeometry>
        </mxCell>
        <mxCell id="0MDFwOMSwQNmZCORZw81-1" style="vsdxID=205;edgeStyle=none;startArrow=none;endArrow=none;startSize=5;endSize=5;strokeWidth=3;strokeColor=#000000;spacingTop=0;spacingBottom=0;spacingLeft=0;spacingRight=0;verticalAlign=middle;html=1;labelBackgroundColor=#ffffff;rounded=0;fontFamily=Arial;fontStyle=2;align=center;" parent="9BwAd8rwPp-84XcoNZzX-188" edge="1">
          <mxGeometry relative="1" as="geometry">
            <mxPoint x="-1" as="offset" />
            <Array as="points">
              <mxPoint x="2332" y="5.600000000000001" />
            </Array>
            <mxPoint x="2332" y="1646" as="sourcePoint" />
            <mxPoint x="32" y="5" as="targetPoint" />
          </mxGeometry>
        </mxCell>
        <mxCell id="0MDFwOMSwQNmZCORZw81-2" style="vsdxID=365;edgeStyle=none;startArrow=none;endArrow=none;startSize=5;endSize=5;strokeWidth=3;strokeColor=#000000;spacingTop=-1;spacingBottom=-1;spacingLeft=-1;spacingRight=-1;verticalAlign=middle;html=1;labelBackgroundColor=#ffffff;rounded=0;fontFamily=Arial;fontStyle=2;align=center;" parent="9BwAd8rwPp-84XcoNZzX-188" edge="1">
          <mxGeometry relative="1" as="geometry">
            <Array as="points" />
            <mxPoint x="315" y="62" as="sourcePoint" />
            <mxPoint x="34" y="62" as="targetPoint" />
          </mxGeometry>
        </mxCell>
        <mxCell id="0MDFwOMSwQNmZCORZw81-3" value="&lt;div style=&quot;&quot;&gt;&lt;p style=&quot;margin: 0px; text-indent: 0px; direction: ltr;&quot;&gt;&lt;font style=&quot;color: rgb(0, 0, 0); direction: ltr; letter-spacing: 0px; line-height: 120%; opacity: 1;&quot;&gt;&lt;font style=&quot;font-size: 28px;&quot;&gt;ГУИР.400201.405 С2&lt;/font&gt;&lt;span style=&quot;font-size: 25.4px;&quot;&gt;&lt;br&gt;&lt;/span&gt;&lt;/font&gt;&lt;/p&gt;&lt;/div&gt;" style="verticalAlign=middle;align=center;vsdxID=366;rotation=180;fillColor=none;gradientColor=none;shape=stencil(nZBLDoAgDERP0z3SIyjew0SURgSD+Lu9kMZoXLhwN9O+tukAlrNpJg1SzDH4QW/URgNYgZTkjA4UkwJUgGXng+6DX1zLfmoymdXo17xh5zmRJ6Q42BWCfc2oJfdAr+Yv+AP9Cb7OJ3H/2JG1HNGz/84klThPVCc=);strokeColor=none;spacingTop=-1;spacingBottom=-1;spacingLeft=-1;spacingRight=-1;points=[];labelBackgroundColor=none;rounded=0;html=1;whiteSpace=wrap;fontFamily=Arial;fontStyle=2" parent="9BwAd8rwPp-84XcoNZzX-188" vertex="1">
          <mxGeometry x="35" y="3" width="280" height="60" as="geometry" />
        </mxCell>
        <mxCell id="0MDFwOMSwQNmZCORZw81-4" style="vsdxID=367;edgeStyle=none;startArrow=none;endArrow=none;startSize=5;endSize=5;strokeWidth=3;strokeColor=#000000;spacingTop=-1;spacingBottom=-1;spacingLeft=-1;spacingRight=-1;verticalAlign=middle;html=1;labelBackgroundColor=#ffffff;rounded=0;fontFamily=Arial;fontStyle=2;align=center;" parent="9BwAd8rwPp-84XcoNZzX-188" edge="1">
          <mxGeometry relative="1" as="geometry">
            <Array as="points" />
            <mxPoint x="316" y="5" as="sourcePoint" />
            <mxPoint x="316" y="62" as="targetPoint" />
          </mxGeometry>
        </mxCell>
        <mxCell id="0MDFwOMSwQNmZCORZw81-49" style="vsdxID=3;fillColor=#FFFFFF;gradientColor=none;shape=stencil(nY9LDoAgDERP0z3SI/i5BwkoRAUC+Lu9kGo0Lt3NtK/tFLCOWngFnMUU3Kg2I5MGbIBzY7UKJmUF2ALWvQtqCG6xkrwXhSxqdmvZsNNcxViZ4ewgT64jdDL2hf4E7wsXmsWThd549765c4l+xvYE);strokeColor=#000000;strokeWidth=4;spacingTop=-1;spacingBottom=-1;spacingLeft=-1;spacingRight=-1;labelBackgroundColor=#ffffff;rounded=0;html=1;whiteSpace=wrap;fontFamily=Arial;fontStyle=2;align=center;" parent="9BwAd8rwPp-84XcoNZzX-188" vertex="1">
          <mxGeometry x="1592" y="1427" width="740" height="220" as="geometry" />
        </mxCell>
        <mxCell id="0MDFwOMSwQNmZCORZw81-50" style="vsdxID=28;edgeStyle=none;startArrow=none;endArrow=none;startSize=5;endSize=5;strokeWidth=4;strokeColor=#000000;spacingTop=-1;spacingBottom=-1;spacingLeft=-1;spacingRight=-1;verticalAlign=middle;html=1;labelBackgroundColor=#ffffff;rounded=0;fontFamily=Arial;fontStyle=2;align=center;" parent="9BwAd8rwPp-84XcoNZzX-188" edge="1">
          <mxGeometry relative="1" as="geometry">
            <Array as="points" />
            <mxPoint x="1620" y="1426.9999999999998" as="sourcePoint" />
            <mxPoint x="1620" y="1526.9999999999998" as="targetPoint" />
          </mxGeometry>
        </mxCell>
        <mxCell id="0MDFwOMSwQNmZCORZw81-51" style="vsdxID=27;edgeStyle=none;startArrow=none;endArrow=none;startSize=5;endSize=5;strokeColor=#000000;spacingTop=-1;spacingBottom=-1;spacingLeft=-1;spacingRight=-1;verticalAlign=middle;html=1;labelBackgroundColor=#ffffff;rounded=0;fontFamily=Arial;fontStyle=2;align=center;" parent="9BwAd8rwPp-84XcoNZzX-188" edge="1">
          <mxGeometry relative="1" as="geometry">
            <mxPoint as="offset" />
            <Array as="points" />
            <mxPoint x="1592" y="1626.9999999999998" as="sourcePoint" />
            <mxPoint x="1852" y="1626.9999999999998" as="targetPoint" />
          </mxGeometry>
        </mxCell>
        <mxCell id="0MDFwOMSwQNmZCORZw81-52" style="vsdxID=26;edgeStyle=none;startArrow=none;endArrow=none;startSize=5;endSize=5;strokeColor=#000000;spacingTop=-1;spacingBottom=-1;spacingLeft=-1;spacingRight=-1;verticalAlign=middle;html=1;labelBackgroundColor=#ffffff;rounded=0;fontFamily=Arial;fontStyle=2;align=center;" parent="9BwAd8rwPp-84XcoNZzX-188" edge="1">
          <mxGeometry relative="1" as="geometry">
            <mxPoint as="offset" />
            <Array as="points" />
            <mxPoint x="1592" y="1606.9999999999998" as="sourcePoint" />
            <mxPoint x="1852" y="1606.9999999999998" as="targetPoint" />
          </mxGeometry>
        </mxCell>
        <mxCell id="0MDFwOMSwQNmZCORZw81-53" style="vsdxID=25;edgeStyle=none;startArrow=none;endArrow=none;startSize=5;endSize=5;strokeColor=#000000;spacingTop=-1;spacingBottom=-1;spacingLeft=-1;spacingRight=-1;verticalAlign=middle;html=1;labelBackgroundColor=#ffffff;rounded=0;fontFamily=Arial;fontStyle=2;align=center;" parent="9BwAd8rwPp-84XcoNZzX-188" edge="1">
          <mxGeometry relative="1" as="geometry">
            <mxPoint as="offset" />
            <Array as="points" />
            <mxPoint x="1592" y="1586.9999999999998" as="sourcePoint" />
            <mxPoint x="1852" y="1586.9999999999998" as="targetPoint" />
          </mxGeometry>
        </mxCell>
        <mxCell id="0MDFwOMSwQNmZCORZw81-54" style="vsdxID=24;edgeStyle=none;startArrow=none;endArrow=none;startSize=5;endSize=5;strokeColor=#000000;spacingTop=-1;spacingBottom=-1;spacingLeft=-1;spacingRight=-1;verticalAlign=middle;html=1;labelBackgroundColor=#ffffff;rounded=0;fontFamily=Arial;fontStyle=2;align=center;" parent="9BwAd8rwPp-84XcoNZzX-188" edge="1">
          <mxGeometry relative="1" as="geometry">
            <mxPoint as="offset" />
            <Array as="points" />
            <mxPoint x="1592" y="1566.9999999999998" as="sourcePoint" />
            <mxPoint x="1852" y="1566.9999999999998" as="targetPoint" />
          </mxGeometry>
        </mxCell>
        <mxCell id="0MDFwOMSwQNmZCORZw81-55" style="vsdxID=23;edgeStyle=none;startArrow=none;endArrow=none;startSize=5;endSize=5;strokeColor=#000000;spacingTop=-1;spacingBottom=-1;spacingLeft=-1;spacingRight=-1;verticalAlign=middle;html=1;labelBackgroundColor=#ffffff;rounded=0;fontFamily=Arial;fontStyle=2;align=center;" parent="9BwAd8rwPp-84XcoNZzX-188" edge="1">
          <mxGeometry relative="1" as="geometry">
            <mxPoint as="offset" />
            <Array as="points" />
            <mxPoint x="1592" y="1546.9999999999998" as="sourcePoint" />
            <mxPoint x="1852" y="1546.9999999999998" as="targetPoint" />
          </mxGeometry>
        </mxCell>
        <mxCell id="0MDFwOMSwQNmZCORZw81-56" style="vsdxID=22;edgeStyle=none;startArrow=none;endArrow=none;startSize=5;endSize=5;strokeWidth=4;strokeColor=#000000;spacingTop=-1;spacingBottom=-1;spacingLeft=-1;spacingRight=-1;verticalAlign=middle;html=1;labelBackgroundColor=#ffffff;rounded=0;fontFamily=Arial;fontStyle=2;align=center;" parent="9BwAd8rwPp-84XcoNZzX-188" edge="1">
          <mxGeometry relative="1" as="geometry">
            <mxPoint as="offset" />
            <Array as="points" />
            <mxPoint x="1592" y="1526.9999999999998" as="sourcePoint" />
            <mxPoint x="1852" y="1526.9999999999998" as="targetPoint" />
          </mxGeometry>
        </mxCell>
        <mxCell id="0MDFwOMSwQNmZCORZw81-57" style="vsdxID=21;edgeStyle=none;startArrow=none;endArrow=none;startSize=5;endSize=5;strokeWidth=4;strokeColor=#000000;spacingTop=-1;spacingBottom=-1;spacingLeft=-1;spacingRight=-1;verticalAlign=middle;html=1;labelBackgroundColor=#ffffff;rounded=0;fontFamily=Arial;fontStyle=2;align=center;" parent="9BwAd8rwPp-84XcoNZzX-188" edge="1">
          <mxGeometry relative="1" as="geometry">
            <mxPoint as="offset" />
            <Array as="points" />
            <mxPoint x="1592" y="1506.9999999999998" as="sourcePoint" />
            <mxPoint x="1852" y="1506.9999999999998" as="targetPoint" />
          </mxGeometry>
        </mxCell>
        <mxCell id="0MDFwOMSwQNmZCORZw81-58" style="vsdxID=20;edgeStyle=none;startArrow=none;endArrow=none;startSize=5;endSize=5;strokeColor=#000000;spacingTop=-1;spacingBottom=-1;spacingLeft=-1;spacingRight=-1;verticalAlign=middle;html=1;labelBackgroundColor=#ffffff;rounded=0;fontFamily=Arial;fontStyle=2;align=center;" parent="9BwAd8rwPp-84XcoNZzX-188" edge="1">
          <mxGeometry relative="1" as="geometry">
            <mxPoint as="offset" />
            <Array as="points" />
            <mxPoint x="1592" y="1486.9999999999998" as="sourcePoint" />
            <mxPoint x="1852" y="1486.9999999999998" as="targetPoint" />
          </mxGeometry>
        </mxCell>
        <mxCell id="0MDFwOMSwQNmZCORZw81-59" style="vsdxID=19;edgeStyle=none;startArrow=none;endArrow=none;startSize=5;endSize=5;strokeColor=#000000;spacingTop=-1;spacingBottom=-1;spacingLeft=-1;spacingRight=-1;verticalAlign=middle;html=1;labelBackgroundColor=#ffffff;rounded=0;fontFamily=Arial;fontStyle=2;align=center;" parent="9BwAd8rwPp-84XcoNZzX-188" edge="1">
          <mxGeometry relative="1" as="geometry">
            <mxPoint as="offset" />
            <Array as="points" />
            <mxPoint x="1592" y="1466.9999999999998" as="sourcePoint" />
            <mxPoint x="1852" y="1466.9999999999998" as="targetPoint" />
          </mxGeometry>
        </mxCell>
        <mxCell id="0MDFwOMSwQNmZCORZw81-60" style="vsdxID=18;edgeStyle=none;startArrow=none;endArrow=none;startSize=5;endSize=5;strokeColor=#000000;spacingTop=-1;spacingBottom=-1;spacingLeft=-1;spacingRight=-1;verticalAlign=middle;html=1;labelBackgroundColor=#ffffff;rounded=0;fontFamily=Arial;fontStyle=2;align=center;" parent="9BwAd8rwPp-84XcoNZzX-188" edge="1">
          <mxGeometry relative="1" as="geometry">
            <mxPoint as="offset" />
            <Array as="points" />
            <mxPoint x="1592" y="1446.9999999999998" as="sourcePoint" />
            <mxPoint x="1852" y="1446.9999999999998" as="targetPoint" />
          </mxGeometry>
        </mxCell>
        <mxCell id="0MDFwOMSwQNmZCORZw81-61" style="vsdxID=17;edgeStyle=none;startArrow=none;endArrow=none;startSize=5;endSize=5;strokeWidth=4;strokeColor=#000000;spacingTop=-1;spacingBottom=-1;spacingLeft=-1;spacingRight=-1;verticalAlign=middle;html=1;labelBackgroundColor=#ffffff;rounded=0;fontFamily=Arial;fontStyle=2;align=center;" parent="9BwAd8rwPp-84XcoNZzX-188" edge="1">
          <mxGeometry relative="1" as="geometry">
            <Array as="points" />
            <mxPoint x="1660" y="1426.9999999999998" as="sourcePoint" />
            <mxPoint x="1660" y="1646.9999999999998" as="targetPoint" />
          </mxGeometry>
        </mxCell>
        <mxCell id="0MDFwOMSwQNmZCORZw81-62" style="vsdxID=16;edgeStyle=none;startArrow=none;endArrow=none;startSize=5;endSize=5;strokeWidth=4;strokeColor=#000000;spacingTop=-1;spacingBottom=-1;spacingLeft=-1;spacingRight=-1;verticalAlign=middle;html=1;labelBackgroundColor=#ffffff;rounded=0;fontFamily=Arial;fontStyle=2;align=center;" parent="9BwAd8rwPp-84XcoNZzX-188" edge="1">
          <mxGeometry relative="1" as="geometry">
            <Array as="points" />
            <mxPoint x="1752" y="1426.9999999999998" as="sourcePoint" />
            <mxPoint x="1752" y="1646.9999999999998" as="targetPoint" />
          </mxGeometry>
        </mxCell>
        <mxCell id="0MDFwOMSwQNmZCORZw81-63" style="vsdxID=15;edgeStyle=none;startArrow=none;endArrow=none;startSize=5;endSize=5;strokeWidth=4;strokeColor=#000000;spacingTop=-1;spacingBottom=-1;spacingLeft=-1;spacingRight=-1;verticalAlign=middle;html=1;labelBackgroundColor=#ffffff;rounded=0;fontFamily=Arial;fontStyle=2;align=center;" parent="9BwAd8rwPp-84XcoNZzX-188" edge="1">
          <mxGeometry relative="1" as="geometry">
            <Array as="points" />
            <mxPoint x="1812" y="1426.9999999999998" as="sourcePoint" />
            <mxPoint x="1812" y="1646.9999999999998" as="targetPoint" />
          </mxGeometry>
        </mxCell>
        <mxCell id="0MDFwOMSwQNmZCORZw81-64" style="vsdxID=14;edgeStyle=none;startArrow=none;endArrow=none;startSize=5;endSize=5;strokeWidth=4;strokeColor=#000000;spacingTop=-1;spacingBottom=-1;spacingLeft=-1;spacingRight=-1;verticalAlign=middle;html=1;labelBackgroundColor=#ffffff;rounded=0;fontFamily=Arial;fontStyle=2;align=center;" parent="9BwAd8rwPp-84XcoNZzX-188" edge="1">
          <mxGeometry relative="1" as="geometry">
            <Array as="points" />
            <mxPoint x="2262" y="1486.9999999999998" as="sourcePoint" />
            <mxPoint x="2262" y="1566.9999999999998" as="targetPoint" />
          </mxGeometry>
        </mxCell>
        <mxCell id="0MDFwOMSwQNmZCORZw81-65" style="vsdxID=11;edgeStyle=none;startArrow=none;endArrow=none;startSize=5;endSize=5;strokeWidth=4;strokeColor=#000000;spacingTop=-1;spacingBottom=-1;spacingLeft=-1;spacingRight=-1;verticalAlign=middle;html=1;labelBackgroundColor=#ffffff;rounded=0;fontFamily=Arial;fontStyle=2;align=center;" parent="9BwAd8rwPp-84XcoNZzX-188" edge="1">
          <mxGeometry relative="1" as="geometry">
            <Array as="points" />
            <mxPoint x="2212" y="1566.9999999999998" as="sourcePoint" />
            <mxPoint x="2212" y="1586.9999999999998" as="targetPoint" />
          </mxGeometry>
        </mxCell>
        <mxCell id="0MDFwOMSwQNmZCORZw81-66" style="vsdxID=10;edgeStyle=none;startArrow=none;endArrow=none;startSize=5;endSize=5;strokeWidth=4;strokeColor=#000000;spacingTop=-1;spacingBottom=-1;spacingLeft=-1;spacingRight=-1;verticalAlign=middle;html=1;labelBackgroundColor=#ffffff;rounded=0;fontFamily=Arial;fontStyle=2;align=center;" parent="9BwAd8rwPp-84XcoNZzX-188" edge="1">
          <mxGeometry relative="1" as="geometry">
            <Array as="points" />
            <mxPoint x="2192" y="1486.9999999999998" as="sourcePoint" />
            <mxPoint x="2192" y="1566.9999999999998" as="targetPoint" />
          </mxGeometry>
        </mxCell>
        <mxCell id="0MDFwOMSwQNmZCORZw81-67" style="vsdxID=388;edgeStyle=none;startArrow=none;endArrow=none;startSize=5;endSize=5;strokeColor=#000000;spacingTop=-1;spacingBottom=-1;spacingLeft=-1;spacingRight=-1;verticalAlign=middle;html=1;labelBackgroundColor=#ffffff;rounded=0;fontFamily=Arial;fontStyle=2;align=center;" parent="9BwAd8rwPp-84XcoNZzX-188" edge="1">
          <mxGeometry relative="1" as="geometry">
            <Array as="points" />
            <mxPoint x="2172" y="1504.9999999999998" as="sourcePoint" />
            <mxPoint x="2172" y="1566.9999999999998" as="targetPoint" />
          </mxGeometry>
        </mxCell>
        <mxCell id="0MDFwOMSwQNmZCORZw81-68" style="vsdxID=387;edgeStyle=none;startArrow=none;endArrow=none;startSize=5;endSize=5;strokeColor=#000000;spacingTop=-1;spacingBottom=-1;spacingLeft=-1;spacingRight=-1;verticalAlign=middle;html=1;labelBackgroundColor=#ffffff;rounded=0;fontFamily=Arial;fontStyle=2;align=center;" parent="9BwAd8rwPp-84XcoNZzX-188" edge="1">
          <mxGeometry relative="1" as="geometry">
            <Array as="points" />
            <mxPoint x="2152" y="1504.9999999999998" as="sourcePoint" />
            <mxPoint x="2152" y="1566.9999999999998" as="targetPoint" />
          </mxGeometry>
        </mxCell>
        <mxCell id="0MDFwOMSwQNmZCORZw81-69" style="vsdxID=9;edgeStyle=none;startArrow=none;endArrow=none;startSize=5;endSize=5;strokeWidth=4;strokeColor=#000000;spacingTop=-1;spacingBottom=-1;spacingLeft=-1;spacingRight=-1;verticalAlign=middle;html=1;labelBackgroundColor=#ffffff;rounded=0;fontFamily=Arial;fontStyle=2;align=center;" parent="9BwAd8rwPp-84XcoNZzX-188" edge="1">
          <mxGeometry relative="1" as="geometry">
            <mxPoint as="offset" />
            <Array as="points" />
            <mxPoint x="2132" y="1566.9999999999998" as="sourcePoint" />
            <mxPoint x="2332" y="1566.9999999999998" as="targetPoint" />
          </mxGeometry>
        </mxCell>
        <mxCell id="0MDFwOMSwQNmZCORZw81-70" style="vsdxID=8;edgeStyle=none;startArrow=none;endArrow=none;startSize=5;endSize=5;strokeWidth=4;strokeColor=#000000;spacingTop=-1;spacingBottom=-1;spacingLeft=-1;spacingRight=-1;verticalAlign=middle;html=1;labelBackgroundColor=#ffffff;rounded=0;fontFamily=Arial;fontStyle=2;align=center;" parent="9BwAd8rwPp-84XcoNZzX-188" edge="1">
          <mxGeometry relative="1" as="geometry">
            <mxPoint as="offset" />
            <Array as="points" />
            <mxPoint x="2132" y="1506.9999999999998" as="sourcePoint" />
            <mxPoint x="2332" y="1506.9999999999998" as="targetPoint" />
          </mxGeometry>
        </mxCell>
        <mxCell id="0MDFwOMSwQNmZCORZw81-71" style="vsdxID=7;edgeStyle=none;startArrow=none;endArrow=none;startSize=5;endSize=5;strokeWidth=4;strokeColor=#000000;spacingTop=-1;spacingBottom=-1;spacingLeft=-1;spacingRight=-1;verticalAlign=middle;html=1;labelBackgroundColor=#ffffff;rounded=0;fontFamily=Arial;fontStyle=2;align=center;" parent="9BwAd8rwPp-84XcoNZzX-188" edge="1">
          <mxGeometry relative="1" as="geometry">
            <Array as="points" />
            <mxPoint x="2132" y="1486.9999999999998" as="sourcePoint" />
            <mxPoint x="2132" y="1646.9999999999998" as="targetPoint" />
          </mxGeometry>
        </mxCell>
        <mxCell id="0MDFwOMSwQNmZCORZw81-72" style="vsdxID=6;edgeStyle=none;startArrow=none;endArrow=none;startSize=5;endSize=5;strokeWidth=4;strokeColor=#000000;spacingTop=-1;spacingBottom=-1;spacingLeft=-1;spacingRight=-1;verticalAlign=middle;html=1;labelBackgroundColor=#ffffff;rounded=0;fontFamily=Arial;fontStyle=2;align=center;" parent="9BwAd8rwPp-84XcoNZzX-188" edge="1">
          <mxGeometry relative="1" as="geometry">
            <Array as="points" />
            <mxPoint x="2332" y="1586.9999999999998" as="sourcePoint" />
            <mxPoint x="1852" y="1586.9999999999998" as="targetPoint" />
          </mxGeometry>
        </mxCell>
        <mxCell id="0MDFwOMSwQNmZCORZw81-73" style="vsdxID=4;edgeStyle=none;startArrow=none;endArrow=none;startSize=5;endSize=5;strokeWidth=4;strokeColor=#000000;spacingTop=-1;spacingBottom=-1;spacingLeft=-1;spacingRight=-1;verticalAlign=middle;html=1;labelBackgroundColor=#ffffff;rounded=0;fontFamily=Arial;fontStyle=2;align=center;" parent="9BwAd8rwPp-84XcoNZzX-188" edge="1">
          <mxGeometry relative="1" as="geometry">
            <Array as="points" />
            <mxPoint x="1852" y="1426.9999999999998" as="sourcePoint" />
            <mxPoint x="1852" y="1646.9999999999998" as="targetPoint" />
          </mxGeometry>
        </mxCell>
        <mxCell id="0MDFwOMSwQNmZCORZw81-74" style="vsdxID=5;edgeStyle=none;startArrow=none;endArrow=none;startSize=5;endSize=5;strokeWidth=4;strokeColor=#000000;spacingTop=-1;spacingBottom=-1;spacingLeft=-1;spacingRight=-1;verticalAlign=middle;html=1;labelBackgroundColor=#ffffff;rounded=0;fontFamily=Arial;fontStyle=2;align=center;" parent="9BwAd8rwPp-84XcoNZzX-188" edge="1">
          <mxGeometry relative="1" as="geometry">
            <Array as="points" />
            <mxPoint x="2332" y="1486.9999999999998" as="sourcePoint" />
            <mxPoint x="1852" y="1486.9999999999998" as="targetPoint" />
          </mxGeometry>
        </mxCell>
        <mxCell id="0MDFwOMSwQNmZCORZw81-75" value="&lt;font style=&quot;font-size: 8px; direction: ltr; letter-spacing: 0px; line-height: 120%; opacity: 1;&quot;&gt;&lt;span&gt;Изм&lt;br&gt;&lt;/span&gt;&lt;/font&gt;" style="verticalAlign=middle;align=center;vsdxID=29;fillColor=none;gradientColor=none;shape=stencil(nZBLDoAgDERP0z3SIyjew0SURgSD+Lu9kMZoXLhwN9O+tukAlrNpJg1SzDH4QW/URgNYgZTkjA4UkwJUgGXng+6DX1zLfmoymdXo17xh5zmRJ6Q42BWCfc2oJfdAr+Yv+AP9Cb7OJ3H/2JG1HNGz/84klThPVCc=);strokeColor=none;strokeWidth=4;spacingTop=-1;spacingBottom=-1;spacingLeft=-1;spacingRight=-1;labelBackgroundColor=none;rounded=0;html=1;whiteSpace=wrap;fontFamily=Arial;fontStyle=2" parent="9BwAd8rwPp-84XcoNZzX-188" vertex="1">
          <mxGeometry x="1594" y="1509" width="24" height="16" as="geometry" />
        </mxCell>
        <mxCell id="0MDFwOMSwQNmZCORZw81-76" value="&lt;font style=&quot;font-size: 8px; direction: ltr; letter-spacing: 0px; line-height: 120%; opacity: 1;&quot;&gt;&lt;span&gt;Лист&lt;br&gt;&lt;/span&gt;&lt;/font&gt;" style="verticalAlign=middle;align=center;vsdxID=30;fillColor=none;gradientColor=none;shape=stencil(nZBLDoAgDERP0z3SIyjew0SURgSD+Lu9kMZoXLhwN9O+tukAlrNpJg1SzDH4QW/URgNYgZTkjA4UkwJUgGXng+6DX1zLfmoymdXo17xh5zmRJ6Q42BWCfc2oJfdAr+Yv+AP9Cb7OJ3H/2JG1HNGz/84klThPVCc=);strokeColor=none;strokeWidth=4;spacingTop=-1;spacingBottom=-1;spacingLeft=-1;spacingRight=-1;labelBackgroundColor=none;rounded=0;html=1;whiteSpace=wrap;fontFamily=Arial;fontStyle=2" parent="9BwAd8rwPp-84XcoNZzX-188" vertex="1">
          <mxGeometry x="1622" y="1509" width="36" height="16" as="geometry" />
        </mxCell>
        <mxCell id="0MDFwOMSwQNmZCORZw81-77" value="&lt;font style=&quot;font-size: 8px; direction: ltr; letter-spacing: 0px; line-height: 120%; opacity: 1;&quot;&gt;&lt;span&gt;№ документа&lt;br&gt;&lt;/span&gt;&lt;/font&gt;" style="verticalAlign=middle;align=center;vsdxID=31;fillColor=none;gradientColor=none;shape=stencil(nZBLDoAgDERP0z3SIyjew0SURgSD+Lu9kMZoXLhwN9O+tukAlrNpJg1SzDH4QW/URgNYgZTkjA4UkwJUgGXng+6DX1zLfmoymdXo17xh5zmRJ6Q42BWCfc2oJfdAr+Yv+AP9Cb7OJ3H/2JG1HNGz/84klThPVCc=);strokeColor=none;strokeWidth=4;spacingTop=-1;spacingBottom=-1;spacingLeft=-1;spacingRight=-1;labelBackgroundColor=none;rounded=0;html=1;whiteSpace=wrap;fontFamily=Arial;fontStyle=2" parent="9BwAd8rwPp-84XcoNZzX-188" vertex="1">
          <mxGeometry x="1662" y="1509" width="88" height="16" as="geometry" />
        </mxCell>
        <mxCell id="0MDFwOMSwQNmZCORZw81-78" value="&lt;font style=&quot;font-size: 8px; direction: ltr; letter-spacing: 0px; line-height: 120%; opacity: 1;&quot;&gt;&lt;span&gt;Подпись&lt;br&gt;&lt;/span&gt;&lt;/font&gt;" style="verticalAlign=middle;align=center;vsdxID=32;fillColor=none;gradientColor=none;shape=stencil(nZBLDoAgDERP0z3SIyjew0SURgSD+Lu9kMZoXLhwN9O+tukAlrNpJg1SzDH4QW/URgNYgZTkjA4UkwJUgGXng+6DX1zLfmoymdXo17xh5zmRJ6Q42BWCfc2oJfdAr+Yv+AP9Cb7OJ3H/2JG1HNGz/84klThPVCc=);strokeColor=none;strokeWidth=4;spacingTop=-1;spacingBottom=-1;spacingLeft=-1;spacingRight=-1;labelBackgroundColor=none;rounded=0;html=1;whiteSpace=wrap;fontFamily=Arial;fontStyle=2" parent="9BwAd8rwPp-84XcoNZzX-188" vertex="1">
          <mxGeometry x="1754" y="1509" width="56" height="16" as="geometry" />
        </mxCell>
        <mxCell id="0MDFwOMSwQNmZCORZw81-79" value="&lt;font style=&quot;font-size: 8px; direction: ltr; letter-spacing: 0px; line-height: 120%; opacity: 1;&quot;&gt;&lt;span&gt;Дата&lt;br&gt;&lt;/span&gt;&lt;/font&gt;" style="verticalAlign=middle;align=center;vsdxID=33;fillColor=none;gradientColor=none;shape=stencil(nZBLDoAgDERP0z3SIyjew0SURgSD+Lu9kMZoXLhwN9O+tukAlrNpJg1SzDH4QW/URgNYgZTkjA4UkwJUgGXng+6DX1zLfmoymdXo17xh5zmRJ6Q42BWCfc2oJfdAr+Yv+AP9Cb7OJ3H/2JG1HNGz/84klThPVCc=);strokeColor=none;strokeWidth=4;spacingTop=-1;spacingBottom=-1;spacingLeft=-1;spacingRight=-1;labelBackgroundColor=none;rounded=0;html=1;whiteSpace=wrap;fontFamily=Arial;fontStyle=2" parent="9BwAd8rwPp-84XcoNZzX-188" vertex="1">
          <mxGeometry x="1814" y="1509" width="36" height="16" as="geometry" />
        </mxCell>
        <mxCell id="0MDFwOMSwQNmZCORZw81-80" value="&lt;font style=&quot;font-size: 8px; direction: ltr; letter-spacing: 0px; line-height: 120%; opacity: 1;&quot;&gt;&lt;span&gt;Лит.&lt;br&gt;&lt;/span&gt;&lt;/font&gt;" style="verticalAlign=middle;align=center;vsdxID=34;fillColor=none;gradientColor=none;shape=stencil(nZBLDoAgDERP0z3SIyjew0SURgSD+Lu9kMZoXLhwN9O+tukAlrNpJg1SzDH4QW/URgNYgZTkjA4UkwJUgGXng+6DX1zLfmoymdXo17xh5zmRJ6Q42BWCfc2oJfdAr+Yv+AP9Cb7OJ3H/2JG1HNGz/84klThPVCc=);strokeColor=none;strokeWidth=4;spacingTop=-1;spacingBottom=-1;spacingLeft=-1;spacingRight=-1;labelBackgroundColor=none;rounded=0;html=1;whiteSpace=wrap;fontFamily=Arial;fontStyle=2" parent="9BwAd8rwPp-84XcoNZzX-188" vertex="1">
          <mxGeometry x="2134" y="1489" width="56" height="16" as="geometry" />
        </mxCell>
        <mxCell id="0MDFwOMSwQNmZCORZw81-81" value="&lt;font style=&quot;font-size: 8px; direction: ltr; letter-spacing: 0px; line-height: 120%; opacity: 1;&quot;&gt;&lt;span&gt;Масса&lt;br&gt;&lt;/span&gt;&lt;/font&gt;" style="verticalAlign=middle;align=center;vsdxID=35;fillColor=none;gradientColor=none;shape=stencil(nZBLDoAgDERP0z3SIyjew0SURgSD+Lu9kMZoXLhwN9O+tukAlrNpJg1SzDH4QW/URgNYgZTkjA4UkwJUgGXng+6DX1zLfmoymdXo17xh5zmRJ6Q42BWCfc2oJfdAr+Yv+AP9Cb7OJ3H/2JG1HNGz/84klThPVCc=);strokeColor=none;strokeWidth=4;spacingTop=-1;spacingBottom=-1;spacingLeft=-1;spacingRight=-1;labelBackgroundColor=none;rounded=0;html=1;whiteSpace=wrap;fontFamily=Arial;fontStyle=2" parent="9BwAd8rwPp-84XcoNZzX-188" vertex="1">
          <mxGeometry x="2194" y="1489" width="66" height="16" as="geometry" />
        </mxCell>
        <mxCell id="0MDFwOMSwQNmZCORZw81-82" value="&lt;font style=&quot;font-size: 8px; direction: ltr; letter-spacing: 0px; line-height: 120%; opacity: 1;&quot;&gt;&lt;span&gt;Масштаб&lt;br&gt;&lt;/span&gt;&lt;/font&gt;" style="verticalAlign=middle;align=center;vsdxID=36;fillColor=none;gradientColor=none;shape=stencil(nZBLDoAgDERP0z3SIyjew0SURgSD+Lu9kMZoXLhwN9O+tukAlrNpJg1SzDH4QW/URgNYgZTkjA4UkwJUgGXng+6DX1zLfmoymdXo17xh5zmRJ6Q42BWCfc2oJfdAr+Yv+AP9Cb7OJ3H/2JG1HNGz/84klThPVCc=);strokeColor=none;strokeWidth=4;spacingTop=-1;spacingBottom=-1;spacingLeft=-1;spacingRight=-1;labelBackgroundColor=none;rounded=0;html=1;whiteSpace=wrap;fontFamily=Arial;fontStyle=2" parent="9BwAd8rwPp-84XcoNZzX-188" vertex="1">
          <mxGeometry x="2264" y="1489" width="66" height="16" as="geometry" />
        </mxCell>
        <mxCell id="0MDFwOMSwQNmZCORZw81-83" value="&lt;font style=&quot;font-size: 8px; direction: ltr; letter-spacing: 0px; line-height: 120%; opacity: 1;&quot;&gt;&lt;span&gt;Лист &lt;br&gt;&lt;/span&gt;&lt;/font&gt;" style="verticalAlign=middle;align=center;vsdxID=37;fillColor=none;gradientColor=none;shape=stencil(nZBLDoAgDERP0z3SIyjew0SURgSD+Lu9kMZoXLhwN9O+tukAlrNpJg1SzDH4QW/URgNYgZTkjA4UkwJUgGXng+6DX1zLfmoymdXo17xh5zmRJ6Q42BWCfc2oJfdAr+Yv+AP9Cb7OJ3H/2JG1HNGz/84klThPVCc=);strokeColor=none;strokeWidth=4;spacingTop=-1;spacingBottom=-1;spacingLeft=-1;spacingRight=-1;labelBackgroundColor=none;rounded=0;html=1;whiteSpace=wrap;fontFamily=Arial;fontStyle=2" parent="9BwAd8rwPp-84XcoNZzX-188" vertex="1">
          <mxGeometry x="2134" y="1569" width="76" height="16" as="geometry" />
        </mxCell>
        <mxCell id="0MDFwOMSwQNmZCORZw81-84" value="&lt;font style=&quot;font-size: 8px; direction: ltr; letter-spacing: 0px; line-height: 120%; opacity: 1;&quot;&gt;&lt;span&gt;Листов &lt;/span&gt;&lt;/font&gt;&lt;font style=&quot;font-size: 8px; direction: ltr; letter-spacing: 0px; line-height: 120%; opacity: 1;&quot;&gt;&lt;span&gt;1&lt;br&gt;&lt;/span&gt;&lt;/font&gt;" style="verticalAlign=middle;align=center;vsdxID=38;fillColor=none;gradientColor=none;shape=stencil(nZBLDoAgDERP0z3SIyjew0SURgSD+Lu9kMZoXLhwN9O+tukAlrNpJg1SzDH4QW/URgNYgZTkjA4UkwJUgGXng+6DX1zLfmoymdXo17xh5zmRJ6Q42BWCfc2oJfdAr+Yv+AP9Cb7OJ3H/2JG1HNGz/84klThPVCc=);strokeColor=none;strokeWidth=4;spacingTop=-1;spacingBottom=-1;spacingLeft=-1;spacingRight=-1;labelBackgroundColor=none;rounded=0;html=1;whiteSpace=wrap;fontFamily=Arial;fontStyle=2" parent="9BwAd8rwPp-84XcoNZzX-188" vertex="1">
          <mxGeometry x="2214" y="1569" width="116" height="16" as="geometry" />
        </mxCell>
        <mxCell id="0MDFwOMSwQNmZCORZw81-85" value="&lt;p style=&quot;margin-left: 0 ; margin-right: 0 ; margin-top: 0px ; margin-bottom: 0px ; text-indent: 0 ; direction: rtl&quot;&gt;&lt;font style=&quot;font-size: 12px; direction: ltr; letter-spacing: 0px; line-height: 120%; opacity: 1;&quot;&gt;&lt;span&gt;.Разраб&lt;br&gt;&lt;/span&gt;&lt;/font&gt;&lt;/p&gt;" style="verticalAlign=middle;align=left;vsdxID=39;fillColor=none;gradientColor=none;shape=stencil(nZBLDoAgDERP0z3SIyjew0SURgSD+Lu9kMZoXLhwN9O+tukAlrNpJg1SzDH4QW/URgNYgZTkjA4UkwJUgGXng+6DX1zLfmoymdXo17xh5zmRJ6Q42BWCfc2oJfdAr+Yv+AP9Cb7OJ3H/2JG1HNGz/84klThPVCc=);strokeColor=none;strokeWidth=4;spacingTop=-1;spacingBottom=-1;spacingLeft=-1;spacingRight=-1;labelBackgroundColor=none;rounded=0;html=1;whiteSpace=wrap;fontFamily=Arial;fontStyle=2" parent="9BwAd8rwPp-84XcoNZzX-188" vertex="1">
          <mxGeometry x="1594" y="1530" width="68" height="16" as="geometry" />
        </mxCell>
        <mxCell id="0MDFwOMSwQNmZCORZw81-86" value="&lt;p style=&quot;margin-left: 0 ; margin-right: 0 ; margin-top: 0px ; margin-bottom: 0px ; text-indent: 0 ; direction: rtl&quot;&gt;&lt;font style=&quot;font-size: 12px; direction: ltr; letter-spacing: 0px; line-height: 120%; opacity: 1;&quot;&gt;&lt;span&gt;.Пров&lt;br&gt;&lt;/span&gt;&lt;/font&gt;&lt;/p&gt;" style="verticalAlign=middle;align=left;vsdxID=40;fillColor=none;gradientColor=none;shape=stencil(nZBLDoAgDERP0z3SIyjew0SURgSD+Lu9kMZoXLhwN9O+tukAlrNpJg1SzDH4QW/URgNYgZTkjA4UkwJUgGXng+6DX1zLfmoymdXo17xh5zmRJ6Q42BWCfc2oJfdAr+Yv+AP9Cb7OJ3H/2JG1HNGz/84klThPVCc=);strokeColor=none;strokeWidth=4;spacingTop=-1;spacingBottom=-1;spacingLeft=-1;spacingRight=-1;labelBackgroundColor=none;rounded=0;html=1;whiteSpace=wrap;fontFamily=Arial;fontStyle=2" parent="9BwAd8rwPp-84XcoNZzX-188" vertex="1">
          <mxGeometry x="1594" y="1547" width="64" height="20" as="geometry" />
        </mxCell>
        <mxCell id="0MDFwOMSwQNmZCORZw81-87" value="&lt;p style=&quot;margin-left: 0 ; margin-right: 0 ; margin-top: 0px ; margin-bottom: 0px ; text-indent: 0 ; direction: rtl&quot;&gt;&lt;font style=&quot;direction: ltr; letter-spacing: 0px; line-height: 120%; opacity: 1;&quot;&gt;&lt;span&gt;&lt;font style=&quot;font-size: 36px&quot;&gt;ГУИР.400201.405 С2&lt;/font&gt;&lt;/span&gt;&lt;span style=&quot;font-size: 28px&quot;&gt;&lt;br&gt;&lt;/span&gt;&lt;/font&gt;&lt;/p&gt;" style="verticalAlign=middle;align=center;vsdxID=222;fillColor=none;gradientColor=none;shape=stencil(nZBLDoAgDERP0z3SIyjew0SURgSD+Lu9kMZoXLhwN9O+tukAlrNpJg1SzDH4QW/URgNYgZTkjA4UkwJUgGXng+6DX1zLfmoymdXo17xh5zmRJ6Q42BWCfc2oJfdAr+Yv+AP9Cb7OJ3H/2JG1HNGz/84klThPVCc=);strokeColor=none;spacingTop=-1;spacingBottom=-1;spacingLeft=-1;spacingRight=-1;labelBackgroundColor=none;rounded=0;html=1;whiteSpace=wrap;fontFamily=Arial;fontStyle=2" parent="9BwAd8rwPp-84XcoNZzX-188" vertex="1">
          <mxGeometry x="1852" y="1428.8" width="480" height="60" as="geometry" />
        </mxCell>
        <mxCell id="0MDFwOMSwQNmZCORZw81-88" value="&lt;font style=&quot;font-size: 20px; direction: ltr; letter-spacing: 0px; line-height: 120%; opacity: 1;&quot;&gt;&lt;span&gt;У&lt;br&gt;&lt;/span&gt;&lt;/font&gt;" style="verticalAlign=middle;align=center;vsdxID=233;fillColor=none;gradientColor=none;shape=stencil(nZBLDoAgDERP0z3SIyjew0SURgSD+Lu9kMZoXLhwN9O+tukAlrNpJg1SzDH4QW/URgNYgZTkjA4UkwJUgGXng+6DX1zLfmoymdXo17xh5zmRJ6Q42BWCfc2oJfdAr+Yv+AP9Cb7OJ3H/2JG1HNGz/84klThPVCc=);strokeColor=none;spacingTop=-1;spacingBottom=-1;spacingLeft=-1;spacingRight=-1;labelBackgroundColor=none;rounded=0;html=1;whiteSpace=wrap;fontFamily=Arial;fontStyle=2" parent="9BwAd8rwPp-84XcoNZzX-188" vertex="1">
          <mxGeometry x="2090" y="1527" width="141" height="16" as="geometry" />
        </mxCell>
        <mxCell id="0MDFwOMSwQNmZCORZw81-89" value="&lt;font style=&quot;font-size: 12px; direction: ltr; letter-spacing: 0px; line-height: 120%; opacity: 1;&quot;&gt;&lt;span&gt;Горбачевский&lt;br&gt;&lt;/span&gt;&lt;/font&gt;" style="verticalAlign=middle;align=left;vsdxID=236;fillColor=none;gradientColor=none;shape=stencil(nZBLDoAgDERP0z3SIyjew0SURgSD+Lu9kMZoXLhwN9O+tukAlrNpJg1SzDH4QW/URgNYgZTkjA4UkwJUgGXng+6DX1zLfmoymdXo17xh5zmRJ6Q42BWCfc2oJfdAr+Yv+AP9Cb7OJ3H/2JG1HNGz/84klThPVCc=);strokeColor=none;spacingTop=-1;spacingBottom=-1;spacingLeft=-1;spacingRight=-1;labelBackgroundColor=none;rounded=0;html=1;whiteSpace=wrap;fontFamily=Arial;fontStyle=2" parent="9BwAd8rwPp-84XcoNZzX-188" vertex="1">
          <mxGeometry x="1662" y="1530" width="90" height="16" as="geometry" />
        </mxCell>
        <mxCell id="0MDFwOMSwQNmZCORZw81-90" value="Марцинкевич" style="verticalAlign=middle;align=left;vsdxID=237;fillColor=none;gradientColor=none;shape=stencil(nZBLDoAgDERP0z3SIyjew0SURgSD+Lu9kMZoXLhwN9O+tukAlrNpJg1SzDH4QW/URgNYgZTkjA4UkwJUgGXng+6DX1zLfmoymdXo17xh5zmRJ6Q42BWCfc2oJfdAr+Yv+AP9Cb7OJ3H/2JG1HNGz/84klThPVCc=);strokeColor=none;spacingTop=-1;spacingBottom=-1;spacingLeft=-1;spacingRight=-1;labelBackgroundColor=none;rounded=0;html=1;whiteSpace=wrap;fontFamily=Arial;fontStyle=2" parent="9BwAd8rwPp-84XcoNZzX-188" vertex="1">
          <mxGeometry x="1662" y="1549" width="90" height="16" as="geometry" />
        </mxCell>
        <mxCell id="0MDFwOMSwQNmZCORZw81-91" value="&lt;font style=&quot;font-size: 22px; direction: ltr; letter-spacing: 0px; line-height: 120%; opacity: 1;&quot;&gt;&lt;span&gt;ЭВМ, гр.150504&lt;/span&gt;&lt;/font&gt;&lt;font style=&quot;font-size: 22px; direction: ltr; letter-spacing: 0px; line-height: 120%; opacity: 1;&quot;&gt;&lt;span&gt;&lt;br&gt;&lt;/span&gt;&lt;/font&gt;" style="verticalAlign=middle;align=center;vsdxID=262;fillColor=none;gradientColor=none;shape=stencil(nZBLDoAgDERP0z3SIyjew0SURgSD+Lu9kMZoXLhwN9O+tukAlrNpJg1SzDH4QW/URgNYgZTkjA4UkwJUgGXng+6DX1zLfmoymdXo17xh5zmRJ6Q42BWCfc2oJfdAr+Yv+AP9Cb7OJ3H/2JG1HNGz/84klThPVCc=);strokeColor=none;spacingTop=-1;spacingBottom=-1;spacingLeft=-1;spacingRight=-1;labelBackgroundColor=none;rounded=0;html=1;whiteSpace=wrap;fontFamily=Arial;fontStyle=2" parent="9BwAd8rwPp-84XcoNZzX-188" vertex="1">
          <mxGeometry x="2132" y="1592" width="198" height="50" as="geometry" />
        </mxCell>
        <mxCell id="0MDFwOMSwQNmZCORZw81-92" value="&lt;p style=&quot;margin: 0cm; font-size: 20px;&quot; class=&quot;MsoNormal&quot;&gt;&lt;font style=&quot;font-size: 20px;&quot;&gt;Локальная компьютерная сеть.&lt;/font&gt;&lt;/p&gt;&lt;font style=&quot;font-size: 20px;&quot;&gt;&lt;span style=&quot;&quot; lang=&quot;RU&quot;&gt;&lt;span&gt;Схема СКС ф&lt;/span&gt;&lt;/span&gt;ункциональная&lt;/font&gt;" style="verticalAlign=middle;align=center;vsdxID=565;fillColor=none;gradientColor=none;shape=stencil(nZBLDoAgDERP0z3SIyjew0SURgSD+Lu9kMZoXLhwN9O+tukAlrNpJg1SzDH4QW/URgNYgZTkjA4UkwJUgGXng+6DX1zLfmoymdXo17xh5zmRJ6Q42BWCfc2oJfdAr+Yv+AP9Cb7OJ3H/2JG1HNGz/84klThPVCc=);strokeColor=none;spacingTop=-1;spacingBottom=-1;spacingLeft=-1;spacingRight=-1;labelBackgroundColor=none;rounded=0;html=1;whiteSpace=wrap;fontFamily=Arial;fontStyle=2" parent="9BwAd8rwPp-84XcoNZzX-188" vertex="1">
          <mxGeometry x="1852" y="1489" width="280" height="100" as="geometry" />
        </mxCell>
      </root>
    </mxGraphModel>
  </diagram>
</mxfile>
